{
.appVersion = "3140";
.formatVersion = 3;
DisplayStrings = (
ABCDEFGHIJKLVWZNOPQRSTUVXYZ
);
axes = (
{
name = "Horizontal Rotation";
tag = HROT;
},
{
name = "Vertical Rotation";
tag = VROT;
}
);
date = "2022-09-06 09:58:40 +0000";
familyName = octagon;
fontMaster = (
{
axesValues = (
0,
0
);
id = m01;
metricValues = (
{
over = 16;
pos = 800;
},
{
over = 16;
pos = 600;
},
{
over = 16;
pos = 500;
},
{
over = -16;
},
{
over = -16;
pos = -200;
},
{
over = -16;
}
);
name = Regular;
},
{
axesValues = (
0,
30
);
guides = (
{
angle = 180;
pos = (463,550);
},
{
angle = 180;
pos = (463,50);
}
);
id = m002;
metricValues = (
{
over = 16;
pos = 800;
},
{
over = 16;
pos = 600;
},
{
over = 16;
pos = 500;
},
{
over = -16;
},
{
over = -16;
pos = -200;
},
{
over = -16;
}
);
name = Top;
},
{
axesValues = (
0,
-30
);
guides = (
{
angle = 180;
pos = (463,550);
},
{
angle = 180;
pos = (463,50);
}
);
id = m003;
metricValues = (
{
over = 16;
pos = 800;
},
{
over = 16;
pos = 600;
},
{
over = 16;
pos = 500;
},
{
over = -16;
},
{
over = -16;
pos = -200;
},
{
over = -16;
}
);
name = Bottom;
},
{
axesValues = (
-30,
0
);
id = m004;
metricValues = (
{
over = 16;
pos = 800;
},
{
over = 16;
pos = 600;
},
{
over = 16;
pos = 500;
},
{
over = -16;
},
{
over = -16;
pos = -200;
},
{
over = -16;
}
);
name = Left;
},
{
axesValues = (
30,
0
);
id = m005;
metricValues = (
{
over = 16;
pos = 800;
},
{
over = 16;
pos = 600;
},
{
over = 16;
pos = 500;
},
{
over = -16;
},
{
over = -16;
pos = -200;
},
{
over = -16;
}
);
name = Right;
}
);
glyphs = (
{
color = 1;
glyphname = A;
lastChange = "2022-10-18 12:20:00 +0000";
layers = (
{
layerId = m01;
shapes = (
{
closed = 1;
nodes = (
(87,85,l),
(209,520,l),
(228,515,l),
(106,80,l)
);
},
{
closed = 1;
nodes = (
(456,99,l),
(437,94,l),
(320,515,l),
(339,520,l)
);
},
{
closed = 1;
nodes = (
(209,520,l),
(339,520,l),
(339,500,l),
(209,500,l)
);
},
{
closed = 1;
nodes = (
(126,182,l),
(422,182,l),
(422,162,l),
(126,162,l)
);
},
{
closed = 1;
nodes = (
(197,100,l),
(343,100,l),
(343,80,l),
(197,80,l)
);
},
{
closed = 1;
nodes = (
(11,20,l),
(185,20,l),
(185,0,l),
(11,0,l)
);
},
{
closed = 1;
nodes = (
(350,20,l),
(585,20,l),
(585,0,l),
(350,0,l)
);
},
{
closed = 1;
nodes = (
(321,517,l),
(416,596,l),
(429,581,l),
(333,501,l)
);
},
{
closed = 1;
nodes = (
(5,0,l),
(165,600,l),
(184,595,l),
(25,0,l)
);
},
{
closed = 1;
nodes = (
(591,0,l),
(571,0,l),
(410,595,l),
(429,600,l)
);
},
{
closed = 1;
nodes = (
(165,580,l),
(165,600,l),
(429,600,l),
(429,580,l)
);
},
{
closed = 1;
nodes = (
(584,18,l),
(572,2,l),
(431,108,l),
(444,124,l)
);
},
{
closed = 1;
nodes = (
(348,15,l),
(433,112,l),
(449,99,l),
(362,1,l)
);
},
{
closed = 1;
nodes = (
(166,5,l),
(190,96,l),
(209,91,l),
(185,0,l)
);
},
{
closed = 1;
nodes = (
(369,5,l),
(350,0,l),
(326,91,l),
(345,96,l)
);
},
{
closed = 1;
nodes = (
(327,94,l),
(416,184,l),
(432,171,l),
(341,80,l)
);
},
{
closed = 1;
nodes = (
(188,15,l),
(174,1,l),
(95,80,l),
(110,93,l)
);
},
{
closed = 1;
nodes = (
(208,94,l),
(194,80,l),
(115,159,l),
(130,172,l)
);
},
{
closed = 1;
nodes = (
(12,15,l),
(90,93,l),
(105,80,l),
(26,1,l)
);
},
{
closed = 1;
nodes = (
(233,218,l),
(307,218,l),
(307,198,l),
(233,198,l)
);
},
{
closed = 1;
nodes = (
(307,218,l),
(427,176,l),
(418,158,l),
(298,200,l)
);
},
{
closed = 1;
nodes = (
(233,218,l),
(242,200,l),
(122,158,l),
(113,176,l)
);
},
{
closed = 1;
nodes = (
(261,348,l),
(280,343,l),
(235,200,l),
(216,206,l)
);
},
{
closed = 1;
nodes = (
(278,343,l),
(318,207,l),
(299,201,l),
(259,338,l)
);
},
{
closed = 1;
nodes = (
(226,511,l),
(209,501,l),
(163,588,l),
(181,597,l)
);
},
{
closed = 1;
nodes = (
(316,513,l),
(335,508,l),
(278,335,l),
(259,341,l)
);
},
{
closed = 1;
nodes = (
(228,511,l),
(279,338,l),
(260,332,l),
(209,506,l)
);
}
);
width = 596;
},
{
layerId = m002;
width = 600;
},
{
layerId = m003;
width = 600;
},
{
layerId = m004;
width = 600;
},
{
layerId = m005;
width = 600;
}
);
unicode = 65;
},
{
color = 1;
glyphname = B;
lastChange = "2022-10-20 14:55:03 +0000";
layers = (
{
layerId = m01;
shapes = (
{
closed = 1;
nodes = (
(25,0,l),
(25,600,l),
(5,600,l),
(5,0,l)
);
},
{
closed = 1;
nodes = (
(113,95,l),
(113,523,l),
(93,523,l),
(93,95,l)
);
},
{
closed = 1;
nodes = (
(226,366,l),
(226,442,l),
(206,442,l),
(206,366,l)
);
},
{
closed = 1;
nodes = (
(226,160,l),
(226,242,l),
(206,242,l),
(206,160,l)
);
},
{
closed = 1;
nodes = (
(549,90,l),
(549,226,l),
(529,226,l),
(529,90,l)
);
},
{
closed = 1;
nodes = (
(546,380,l),
(546,519,l),
(526,519,l),
(526,380,l)
);
},
{
closed = 1;
nodes = (
(6,0,l),
(424,0,l),
(424,20,l),
(6,20,l)
);
},
{
closed = 1;
nodes = (
(6,580,l),
(425,580,l),
(425,600,l),
(6,600,l)
);
},
{
closed = 1;
nodes = (
(93,503,l),
(355,503,l),
(355,523,l),
(93,523,l)
);
},
{
closed = 1;
nodes = (
(94,94,l),
(366,94,l),
(366,114,l),
(94,114,l)
);
},
{
closed = 1;
nodes = (
(424,389,l),
(424,469,l),
(404,469,l),
(404,389,l)
);
},
{
closed = 1;
nodes = (
(431,139,l),
(431,217,l),
(411,217,l),
(411,139,l)
);
},
{
closed = 1;
nodes = (
(206,158,l),
(307,158,l),
(307,178,l),
(206,178,l)
);
},
{
closed = 1;
nodes = (
(206,224,l),
(307,224,l),
(307,244,l),
(206,244,l)
);
},
{
closed = 1;
nodes = (
(206,423,l),
(302,423,l),
(302,443,l),
(206,443,l)
);
},
{
closed = 1;
nodes = (
(206,361,l),
(302,361,l),
(302,381,l),
(206,381,l)
);
},
{
closed = 1;
nodes = (
(108,96,l),
(95,110,l),
(11,18,l),
(23,5,l)
);
},
{
closed = 1;
nodes = (
(223,240,l),
(107,318,l),
(95,302,l),
(212,225,l)
);
},
{
closed = 1;
nodes = (
(222,443,l),
(106,522,l),
(93,506,l),
(210,428,l)
);
},
{
closed = 1;
nodes = (
(93,311,l),
(104,295,l),
(222,366,l),
(212,381,l)
);
},
{
closed = 1;
nodes = (
(104,110,l),
(114,94,l),
(229,165,l),
(219,180,l)
);
},
{
closed = 1;
nodes = (
(419,309,l),
(304,383,l),
(293,367,l),
(403,297,l),
(415,306,l),
(425,299,l),
(546,380,l),
(536,395,l),
(408,310,l),
(415,306,l),
(403,297,l),
(539,211,l),
(549,226,l),
(419,309,l),
(415,306,l),
(408,310,l),
(296,236,l),
(307,220,l),
(425,299,l),
(415,306,l)
);
},
{
closed = 1;
nodes = (
(546,99,l),
(420,158,l),
(412,141,l),
(538,83,l)
);
},
{
closed = 1;
nodes = (
(432,16,l),
(365,113,l),
(350,102,l),
(418,5,l)
);
},
{
closed = 1;
nodes = (
(408,467,l),
(416,450,l),
(543,510,l),
(535,526,l)
);
},
{
closed = 1;
nodes = (
(413,16,l),
(424,0,l),
(549,90,l),
(539,105,l)
);
},
{
closed = 1;
nodes = (
(546,519,l),
(425,600,l),
(414,584,l),
(536,504,l)
);
},
{
closed = 1;
nodes = (
(349,108,l),
(360,92,l),
(431,145,l),
(421,160,l)
);
},
{
closed = 1;
nodes = (
(340,351,l),
(351,335,l),
(423,389,l),
(413,404,l)
);
},
{
closed = 1;
nodes = (
(424,468,l),
(352,522,l),
(341,506,l),
(414,453,l)
);
},
{
closed = 1;
nodes = (
(430,218,l),
(357,271,l),
(345,257,l),
(419,205,l)
);
},
{
closed = 1;
nodes = (
(332,224,l),
(304,244,l),
(294,228,l),
(322,209,l)
);
},
{
closed = 1;
nodes = (
(332,178,l),
(332,224,l),
(312,224,l),
(312,178,l)
);
},
{
closed = 1;
nodes = (
(297,175,l),
(307,158,l),
(332,178,l),
(323,194,l)
);
},
{
closed = 1;
nodes = (
(418,203,l),
(540,212,l),
(540,232,l),
(417,223,l)
);
},
{
closed = 1;
nodes = (
(535,376,l),
(535,394,l),
(407,400,l),
(406,382,l)
);
},
{
closed = 1;
nodes = (
(93,299,l),
(402,299,l),
(402,319,l),
(93,319,l)
);
},
{
closed = 1;
nodes = (
(288,433,l),
(302,422,l),
(354,498,l),
(339,509,l)
);
},
{
closed = 1;
nodes = (
(342,511,l),
(357,500,l),
(431,584,l),
(419,596,l)
);
},
{
closed = 1;
nodes = (
(331,423,l),
(302,443,l),
(292,427,l),
(321,408,l)
);
},
{
closed = 1;
nodes = (
(331,381,l),
(331,423,l),
(311,423,l),
(311,381,l)
);
},
{
closed = 1;
nodes = (
(292,378,l),
(302,361,l),
(331,381,l),
(322,397,l)
);
},
{
closed = 1;
nodes = (
(419,452,l),
(410,466,l),
(318,426,l),
(324,408,l)
);
},
{
closed = 1;
nodes = (
(317,378,l),
(414,384,l),
(414,403,l),
(317,397,l)
);
},
{
closed = 1;
nodes = (
(318,173,l),
(410,138,l),
(419,152,l),
(324,191,l)
);
},
{
closed = 1;
nodes = (
(418,202,l),
(418,221,l),
(317,226,l),
(317,207,l)
);
},
{
closed = 1;
nodes = (
(369,113,l),
(304,174,l),
(290,163,l),
(354,102,l)
);
}
);
width = 554;
},
{
layerId = m002;
width = 600;
},
{
layerId = m003;
width = 600;
},
{
layerId = m004;
width = 600;
},
{
layerId = m005;
width = 600;
}
);
unicode = 66;
},
{
color = 1;
glyphname = C;
lastChange = "2022-10-18 12:20:00 +0000";
layers = (
{
backgroundImage = {
imagePath = "../_Source_images/C.tif";
pos = (-23,-33);
scale = (2.5857,2.5857);
};
layerId = m01;
shapes = (
{
closed = 1;
nodes = (
(343,0,l),
(343,19,l),
(160,19,l),
(160,0,l)
);
},
{
closed = 1;
nodes = (
(501,137,l),
(485,151,l),
(326,13,l),
(343,0,l)
);
},
{
closed = 1;
nodes = (
(501,136,l),
(501,279,l),
(480,279,l),
(480,136,l)
);
},
{
closed = 1;
nodes = (
(503,344,l),
(503,475,l),
(481,475,l),
(481,344,l)
);
},
{
closed = 1;
nodes = (
(503,474,l),
(354,599,l),
(339,584,l),
(488,459,l)
);
},
{
closed = 1;
nodes = (
(355,576,l),
(355,600,l),
(141,600,l),
(141,576,l)
);
},
{
closed = 1;
nodes = (
(156,585,l),
(141,600,l),
(5,474,l),
(20,459,l)
);
},
{
closed = 1;
nodes = (
(26,138,l),
(26,474,l),
(5,474,l),
(5,138,l)
);
},
{
closed = 1;
nodes = (
(175,15,l),
(20,153,l),
(5,138,l),
(160,0,l)
);
},
{
closed = 1;
nodes = (
(335,513,l),
(335,533,l),
(199,533,l),
(199,513,l)
);
},
{
closed = 1;
nodes = (
(214,516,l),
(201,531,l),
(91,442,l),
(106,427,l)
);
},
{
closed = 1;
nodes = (
(112,166,l),
(112,440,l),
(90,440,l),
(90,166,l)
);
},
{
closed = 1;
nodes = (
(215,525,l),
(153,594,l),
(134,587,l),
(200,512,l)
);
},
{
closed = 1;
nodes = (
(219,87,l),
(105,181,l),
(90,166,l),
(204,71,l)
);
},
{
closed = 1;
nodes = (
(350,21,l),
(330,101,l),
(313,91,l),
(333,11,l)
);
},
{
closed = 1;
nodes = (
(366,586,l),
(348,594,l),
(318,521,l),
(336,511,l)
);
},
{
closed = 1;
nodes = (
(502,343,l),
(502,363,l),
(322,363,l),
(322,343,l)
);
},
{
closed = 1;
nodes = (
(501,259,l),
(501,279,l),
(322,279,l),
(322,259,l)
);
},
{
closed = 1;
nodes = (
(234,199,l),
(234,422,l),
(213,422,l),
(213,199,l)
);
},
{
closed = 1;
nodes = (
(232,426,l),
(103,444,l),
(97,426,l),
(225,409,l)
);
},
{
closed = 1;
nodes = (
(267,441,l),
(252,456,l),
(218,423,l),
(233,408,l)
);
},
{
closed = 1;
nodes = (
(268,440,l),
(210,533,l),
(193,521,l),
(253,429,l)
);
},
{
closed = 1;
nodes = (
(300,434,l),
(300,453,l),
(244,453,l),
(244,434,l)
);
},
{
closed = 1;
nodes = (
(343,514,l),
(327,525,l),
(289,438,l),
(305,427,l)
);
},
{
closed = 1;
nodes = (
(343,420,l),
(308,453,l),
(293,438,l),
(327,404,l)
);
},
{
closed = 1;
nodes = (
(343,343,l),
(343,420,l),
(321,420,l),
(321,343,l)
);
},
{
closed = 1;
nodes = (
(344,201,l),
(344,279,l),
(322,279,l),
(322,201,l)
);
},
{
closed = 1;
nodes = (
(301,163,l),
(301,182,l),
(245,182,l),
(245,163,l)
);
},
{
closed = 1;
nodes = (
(234,192,l),
(228,209,l),
(97,180,l),
(103,162,l)
);
},
{
closed = 1;
nodes = (
(261,181,l),
(227,214,l),
(211,199,l),
(246,166,l)
);
},
{
closed = 1;
nodes = (
(265,169,l),
(251,180,l),
(204,96,l),
(218,85,l)
);
},
{
closed = 1;
nodes = (
(346,199,l),
(331,214,l),
(290,175,l),
(305,160,l)
);
},
{
closed = 1;
nodes = (
(332,94,l),
(300,176,l),
(285,165,l),
(317,83,l)
);
},
{
closed = 1;
nodes = (
(483,465,l),
(476,483,l),
(409,437,l),
(416,419,l)
);
},
{
closed = 1;
nodes = (
(423,432,l),
(337,530,l),
(328,511,l),
(407,422,l)
);
},
{
closed = 1;
nodes = (
(217,90,l),
(201,99,l),
(166,15,l),
(182,6,l)
);
},
{
closed = 1;
nodes = (
(329,76,l),
(329,95,l),
(204,95,l),
(204,76,l)
);
},
{
closed = 1;
nodes = (
(408,182,l),
(327,214,l),
(321,196,l),
(402,164,l)
);
},
{
closed = 1;
nodes = (
(416,165,l),
(401,176,l),
(315,88,l),
(330,77,l)
);
},
{
closed = 1;
nodes = (
(492,257,l),
(478,270,l),
(400,176,l),
(414,163,l)
);
},
{
closed = 1;
nodes = (
(486,149,l),
(410,182,l),
(404,162,l),
(480,129,l)
);
},
{
closed = 1;
nodes = (
(497,361,l),
(418,436,l),
(403,425,l),
(482,350,l)
);
},
{
closed = 1;
nodes = (
(420,420,l),
(404,430,l),
(325,368,l),
(341,357,l)
);
},
{
closed = 1;
nodes = (
(105,162,l),
(99,179,l),
(16,157,l),
(22,140,l)
);
},
{
closed = 1;
nodes = (
(103,444,l),
(20,469,l),
(14,452,l),
(97,427,l)
);
},
{
closed = 1;
nodes = (
(422,176,l),
(344,270,l),
(330,257,l),
(408,163,l)
);
},
{
closed = 1;
nodes = (
(418,421,l),
(412,437,l),
(325,425,l),
(331,409,l)
);
}
);
width = 508;
},
{
layerId = m002;
width = 600;
},
{
layerId = m003;
width = 600;
},
{
layerId = m004;
width = 600;
},
{
layerId = m005;
width = 600;
}
);
unicode = 67;
},
{
color = 1;
glyphname = D;
lastChange = "2022-10-20 14:55:21 +0000";
layers = (
{
layerId = m01;
shapes = (
{
closed = 1;
nodes = (
(222,430,l),
(301,430,l),
(301,447,l),
(222,447,l)
);
},
{
closed = 1;
nodes = (
(222,168,l),
(303,168,l),
(303,186,l),
(222,186,l)
);
},
{
closed = 1;
nodes = (
(222,186,l),
(240,186,l),
(240,432,l),
(222,432,l)
);
},
{
closed = 1;
nodes = (
(100,95,l),
(118,95,l),
(118,519,l),
(100,519,l)
);
},
{
closed = 1;
nodes = (
(5,0,l),
(23,0,l),
(23,600,l),
(5,600,l)
);
},
{
closed = 1;
nodes = (
(225,428,l),
(237,444,l),
(20,593,l),
(12,578,l)
);
},
{
closed = 1;
nodes = (
(23,0,l),
(404,0,l),
(409,20,l),
(23,20,l)
);
},
{
closed = 1;
nodes = (
(102,510,l),
(348,510,l),
(348,526,l),
(102,526,l)
);
},
{
closed = 0;
nodes = (
(367,98,l),
(318,168,l)
);
},
{
closed = 1;
nodes = (
(411,16,l),
(367,109,l),
(352,100,l),
(391,9,l)
);
},
{
closed = 1;
nodes = (
(368,108,l),
(310,185,l),
(295,175,l),
(352,98,l)
);
},
{
closed = 1;
nodes = (
(346,212,l),
(332,223,l),
(294,184,l),
(308,173,l)
);
},
{
closed = 1;
nodes = (
(455,182,l),
(439,189,l),
(352,108,l),
(362,95,l)
);
},
{
closed = 1;
nodes = (
(570,146,l),
(551,153,l),
(391,12,l),
(404,0,l)
);
},
{
closed = 1;
nodes = (
(452,187,l),
(334,225,l),
(330,209,l),
(441,173,l)
);
},
{
closed = 1;
nodes = (
(350,210,l),
(350,405,l),
(330,405,l),
(330,208,l)
);
},
{
closed = 1;
nodes = (
(563,158,l),
(447,188,l),
(441,175,l),
(552,145,l)
);
},
{
closed = 1;
nodes = (
(350,405,l),
(303,446,l),
(292,432,l),
(337,391,l)
);
},
{
closed = 1;
nodes = (
(358,518,l),
(341,526,l),
(288,439,l),
(305,432,l)
);
},
{
closed = 1;
nodes = (
(570,146,l),
(570,469,l),
(552,460,l),
(552,150,l)
);
},
{
closed = 1;
nodes = (
(452,434,l),
(348,523,l),
(337,510,l),
(442,419,l)
);
},
{
closed = 1;
nodes = (
(412,580,l),
(394,586,l),
(341,524,l),
(355,514,l)
);
},
{
closed = 1;
nodes = (
(553,460,l),
(547,476,l),
(435,443,l),
(445,429,l)
);
},
{
closed = 1;
nodes = (
(570,469,l),
(414,600,l),
(403,586,l),
(552,460,l)
);
},
{
closed = 1;
nodes = (
(21,580,l),
(411,580,l),
(415,600,l),
(21,600,l)
);
},
{
closed = 1;
nodes = (
(431,184,l),
(451,184,l),
(451,434,l),
(431,434,l)
);
},
{
closed = 1;
nodes = (
(117,95,l),
(360,95,l),
(360,113,l),
(117,113,l)
);
},
{
closed = 1;
nodes = (
(8,14,l),
(27,7,l),
(126,108,l),
(101,109,l)
);
},
{
closed = 1;
nodes = (
(103,112,l),
(129,106,l),
(251,181,l),
(223,185,l)
);
},
{
closed = 1;
nodes = (
(331,404,l),
(336,389,l),
(462,435,l),
(443,446,l)
);
}
);
width = 575;
},
{
layerId = m002;
width = 600;
},
{
layerId = m003;
width = 600;
},
{
layerId = m004;
width = 600;
},
{
layerId = m005;
width = 600;
}
);
unicode = 68;
},
{
color = 1;
glyphname = E;
lastChange = "2022-10-18 12:20:00 +0000";
layers = (
{
backgroundImage = {
imagePath = "../_Source_images/E.tif";
locked = 1;
pos = (-30,-26);
scale = (2.585,2.585);
};
layerId = m01;
shapes = (
{
closed = 1;
nodes = (
(125,102,l),
(125,513,l),
(15,590,l),
(15,10,l)
);
},
{
closed = 1;
nodes = (
(130,89,l),
(117,102,l),
(5,13,l),
(18,0,l)
);
},
{
closed = 1;
nodes = (
(25,0,l),
(25,600,l),
(5,600,l),
(5,0,l)
);
},
{
closed = 1;
nodes = (
(135,97,l),
(135,521,l),
(115,521,l),
(115,97,l)
);
},
{
closed = 1;
nodes = (
(248,237,l),
(130,317,l),
(115,304,l),
(235,223,l)
);
},
{
closed = 1;
nodes = (
(345,225,l),
(345,245,l),
(235,245,l),
(235,225,l)
);
},
{
closed = 1;
nodes = (
(248,370,l),
(235,385,l),
(115,306,l),
(130,295,l)
);
},
{
closed = 1;
nodes = (
(130,519,l),
(18,600,l),
(5,587,l),
(117,506,l)
);
},
{
closed = 1;
nodes = (
(235,297,l),
(235,317,l),
(135,317,l),
(135,297,l)
);
},
{
closed = 1;
nodes = (
(229,307,l),
(332,375,l),
(239,375,l),
(136,307,l)
);
},
{
closed = 1;
nodes = (
(339,513,l),
(455,590,l),
(15,590,l),
(121,513,l)
);
},
{
closed = 1;
nodes = (
(345,365,l),
(345,385,l),
(235,385,l),
(235,365,l)
);
},
{
closed = 1;
nodes = (
(348,237,l),
(230,317,l),
(215,306,l),
(335,225,l)
);
},
{
closed = 1;
nodes = (
(348,370,l),
(335,385,l),
(215,306,l),
(232,297,l)
);
},
{
closed = 1;
nodes = (
(355,225,l),
(355,385,l),
(335,385,l),
(335,225,l)
);
},
{
closed = 1;
nodes = (
(245,172,l),
(245,238,l),
(225,238,l),
(225,172,l)
);
},
{
closed = 1;
nodes = (
(455,0,l),
(455,20,l),
(15,20,l),
(15,0,l)
);
},
{
closed = 1;
nodes = (
(244,165,l),
(231,180,l),
(121,106,l),
(136,95,l)
);
},
{
closed = 1;
nodes = (
(345,87,l),
(345,107,l),
(121,107,l),
(121,87,l)
);
},
{
closed = 1;
nodes = (
(339,97,l),
(442,170,l),
(235,170,l),
(132,97,l)
);
},
{
closed = 1;
nodes = (
(455,160,l),
(455,180,l),
(231,180,l),
(231,160,l)
);
},
{
closed = 1;
nodes = (
(458,22,l),
(340,107,l),
(325,96,l),
(445,10,l)
);
},
{
closed = 1;
nodes = (
(458,165,l),
(445,180,l),
(325,96,l),
(342,87,l)
);
},
{
closed = 1;
nodes = (
(465,0,l),
(465,180,l),
(445,180,l),
(445,0,l)
);
},
{
closed = 1;
nodes = (
(15,580,l),
(455,580,l),
(455,600,l),
(15,600,l)
);
},
{
closed = 1;
nodes = (
(121,504,l),
(231,420,l),
(244,435,l),
(136,515,l)
);
},
{
closed = 1;
nodes = (
(121,503,l),
(345,503,l),
(345,523,l),
(121,523,l)
);
},
{
closed = 1;
nodes = (
(231,420,l),
(455,420,l),
(455,440,l),
(231,440,l)
);
},
{
closed = 1;
nodes = (
(324,520,l),
(339,506,l),
(458,580,l),
(441,593,l)
);
},
{
closed = 1;
nodes = (
(324,514,l),
(445,427,l),
(458,442,l),
(342,523,l)
);
},
{
closed = 1;
nodes = (
(445,420,l),
(465,420,l),
(465,600,l),
(445,600,l)
);
},
{
closed = 1;
nodes = (
(245,372,l),
(245,438,l),
(225,438,l),
(225,372,l)
);
}
);
width = 470;
},
{
layerId = m002;
width = 600;
},
{
layerId = m003;
width = 600;
},
{
layerId = m004;
width = 600;
},
{
layerId = m005;
width = 600;
}
);
unicode = 69;
},
{
color = 1;
glyphname = F;
lastChange = "2022-10-18 12:20:00 +0000";
layers = (
{
backgroundImage = {
imagePath = "../_Source_images/F.tif";
locked = 1;
pos = (-10,-39);
scale = (2.585,2.585);
};
layerId = m01;
shapes = (
{
closed = 1;
nodes = (
(125,112,l),
(125,518,l),
(15,590,l),
(15,10,l)
);
},
{
closed = 1;
nodes = (
(130,109,l),
(117,122,l),
(5,13,l),
(18,0,l)
);
},
{
closed = 1;
nodes = (
(25,0,l),
(25,600,l),
(5,600,l),
(5,0,l)
);
},
{
closed = 1;
nodes = (
(135,117,l),
(135,526,l),
(115,526,l),
(115,117,l)
);
},
{
closed = 1;
nodes = (
(248,237,l),
(130,317,l),
(115,304,l),
(235,223,l)
);
},
{
closed = 1;
nodes = (
(345,225,l),
(345,245,l),
(235,245,l),
(235,225,l)
);
},
{
closed = 1;
nodes = (
(248,370,l),
(235,385,l),
(115,306,l),
(130,295,l)
);
},
{
closed = 1;
nodes = (
(130,524,l),
(18,600,l),
(5,587,l),
(117,511,l)
);
},
{
closed = 1;
nodes = (
(235,297,l),
(235,317,l),
(135,317,l),
(135,297,l)
);
},
{
closed = 1;
nodes = (
(229,307,l),
(332,375,l),
(239,375,l),
(136,307,l)
);
},
{
closed = 1;
nodes = (
(339,518,l),
(455,590,l),
(15,590,l),
(121,518,l)
);
},
{
closed = 1;
nodes = (
(345,365,l),
(345,385,l),
(235,385,l),
(235,365,l)
);
},
{
closed = 1;
nodes = (
(348,237,l),
(230,317,l),
(215,306,l),
(335,225,l)
);
},
{
closed = 1;
nodes = (
(348,370,l),
(335,385,l),
(215,306,l),
(232,297,l)
);
},
{
closed = 1;
nodes = (
(355,225,l),
(355,385,l),
(335,385,l),
(335,225,l)
);
},
{
closed = 1;
nodes = (
(245,0,l),
(245,238,l),
(225,238,l),
(225,0,l)
);
},
{
closed = 1;
nodes = (
(15,580,l),
(455,580,l),
(455,600,l),
(15,600,l)
);
},
{
closed = 1;
nodes = (
(121,509,l),
(231,425,l),
(244,440,l),
(136,520,l)
);
},
{
closed = 1;
nodes = (
(121,508,l),
(345,508,l),
(345,528,l),
(121,528,l)
);
},
{
closed = 1;
nodes = (
(231,425,l),
(455,425,l),
(455,445,l),
(231,445,l)
);
},
{
closed = 1;
nodes = (
(324,525,l),
(339,511,l),
(458,580,l),
(441,593,l)
);
},
{
closed = 1;
nodes = (
(324,519,l),
(445,432,l),
(458,447,l),
(342,528,l)
);
},
{
closed = 1;
nodes = (
(445,425,l),
(465,425,l),
(465,600,l),
(445,600,l)
);
},
{
closed = 1;
nodes = (
(245,372,l),
(245,443,l),
(225,443,l),
(225,372,l)
);
},
{
closed = 1;
nodes = (
(245,0,l),
(245,20,l),
(5,20,l),
(5,0,l)
);
},
{
closed = 1;
nodes = (
(245,13,l),
(133,125,l),
(120,112,l),
(232,0,l)
);
}
);
width = 470;
},
{
layerId = m002;
width = 600;
},
{
layerId = m003;
width = 600;
},
{
layerId = m004;
width = 600;
},
{
layerId = m005;
width = 600;
}
);
unicode = 70;
},
{
color = 1;
glyphname = G;
lastChange = "2022-10-20 14:55:30 +0000";
layers = (
{
layerId = m01;
shapes = (
{
closed = 1;
nodes = (
(541,339,l),
(561,339,l),
(561,462,l),
(541,462,l)
);
},
{
closed = 1;
nodes = (
(548,447,l),
(561,462,l),
(400,600,l),
(387,585,l)
);
},
{
closed = 1;
nodes = (
(551,339,l),
(551,359,l),
(326,359,l),
(326,339,l)
);
},
{
closed = 1;
nodes = (
(533,347,l),
(547,361,l),
(459,449,l),
(445,435,l)
);
},
{
closed = 1;
nodes = (
(439,448,l),
(443,428,l),
(554,447,l),
(551,467,l)
);
},
{
closed = 1;
nodes = (
(326,359,l),
(339,344,l),
(467,432,l),
(454,447,l)
);
},
{
closed = 1;
nodes = (
(178,14,l),
(20,149,l),
(5,135,l),
(163,0,l)
);
},
{
closed = 1;
nodes = (
(109,167,l),
(103,184,l),
(18,161,l),
(24,144,l)
);
},
{
closed = 1;
nodes = (
(223,96,l),
(206,106,l),
(154,17,l),
(171,7,l)
);
},
{
closed = 1;
nodes = (
(354,0,l),
(354,20,l),
(163,20,l),
(163,0,l)
);
},
{
closed = 1;
nodes = (
(218,101,l),
(110,187,l),
(95,173,l),
(204,87,l)
);
},
{
closed = 1;
nodes = (
(26,135,l),
(26,466,l),
(5,466,l),
(5,135,l)
);
},
{
closed = 1;
nodes = (
(234,198,l),
(228,214,l),
(105,185,l),
(111,169,l)
);
},
{
closed = 1;
nodes = (
(327,84,l),
(327,103,l),
(209,103,l),
(209,84,l)
);
},
{
closed = 1;
nodes = (
(267,175,l),
(252,187,l),
(203,102,l),
(219,91,l)
);
},
{
closed = 1;
nodes = (
(366,17,l),
(340,108,l),
(321,101,l),
(346,10,l)
);
},
{
closed = 1;
nodes = (
(116,173,l),
(116,438,l),
(95,438,l),
(95,173,l)
);
},
{
closed = 1;
nodes = (
(341,100,l),
(314,184,l),
(298,172,l),
(325,88,l)
);
},
{
closed = 1;
nodes = (
(111,448,l),
(26,470,l),
(19,452,l),
(104,430,l)
);
},
{
closed = 1;
nodes = (
(181,586,l),
(166,600,l),
(5,466,l),
(20,452,l)
);
},
{
closed = 1;
nodes = (
(218,522,l),
(205,535,l),
(97,442,l),
(111,429,l)
);
},
{
closed = 1;
nodes = (
(273,449,l),
(225,527,l),
(208,515,l),
(256,437,l)
);
},
{
closed = 1;
nodes = (
(228,523,l),
(185,592,l),
(164,585,l),
(209,516,l)
);
},
{
closed = 1;
nodes = (
(360,520,l),
(360,539,l),
(203,539,l),
(203,520,l)
);
},
{
closed = 1;
nodes = (
(400,582,l),
(400,600,l),
(166,600,l),
(166,582,l)
);
},
{
closed = 1;
nodes = (
(234,417,l),
(112,447,l),
(106,431,l),
(228,401,l)
);
},
{
closed = 1;
nodes = (
(239,207,l),
(239,407,l),
(219,407,l),
(219,207,l)
);
},
{
closed = 1;
nodes = (
(311,167,l),
(311,185,l),
(250,185,l),
(250,167,l)
);
},
{
closed = 1;
nodes = (
(312,434,l),
(312,452,l),
(255,452,l),
(255,434,l)
);
},
{
closed = 1;
nodes = (
(351,201,l),
(334,214,l),
(296,179,l),
(310,165,l)
);
},
{
closed = 1;
nodes = (
(351,201,l),
(351,279,l),
(331,279,l),
(331,203,l)
);
},
{
closed = 1;
nodes = (
(345,413,l),
(310,449,l),
(296,435,l),
(331,399,l)
);
},
{
closed = 1;
nodes = (
(465,450,l),
(374,530,l),
(359,515,l),
(450,435,l)
);
},
{
closed = 1;
nodes = (
(369,517,l),
(352,529,l),
(293,443,l),
(309,431,l)
);
},
{
closed = 1;
nodes = (
(411,581,l),
(395,593,l),
(349,524,l),
(366,513,l)
);
},
{
closed = 1;
nodes = (
(461,180,l),
(447,194,l),
(323,97,l),
(337,83,l)
);
},
{
closed = 1;
nodes = (
(346,342,l),
(346,411,l),
(326,411,l),
(326,342,l)
);
},
{
closed = 1;
nodes = (
(566,258,l),
(566,279,l),
(331,279,l),
(331,258,l)
);
},
{
closed = 1;
nodes = (
(459,89,l),
(446,104,l),
(341,15,l),
(354,0,l)
);
},
{
closed = 1;
nodes = (
(546,0,l),
(567,0,l),
(566,268,l),
(546,268,l)
);
},
{
closed = 1;
nodes = (
(545,0,l),
(559,16,l),
(461,100,l),
(446,85,l)
);
},
{
closed = 1;
nodes = (
(264,185,l),
(232,216,l),
(218,202,l),
(250,171,l)
);
},
{
closed = 1;
nodes = (
(270,435,l),
(256,449,l),
(223,413,l),
(237,399,l)
);
},
{
closed = 1;
nodes = (
(556,253,l),
(542,267,l),
(449,190,l),
(463,176,l)
);
},
{
closed = 1;
nodes = (
(463,89,l),
(463,188,l),
(443,188,l),
(443,89,l)
);
},
{
closed = 1;
nodes = (
(453,190,l),
(356,267,l),
(342,253,l),
(439,176,l)
);
},
{
closed = 1;
nodes = (
(456,431,l),
(450,447,l),
(328,417,l),
(334,401,l)
);
}
);
width = 572;
},
{
layerId = m002;
width = 600;
},
{
layerId = m003;
width = 600;
},
{
layerId = m004;
width = 600;
},
{
layerId = m005;
width = 600;
}
);
unicode = 71;
},
{
glyphname = H;
lastChange = "2022-10-18 12:20:00 +0000";
layers = (
{
layerId = m01;
shapes = (
{
closed = 1;
nodes = (
(125,117,l),
(125,483,l),
(15,590,l),
(15,10,l)
);
},
{
closed = 1;
nodes = (
(245,0,l),
(245,20,l),
(5,20,l),
(5,0,l)
);
},
{
closed = 1;
nodes = (
(130,112,l),
(117,125,l),
(5,13,l),
(18,0,l)
);
},
{
closed = 1;
nodes = (
(25,0,l),
(25,600,l),
(5,600,l),
(5,0,l)
);
},
{
closed = 1;
nodes = (
(245,13,l),
(133,125,l),
(120,112,l),
(232,0,l)
);
},
{
closed = 1;
nodes = (
(245,0,l),
(245,228,l),
(225,228,l),
(225,0,l)
);
},
{
closed = 1;
nodes = (
(135,110,l),
(135,490,l),
(115,490,l),
(115,110,l)
);
},
{
closed = 1;
nodes = (
(335,0,l),
(335,228,l),
(315,228,l),
(315,0,l)
);
},
{
closed = 1;
nodes = (
(248,232,l),
(130,320,l),
(115,309,l),
(235,220,l)
);
},
{
closed = 1;
nodes = (
(555,0,l),
(555,20,l),
(315,20,l),
(315,0,l)
);
},
{
closed = 1;
nodes = (
(440,112,l),
(427,125,l),
(315,13,l),
(328,0,l)
);
},
{
closed = 1;
nodes = (
(325,220,l),
(325,240,l),
(235,240,l),
(235,220,l)
);
},
{
closed = 1;
nodes = (
(248,385,l),
(235,400,l),
(115,309,l),
(130,298,l)
);
},
{
closed = 1;
nodes = (
(435,117,l),
(435,316,l),
(433,315,l),
(325,230,l),
(325,10,l)
);
},
{
closed = 1;
nodes = (
(555,13,l),
(443,125,l),
(430,112,l),
(542,0,l)
);
},
{
closed = 1;
nodes = (
(130,488,l),
(18,600,l),
(5,587,l),
(117,475,l)
);
},
{
closed = 1;
nodes = (
(415,300,l),
(415,320,l),
(135,320,l),
(135,300,l)
);
},
{
closed = 1;
nodes = (
(419,310,l),
(312,390,l),
(239,390,l),
(136,310,l)
);
},
{
closed = 1;
nodes = (
(129,483,l),
(235,590,l),
(15,590,l),
(121,483,l)
);
},
{
closed = 1;
nodes = (
(445,311,l),
(431,322,l),
(312,234,l),
(325,220,l)
);
},
{
closed = 1;
nodes = (
(325,380,l),
(315,400,l),
(235,400,l),
(235,380,l)
);
},
{
closed = 1;
nodes = (
(245,580,l),
(245,600,l),
(10,600,l),
(10,580,l)
);
},
{
closed = 1;
nodes = (
(244,587,l),
(231,600,l),
(119,488,l),
(132,475,l)
);
},
{
closed = 1;
nodes = (
(245,390,l),
(245,600,l),
(225,600,l),
(225,390,l)
);
},
{
closed = 1;
nodes = (
(445,311,l),
(325,400,l),
(312,387,l),
(430,300,l)
);
},
{
closed = 1;
nodes = (
(445,110,l),
(445,490,l),
(425,490,l),
(425,110,l)
);
},
{
closed = 1;
nodes = (
(335,390,l),
(335,600,l),
(315,600,l),
(315,390,l)
);
},
{
closed = 1;
nodes = (
(435,311,l),
(435,483,l),
(325,590,l),
(325,311,l)
);
},
{
closed = 1;
nodes = (
(555,0,l),
(555,600,l),
(535,600,l),
(535,0,l)
);
},
{
closed = 1;
nodes = (
(440,488,l),
(328,600,l),
(315,587,l),
(427,475,l)
);
},
{
closed = 1;
nodes = (
(439,483,l),
(545,590,l),
(325,590,l),
(431,483,l)
);
},
{
closed = 1;
nodes = (
(554,587,l),
(541,600,l),
(429,488,l),
(442,475,l)
);
},
{
closed = 1;
nodes = (
(555,580,l),
(555,600,l),
(320,600,l),
(320,580,l)
);
}
);
width = 560;
},
{
layerId = m002;
shapes = (
{
closed = 1;
nodes = (
(125,220,l),
(125,499,l),
(15,540,l),
(15,60,l)
);
},
{
closed = 1;
nodes = (
(245,50,l),
(245,70,l),
(5,70,l),
(5,50,l)
);
},
{
closed = 1;
nodes = (
(133,215,l),
(117,228,l),
(5,63,l),
(21,50,l)
);
},
{
closed = 1;
nodes = (
(25,50,l),
(25,550,l),
(5,550,l),
(5,50,l)
);
},
{
closed = 1;
nodes = (
(245,63,l),
(133,228,l),
(117,215,l),
(229,50,l)
);
},
{
closed = 1;
nodes = (
(245,50,l),
(245,248,l),
(225,248,l),
(225,50,l)
);
},
{
closed = 1;
nodes = (
(135,213,l),
(135,506,l),
(115,506,l),
(115,213,l)
);
},
{
closed = 1;
nodes = (
(335,50,l),
(335,248,l),
(315,248,l),
(315,50,l)
);
},
{
closed = 1;
nodes = (
(248,252,l),
(130,380,l),
(115,366,l),
(232,240,l)
);
},
{
closed = 1;
nodes = (
(555,50,l),
(555,70,l),
(315,70,l),
(315,50,l)
);
},
{
closed = 1;
nodes = (
(443,215,l),
(427,228,l),
(315,63,l),
(331,50,l)
);
},
{
closed = 1;
nodes = (
(325,240,l),
(325,260,l),
(235,260,l),
(235,240,l)
);
},
{
closed = 1;
nodes = (
(248,378,l),
(235,393,l),
(115,376,l),
(130,358,l)
);
},
{
closed = 1;
nodes = (
(435,220,l),
(435,376,l),
(433,374,l),
(325,250,l),
(325,60,l)
);
},
{
closed = 1;
nodes = (
(555,63,l),
(443,228,l),
(427,215,l),
(539,50,l)
);
},
{
closed = 1;
nodes = (
(130,504,l),
(18,550,l),
(5,533,l),
(117,488,l)
);
},
{
closed = 1;
nodes = (
(415,360,l),
(415,380,l),
(135,380,l),
(135,360,l)
);
},
{
closed = 1;
nodes = (
(419,370,l),
(312,383,l),
(239,383,l),
(136,370,l)
);
},
{
closed = 1;
nodes = (
(129,499,l),
(235,540,l),
(15,540,l),
(121,499,l)
);
},
{
closed = 1;
nodes = (
(445,368,l),
(431,382,l),
(312,254,l),
(328,240,l)
);
},
{
closed = 1;
nodes = (
(325,373,l),
(315,393,l),
(235,393,l),
(235,373,l)
);
},
{
closed = 1;
nodes = (
(245,530,l),
(245,550,l),
(10,550,l),
(10,530,l)
);
},
{
closed = 1;
nodes = (
(244,533,l),
(231,550,l),
(119,504,l),
(132,488,l)
);
},
{
closed = 1;
nodes = (
(245,383,l),
(245,550,l),
(225,550,l),
(225,383,l)
);
},
{
closed = 1;
nodes = (
(445,378,l),
(325,393,l),
(312,380,l),
(430,360,l)
);
},
{
closed = 1;
nodes = (
(445,213,l),
(445,506,l),
(425,506,l),
(425,213,l)
);
},
{
closed = 1;
nodes = (
(335,383,l),
(335,550,l),
(315,550,l),
(315,383,l)
);
},
{
closed = 1;
nodes = (
(435,371,l),
(435,499,l),
(325,540,l),
(325,367,l)
);
},
{
closed = 1;
nodes = (
(555,50,l),
(555,550,l),
(535,550,l),
(535,50,l)
);
},
{
closed = 1;
nodes = (
(440,504,l),
(328,550,l),
(315,533,l),
(427,488,l)
);
},
{
closed = 1;
nodes = (
(439,499,l),
(545,540,l),
(325,540,l),
(431,499,l)
);
},
{
closed = 1;
nodes = (
(554,533,l),
(541,550,l),
(429,504,l),
(442,488,l)
);
},
{
closed = 1;
nodes = (
(555,530,l),
(555,550,l),
(320,550,l),
(320,530,l)
);
}
);
width = 560;
},
{
layerId = m003;
shapes = (
{
closed = 1;
nodes = (
(125,111,l),
(125,396,l),
(15,540,l),
(15,60,l)
);
},
{
closed = 1;
nodes = (
(245,50,l),
(245,69,l),
(5,69,l),
(5,50,l)
);
},
{
closed = 1;
nodes = (
(130,106,l),
(117,121,l),
(5,66,l),
(18,50,l)
);
},
{
closed = 1;
nodes = (
(25,50,l),
(25,550,l),
(5,550,l),
(5,50,l)
);
},
{
closed = 1;
nodes = (
(245,66,l),
(133,121,l),
(120,106,l),
(232,50,l)
);
},
{
closed = 1;
nodes = (
(245,50,l),
(245,221,l),
(225,227,l),
(225,50,l)
);
},
{
closed = 1;
nodes = (
(135,104,l),
(135,403,l),
(115,403,l),
(115,104,l)
);
},
{
closed = 1;
nodes = (
(335,50,l),
(335,227,l),
(315,221,l),
(315,50,l)
);
},
{
closed = 1;
nodes = (
(248,227,l),
(130,257,l),
(115,247,l),
(235,211,l)
);
},
{
closed = 1;
nodes = (
(555,50,l),
(555,69,l),
(315,69,l),
(315,50,l)
);
},
{
closed = 1;
nodes = (
(440,106,l),
(427,121,l),
(315,66,l),
(328,50,l)
);
},
{
closed = 1;
nodes = (
(325,210,l),
(325,230,l),
(235,230,l),
(235,210,l)
);
},
{
closed = 1;
nodes = (
(248,362,l),
(235,377,l),
(115,252,l),
(130,241,l)
);
},
{
closed = 1;
nodes = (
(435,113,l),
(435,259,l),
(429,256,l),
(325,227,l),
(325,60,l)
);
},
{
closed = 1;
nodes = (
(555,66,l),
(443,121,l),
(430,106,l),
(542,50,l)
);
},
{
closed = 1;
nodes = (
(130,401,l),
(18,550,l),
(5,537,l),
(117,388,l)
);
},
{
closed = 1;
nodes = (
(415,253,l),
(415,273,l),
(135,273,l),
(135,253,l)
);
},
{
closed = 1;
nodes = (
(419,253,l),
(312,367,l),
(239,367,l),
(136,253,l)
);
},
{
closed = 1;
nodes = (
(129,396,l),
(235,540,l),
(15,540,l),
(121,396,l)
);
},
{
closed = 1;
nodes = (
(445,249,l),
(431,259,l),
(312,228,l),
(325,211,l)
);
},
{
closed = 1;
nodes = (
(325,357,l),
(315,377,l),
(235,377,l),
(235,357,l)
);
},
{
closed = 1;
nodes = (
(245,530,l),
(245,550,l),
(10,550,l),
(10,530,l)
);
},
{
closed = 1;
nodes = (
(244,537,l),
(231,550,l),
(119,401,l),
(132,388,l)
);
},
{
closed = 1;
nodes = (
(245,367,l),
(245,550,l),
(225,550,l),
(225,367,l)
);
},
{
closed = 1;
nodes = (
(445,254,l),
(325,377,l),
(312,364,l),
(430,243,l)
);
},
{
closed = 1;
nodes = (
(445,104,l),
(445,403,l),
(425,403,l),
(425,104,l)
);
},
{
closed = 1;
nodes = (
(335,367,l),
(335,550,l),
(315,550,l),
(315,367,l)
);
},
{
closed = 1;
nodes = (
(435,254,l),
(435,396,l),
(325,540,l),
(325,264,l)
);
},
{
closed = 1;
nodes = (
(555,50,l),
(555,550,l),
(535,550,l),
(535,50,l)
);
},
{
closed = 1;
nodes = (
(440,401,l),
(328,550,l),
(315,537,l),
(427,388,l)
);
},
{
closed = 1;
nodes = (
(439,396,l),
(545,540,l),
(325,540,l),
(431,396,l)
);
},
{
closed = 1;
nodes = (
(554,537,l),
(541,550,l),
(429,401,l),
(442,388,l)
);
},
{
closed = 1;
nodes = (
(555,530,l),
(555,550,l),
(320,550,l),
(320,530,l)
);
}
);
width = 560;
},
{
layerId = m004;
shapes = (
{
closed = 1;
nodes = (
(72,117,l),
(72,483,l),
(15,590,l),
(15,10,l)
);
},
{
closed = 1;
nodes = (
(225,0,l),
(225,20,l),
(5,20,l),
(5,0,l)
);
},
{
closed = 1;
nodes = (
(77,112,l),
(64,125,l),
(5,13,l),
(18,0,l)
);
},
{
closed = 1;
nodes = (
(25,0,l),
(25,600,l),
(5,600,l),
(5,0,l)
);
},
{
closed = 1;
nodes = (
(225,13,l),
(80,125,l),
(67,112,l),
(212,0,l)
);
},
{
closed = 1;
nodes = (
(225,0,l),
(225,228,l),
(205,228,l),
(205,0,l)
);
},
{
closed = 1;
nodes = (
(82,110,l),
(82,490,l),
(62,490,l),
(62,110,l)
);
},
{
closed = 1;
nodes = (
(282,0,l),
(282,228,l),
(262,228,l),
(262,0,l)
);
},
{
closed = 1;
nodes = (
(228,232,l),
(77,320,l),
(62,309,l),
(215,220,l)
);
},
{
closed = 1;
nodes = (
(482,0,l),
(482,20,l),
(262,20,l),
(262,0,l)
);
},
{
closed = 1;
nodes = (
(333,112,l),
(320,125,l),
(262,13,l),
(275,0,l)
);
},
{
closed = 1;
nodes = (
(272,220,l),
(272,240,l),
(215,240,l),
(215,220,l)
);
},
{
closed = 1;
nodes = (
(228,385,l),
(215,400,l),
(62,309,l),
(77,298,l)
);
},
{
closed = 1;
nodes = (
(328,117,l),
(328,316,l),
(272,316,l),
(272,230,l),
(272,10,l)
);
},
{
closed = 1;
nodes = (
(482,13,l),
(336,125,l),
(323,112,l),
(469,0,l)
);
},
{
closed = 1;
nodes = (
(77,488,l),
(18,600,l),
(5,587,l),
(64,475,l)
);
},
{
closed = 1;
nodes = (
(322,300,l),
(322,320,l),
(82,320,l),
(82,300,l)
);
},
{
closed = 1;
nodes = (
(326,310,l),
(259,390,l),
(219,390,l),
(83,310,l)
);
},
{
closed = 1;
nodes = (
(76,483,l),
(215,590,l),
(15,590,l),
(68,483,l)
);
},
{
closed = 1;
nodes = (
(276,311,l),
(262,322,l),
(262,234,l),
(275,220,l)
);
},
{
closed = 1;
nodes = (
(272,380,l),
(262,400,l),
(215,400,l),
(215,380,l)
);
},
{
closed = 1;
nodes = (
(225,580,l),
(225,600,l),
(10,600,l),
(10,580,l)
);
},
{
closed = 1;
nodes = (
(224,587,l),
(211,600,l),
(66,488,l),
(79,475,l)
);
},
{
closed = 1;
nodes = (
(225,390,l),
(225,600,l),
(205,600,l),
(205,390,l)
);
},
{
closed = 1;
nodes = (
(277,311,l),
(277,400,l),
(262,387,l),
(262,300,l)
);
},
{
closed = 1;
nodes = (
(338,110,l),
(338,490,l),
(318,490,l),
(318,110,l)
);
},
{
closed = 1;
nodes = (
(282,390,l),
(282,600,l),
(262,600,l),
(262,390,l)
);
},
{
closed = 1;
nodes = (
(328,311,l),
(328,483,l),
(272,590,l),
(272,311,l)
);
},
{
closed = 1;
nodes = (
(482,0,l),
(482,600,l),
(462,600,l),
(462,0,l)
);
},
{
closed = 1;
nodes = (
(333,488,l),
(275,600,l),
(262,587,l),
(320,475,l)
);
},
{
closed = 1;
nodes = (
(332,483,l),
(472,590,l),
(272,590,l),
(324,483,l)
);
},
{
closed = 1;
nodes = (
(481,587,l),
(468,600,l),
(322,488,l),
(335,475,l)
);
},
{
closed = 1;
nodes = (
(482,580,l),
(482,600,l),
(267,600,l),
(267,580,l)
);
}
);
width = 487;
},
{
layerId = m005;
shapes = (
{
closed = 1;
nodes = (
(158,117,l),
(158,483,l),
(15,590,l),
(15,10,l)
);
},
{
closed = 1;
nodes = (
(225,0,l),
(225,20,l),
(5,20,l),
(5,0,l)
);
},
{
closed = 1;
nodes = (
(163,112,l),
(150,125,l),
(5,13,l),
(18,0,l)
);
},
{
closed = 1;
nodes = (
(25,0,l),
(25,600,l),
(5,600,l),
(5,0,l)
);
},
{
closed = 1;
nodes = (
(225,13,l),
(166,125,l),
(153,112,l),
(212,0,l)
);
},
{
closed = 1;
nodes = (
(225,0,l),
(225,228,l),
(205,228,l),
(205,0,l)
);
},
{
closed = 1;
nodes = (
(168,110,l),
(168,490,l),
(148,490,l),
(148,110,l)
);
},
{
closed = 1;
nodes = (
(282,0,l),
(282,228,l),
(262,228,l),
(262,0,l)
);
},
{
closed = 1;
nodes = (
(228,232,l),
(163,320,l),
(148,309,l),
(212,217,l)
);
},
{
closed = 1;
nodes = (
(475,0,l),
(475,20,l),
(262,20,l),
(262,0,l)
);
},
{
closed = 1;
nodes = (
(413,112,l),
(400,125,l),
(262,13,l),
(275,0,l)
);
},
{
closed = 1;
nodes = (
(272,220,l),
(272,240,l),
(215,240,l),
(215,220,l)
);
},
{
closed = 1;
nodes = (
(228,385,l),
(212,403,l),
(148,309,l),
(163,298,l)
);
},
{
closed = 1;
nodes = (
(408,117,l),
(408,316,l),
(406,314,l),
(272,230,l),
(272,10,l)
);
},
{
closed = 1;
nodes = (
(475,13,l),
(416,125,l),
(403,112,l),
(462,0,l)
);
},
{
closed = 1;
nodes = (
(163,488,l),
(18,600,l),
(5,587,l),
(150,475,l)
);
},
{
closed = 1;
nodes = (
(388,300,l),
(388,320,l),
(168,320,l),
(168,300,l)
);
},
{
closed = 1;
nodes = (
(392,310,l),
(259,390,l),
(219,390,l),
(169,310,l)
);
},
{
closed = 1;
nodes = (
(162,483,l),
(215,590,l),
(15,590,l),
(154,483,l)
);
},
{
closed = 1;
nodes = (
(418,311,l),
(404,322,l),
(259,234,l),
(272,220,l)
);
},
{
closed = 1;
nodes = (
(272,380,l),
(262,400,l),
(215,400,l),
(215,380,l)
);
},
{
closed = 1;
nodes = (
(225,580,l),
(225,600,l),
(10,600,l),
(10,580,l)
);
},
{
closed = 1;
nodes = (
(224,587,l),
(211,600,l),
(152,488,l),
(165,475,l)
);
},
{
closed = 1;
nodes = (
(225,390,l),
(225,600,l),
(205,600,l),
(205,390,l)
);
},
{
closed = 1;
nodes = (
(418,311,l),
(272,400,l),
(259,387,l),
(403,300,l)
);
},
{
closed = 1;
nodes = (
(418,110,l),
(418,490,l),
(398,490,l),
(398,110,l)
);
},
{
closed = 1;
nodes = (
(282,390,l),
(282,600,l),
(262,600,l),
(262,390,l)
);
},
{
closed = 1;
nodes = (
(408,311,l),
(408,483,l),
(272,590,l),
(272,311,l)
);
},
{
closed = 1;
nodes = (
(475,0,l),
(475,600,l),
(455,600,l),
(455,0,l)
);
},
{
closed = 1;
nodes = (
(413,488,l),
(275,600,l),
(262,587,l),
(400,475,l)
);
},
{
closed = 1;
nodes = (
(412,483,l),
(465,590,l),
(272,590,l),
(404,483,l)
);
},
{
closed = 1;
nodes = (
(474,587,l),
(461,600,l),
(402,488,l),
(415,475,l)
);
},
{
closed = 1;
nodes = (
(475,580,l),
(475,600,l),
(267,600,l),
(267,580,l)
);
}
);
width = 480;
}
);
metricLeft = "=5";
metricRight = "=5";
unicode = 72;
},
{
glyphname = I;
lastChange = "2022-10-18 12:20:00 +0000";
layers = (
{
layerId = m01;
shapes = (
{
closed = 1;
nodes = (
(125,117,l),
(125,483,l),
(15,590,l),
(15,10,l)
);
},
{
closed = 1;
nodes = (
(245,0,l),
(245,20,l),
(5,20,l),
(5,0,l)
);
},
{
closed = 1;
nodes = (
(130,112,l),
(117,125,l),
(5,13,l),
(18,0,l)
);
},
{
closed = 1;
nodes = (
(245,13,l),
(133,125,l),
(120,112,l),
(232,0,l)
);
},
{
closed = 1;
nodes = (
(25,0,l),
(25,600,l),
(5,600,l),
(5,0,l)
);
},
{
closed = 1;
nodes = (
(135,110,l),
(135,490,l),
(115,490,l),
(115,110,l)
);
},
{
closed = 1;
nodes = (
(245,0,l),
(245,600,l),
(225,600,l),
(225,0,l)
);
},
{
closed = 1;
nodes = (
(130,488,l),
(18,600,l),
(5,587,l),
(117,475,l)
);
},
{
closed = 1;
nodes = (
(129,483,l),
(235,590,l),
(15,590,l),
(121,483,l)
);
},
{
closed = 1;
nodes = (
(245,580,l),
(245,600,l),
(10,600,l),
(10,580,l)
);
},
{
closed = 1;
nodes = (
(244,587,l),
(231,600,l),
(119,488,l),
(132,475,l)
);
}
);
width = 250;
},
{
layerId = m002;
shapes = (
{
closed = 1;
nodes = (
(125,220,l),
(125,499,l),
(15,540,l),
(15,60,l)
);
},
{
closed = 1;
nodes = (
(245,50,l),
(245,70,l),
(5,70,l),
(5,50,l)
);
},
{
closed = 1;
nodes = (
(133,215,l),
(117,228,l),
(5,63,l),
(21,50,l)
);
},
{
closed = 1;
nodes = (
(245,63,l),
(133,228,l),
(117,215,l),
(229,50,l)
);
},
{
closed = 1;
nodes = (
(25,50,l),
(25,550,l),
(5,550,l),
(5,50,l)
);
},
{
closed = 1;
nodes = (
(135,213,l),
(135,506,l),
(115,506,l),
(115,213,l)
);
},
{
closed = 1;
nodes = (
(245,50,l),
(245,550,l),
(225,550,l),
(225,50,l)
);
},
{
closed = 1;
nodes = (
(130,504,l),
(18,550,l),
(5,533,l),
(117,488,l)
);
},
{
closed = 1;
nodes = (
(129,499,l),
(235,540,l),
(15,540,l),
(121,499,l)
);
},
{
closed = 1;
nodes = (
(245,530,l),
(245,550,l),
(10,550,l),
(10,530,l)
);
},
{
closed = 1;
nodes = (
(244,533,l),
(231,550,l),
(119,504,l),
(132,488,l)
);
}
);
width = 250;
},
{
layerId = m003;
shapes = (
{
closed = 1;
nodes = (
(125,111,l),
(125,395,l),
(15,540,l),
(15,60,l)
);
},
{
closed = 1;
nodes = (
(245,50,l),
(245,69,l),
(5,69,l),
(5,50,l)
);
},
{
closed = 1;
nodes = (
(130,106,l),
(117,121,l),
(5,66,l),
(18,50,l)
);
},
{
closed = 1;
nodes = (
(245,66,l),
(133,121,l),
(120,106,l),
(232,50,l)
);
},
{
closed = 1;
nodes = (
(25,50,l),
(25,550,l),
(5,550,l),
(5,50,l)
);
},
{
closed = 1;
nodes = (
(135,104,l),
(135,402,l),
(115,402,l),
(115,104,l)
);
},
{
closed = 1;
nodes = (
(245,50,l),
(245,550,l),
(225,550,l),
(225,50,l)
);
},
{
closed = 1;
nodes = (
(130,400,l),
(18,550,l),
(5,537,l),
(117,387,l)
);
},
{
closed = 1;
nodes = (
(129,395,l),
(235,540,l),
(15,540,l),
(121,395,l)
);
},
{
closed = 1;
nodes = (
(245,530,l),
(245,550,l),
(10,550,l),
(10,530,l)
);
},
{
closed = 1;
nodes = (
(244,537,l),
(231,550,l),
(119,400,l),
(132,387,l)
);
}
);
width = 250;
},
{
layerId = m004;
shapes = (
{
closed = 1;
nodes = (
(72,117,l),
(72,483,l),
(15,590,l),
(15,10,l)
);
},
{
closed = 1;
nodes = (
(225,0,l),
(225,20,l),
(5,20,l),
(5,0,l)
);
},
{
closed = 1;
nodes = (
(77,112,l),
(64,125,l),
(5,13,l),
(18,0,l)
);
},
{
closed = 1;
nodes = (
(225,13,l),
(80,125,l),
(67,112,l),
(212,0,l)
);
},
{
closed = 1;
nodes = (
(25,0,l),
(25,600,l),
(5,600,l),
(5,0,l)
);
},
{
closed = 1;
nodes = (
(82,110,l),
(82,490,l),
(62,490,l),
(62,110,l)
);
},
{
closed = 1;
nodes = (
(225,0,l),
(225,600,l),
(205,600,l),
(205,0,l)
);
},
{
closed = 1;
nodes = (
(77,488,l),
(18,600,l),
(5,587,l),
(64,475,l)
);
},
{
closed = 1;
nodes = (
(76,483,l),
(215,590,l),
(15,590,l),
(68,483,l)
);
},
{
closed = 1;
nodes = (
(225,580,l),
(225,600,l),
(10,600,l),
(10,580,l)
);
},
{
closed = 1;
nodes = (
(224,587,l),
(211,600,l),
(66,488,l),
(79,475,l)
);
}
);
width = 230;
},
{
layerId = m005;
shapes = (
{
closed = 1;
nodes = (
(158,117,l),
(158,483,l),
(15,590,l),
(15,10,l)
);
},
{
closed = 1;
nodes = (
(225,0,l),
(225,20,l),
(5,20,l),
(5,0,l)
);
},
{
closed = 1;
nodes = (
(163,112,l),
(150,125,l),
(5,13,l),
(18,0,l)
);
},
{
closed = 1;
nodes = (
(225,13,l),
(166,125,l),
(153,112,l),
(212,0,l)
);
},
{
closed = 1;
nodes = (
(25,0,l),
(25,600,l),
(5,600,l),
(5,0,l)
);
},
{
closed = 1;
nodes = (
(168,110,l),
(168,490,l),
(148,490,l),
(148,110,l)
);
},
{
closed = 1;
nodes = (
(225,0,l),
(225,600,l),
(205,600,l),
(205,0,l)
);
},
{
closed = 1;
nodes = (
(163,488,l),
(18,600,l),
(5,587,l),
(150,475,l)
);
},
{
closed = 1;
nodes = (
(162,483,l),
(215,590,l),
(15,590,l),
(154,483,l)
);
},
{
closed = 1;
nodes = (
(225,580,l),
(225,600,l),
(10,600,l),
(10,580,l)
);
},
{
closed = 1;
nodes = (
(224,587,l),
(211,600,l),
(152,488,l),
(165,475,l)
);
}
);
width = 230;
}
);
metricLeft = "=5";
metricRight = "=5";
unicode = 73;
},
{
color = 1;
glyphname = J;
lastChange = "2022-10-18 12:20:00 +0000";
layers = (
{
layerId = m01;
shapes = (
{
closed = 1;
nodes = (
(319,146,l),
(319,600,l),
(299,600,l),
(299,146,l)
);
},
{
closed = 1;
nodes = (
(102,204,l),
(102,600,l),
(82,600,l),
(82,204,l)
);
},
{
closed = 1;
nodes = (
(319,146,l),
(305,160,l),
(137,14,l),
(151,0,l)
);
},
{
closed = 1;
nodes = (
(151,0,l),
(151,18,l),
(5,18,l),
(5,0,l)
);
},
{
closed = 1;
nodes = (
(25,0,l),
(25,185,l),
(5,185,l),
(5,0,l)
);
},
{
closed = 1;
nodes = (
(55,167,l),
(55,185,l),
(6,185,l),
(6,167,l)
);
},
{
closed = 1;
nodes = (
(102,204,l),
(90,218,l),
(43,181,l),
(55,167,l)
);
},
{
closed = 1;
nodes = (
(156,18,l),
(104,106,l),
(87,97,l),
(139,9,l)
);
},
{
closed = 1;
nodes = (
(316,582,l),
(316,600,l),
(86,600,l),
(86,582,l)
);
},
{
closed = 1;
nodes = (
(314,579,l),
(294,586,l),
(184,517,l),
(204,510,l)
);
},
{
closed = 1;
nodes = (
(203,180,l),
(189,194,l),
(86,106,l),
(100,92,l)
);
},
{
closed = 1;
nodes = (
(206,181,l),
(206,524,l),
(186,524,l),
(186,181,l)
);
},
{
closed = 1;
nodes = (
(107,102,l),
(93,113,l),
(13,20,l),
(27,4,l)
);
},
{
closed = 1;
nodes = (
(208,518,l),
(105,588,l),
(85,581,l),
(188,511,l)
);
},
{
closed = 1;
nodes = (
(319,159,l),
(190,196,l),
(184,179,l),
(313,142,l)
);
},
{
closed = 1;
nodes = (
(195,196,l),
(88,222,l),
(82,205,l),
(189,179,l)
);
},
{
closed = 1;
nodes = (
(106,103,l),
(57,184,l),
(40,175,l),
(89,94,l)
);
}
);
width = 324;
},
{
layerId = m002;
width = 600;
},
{
layerId = m003;
width = 600;
},
{
layerId = m004;
width = 600;
},
{
layerId = m005;
width = 600;
}
);
unicode = 74;
},
{
color = 1;
glyphname = K;
lastChange = "2022-10-20 14:55:40 +0000";
layers = (
{
layerId = m01;
shapes = (
{
closed = 1;
nodes = (
(245,0,l),
(245,20,l),
(5,20,l),
(5,0,l)
);
},
{
closed = 1;
nodes = (
(130,112,l),
(117,125,l),
(5,13,l),
(18,0,l)
);
},
{
closed = 1;
nodes = (
(245,13,l),
(133,125,l),
(120,112,l),
(232,0,l)
);
},
{
closed = 1;
nodes = (
(25,0,l),
(25,600,l),
(5,600,l),
(5,0,l)
);
},
{
closed = 1;
nodes = (
(135,110,l),
(135,490,l),
(115,490,l),
(115,110,l)
);
},
{
closed = 1;
nodes = (
(245,0,l),
(245,600,l),
(225,600,l),
(225,0,l)
);
},
{
closed = 1;
nodes = (
(130,488,l),
(18,600,l),
(5,587,l),
(117,475,l)
);
},
{
closed = 1;
nodes = (
(245,580,l),
(245,600,l),
(10,600,l),
(10,580,l)
);
},
{
closed = 1;
nodes = (
(244,587,l),
(231,600,l),
(119,488,l),
(132,475,l)
);
},
{
closed = 1;
nodes = (
(586,600,l),
(565,600,l),
(412,350,l),
(427,339,l)
);
},
{
closed = 1;
nodes = (
(572,580,l),
(572,600,l),
(375,600,l),
(367,580,l)
);
},
{
closed = 1;
nodes = (
(395,598,l),
(375,600,l),
(238,363,l),
(244,339,l)
);
},
{
closed = 1;
nodes = (
(433,354,l),
(417,345,l),
(559,6,l),
(581,0,l)
);
},
{
closed = 1;
nodes = (
(247,252,l),
(241,215,l),
(321,0,l),
(338,13,l)
);
},
{
closed = 1;
nodes = (
(555,6,l),
(567,20,l),
(409,113,l),
(400,97,l)
);
},
{
closed = 1;
nodes = (
(581,0,l),
(562,16,l),
(321,16,l),
(321,0,l)
);
},
{
closed = 1;
nodes = (
(249,359,l),
(244,359,l),
(225,215,l),
(249,225,l)
);
},
{
closed = 1;
nodes = (
(415,97,l),
(404,108,l),
(316,16,l),
(335,11,l)
);
},
{
closed = 1;
nodes = (
(327,323,l),
(307,324,l),
(401,96,l),
(416,108,l)
);
},
{
closed = 1;
nodes = (
(455,531,l),
(436,537,l),
(307,324,l),
(323,316,l)
);
},
{
closed = 1;
nodes = (
(572,581,l),
(569,599,l),
(440,535,l),
(436,514,l)
);
},
{
closed = 1;
nodes = (
(321,332,l),
(321,314,l),
(434,345,l),
(423,361,l)
);
},
{
closed = 1;
nodes = (
(435,519,l),
(447,531,l),
(390,593,l),
(372,588,l)
);
},
{
closed = 1;
nodes = (
(233,246,l),
(245,233,l),
(327,318,l),
(318,333,l)
);
},
{
closed = 1;
nodes = (
(327,330,l),
(237,364,l),
(235,344,l),
(316,315,l)
);
}
);
width = 591;
},
{
layerId = m002;
width = 600;
},
{
layerId = m003;
width = 600;
},
{
layerId = m004;
width = 600;
},
{
layerId = m005;
width = 600;
}
);
unicode = 75;
},
{
color = 1;
glyphname = L;
lastChange = "2022-10-18 12:20:00 +0000";
layers = (
{
backgroundImage = {
imagePath = "../_Source_images/L.tif";
locked = 1;
pos = (-40,-33);
scale = (2.585,2.585);
};
layerId = m01;
shapes = (
{
closed = 1;
nodes = (
(125,102,l),
(125,513,l),
(15,590,l),
(15,10,l)
);
},
{
closed = 1;
nodes = (
(130,89,l),
(117,102,l),
(5,13,l),
(18,0,l)
);
},
{
closed = 1;
nodes = (
(25,0,l),
(25,600,l),
(5,600,l),
(5,0,l)
);
},
{
closed = 1;
nodes = (
(135,97,l),
(135,521,l),
(115,521,l),
(115,97,l)
);
},
{
closed = 1;
nodes = (
(130,519,l),
(18,600,l),
(5,587,l),
(117,506,l)
);
},
{
closed = 1;
nodes = (
(129,513,l),
(245,590,l),
(15,590,l),
(121,513,l)
);
},
{
closed = 1;
nodes = (
(245,172,l),
(245,588,l),
(225,588,l),
(225,172,l)
);
},
{
closed = 1;
nodes = (
(435,0,l),
(435,20,l),
(15,20,l),
(15,0,l)
);
},
{
closed = 1;
nodes = (
(244,165,l),
(231,180,l),
(121,106,l),
(136,95,l)
);
},
{
closed = 1;
nodes = (
(345,87,l),
(345,107,l),
(121,107,l),
(121,87,l)
);
},
{
closed = 1;
nodes = (
(339,97,l),
(422,170,l),
(235,170,l),
(132,97,l)
);
},
{
closed = 1;
nodes = (
(435,160,l),
(435,180,l),
(231,180,l),
(231,160,l)
);
},
{
closed = 1;
nodes = (
(438,22,l),
(340,107,l),
(324,95,l),
(424,9,l)
);
},
{
closed = 1;
nodes = (
(438,165,l),
(425,180,l),
(325,96,l),
(342,87,l)
);
},
{
closed = 1;
nodes = (
(445,0,l),
(445,180,l),
(425,180,l),
(425,0,l)
);
},
{
closed = 1;
nodes = (
(15,580,l),
(245,580,l),
(245,600,l),
(15,600,l)
);
},
{
closed = 1;
nodes = (
(121,503,l),
(135,503,l),
(135,523,l),
(121,523,l)
);
},
{
closed = 1;
nodes = (
(116,519,l),
(129,506,l),
(242,577,l),
(231,593,l)
);
}
);
width = 450;
},
{
layerId = m002;
width = 600;
},
{
layerId = m003;
width = 600;
},
{
layerId = m004;
width = 600;
},
{
layerId = m005;
width = 600;
}
);
unicode = 76;
},
{
color = 1;
glyphname = M;
lastChange = "2022-10-20 14:55:59 +0000";
layers = (
{
backgroundImage = {
imagePath = "/Lehre/_22_23_WS/1 Basis/_Planung : Ideen/1 RRK 3D/_Source_images/M.tif";
pos = (0,-32);
scale = (2.585,2.585);
};
layerId = m01;
shapes = (
{
closed = 1;
nodes = (
(774,19,l),
(657,119,l),
(650,100,l),
(767,0,l)
);
},
{
closed = 1;
nodes = (
(774,0,l),
(774,20,l),
(545,20,l),
(545,0,l)
);
},
{
closed = 1;
nodes = (
(663,99,l),
(656,118,l),
(548,25,l),
(554,6,l)
);
},
{
closed = 1;
nodes = (
(774,0,l),
(774,600,l),
(754,600,l),
(754,0,l)
);
},
{
closed = 1;
nodes = (
(565,2,l),
(565,595,l),
(545,595,l),
(545,2,l)
);
},
{
closed = 1;
nodes = (
(666,100,l),
(666,523,l),
(646,524,l),
(646,101,l)
);
},
{
closed = 1;
nodes = (
(774,580,l),
(774,600,l),
(406,600,l),
(406,580,l)
);
},
{
closed = 1;
nodes = (
(663,517,l),
(571,592,l),
(557,583,l),
(649,508,l)
);
},
{
closed = 1;
nodes = (
(768,587,l),
(760,600,l),
(648,518,l),
(656,505,l)
);
},
{
closed = 1;
nodes = (
(357,92,l),
(559,588,l),
(541,595,l),
(339,98,l)
);
},
{
closed = 1;
nodes = (
(431,8,l),
(440,20,l),
(344,107,l),
(334,93,l)
);
},
{
closed = 1;
nodes = (
(354,94,l),
(338,102,l),
(292,8,l),
(308,1,l)
);
},
{
closed = 1;
nodes = (
(440,0,l),
(565,307,l),
(547,315,l),
(420,6,l)
);
},
{
closed = 1;
nodes = (
(440,0,l),
(440,20,l),
(292,20,l),
(292,0,l)
);
},
{
closed = 1;
nodes = (
(310,7,l),
(110,478,l),
(93,472,l),
(292,1,l)
);
},
{
closed = 1;
nodes = (
(353,87,l),
(173,524,l),
(158,518,l),
(337,81,l)
);
},
{
closed = 1;
nodes = (
(423,594,l),
(406,600,l),
(270,252,l),
(284,239,l)
);
},
{
closed = 1;
nodes = (
(242,580,l),
(242,600,l),
(6,600,l),
(6,580,l)
);
},
{
closed = 1;
nodes = (
(26,0,l),
(26,600,l),
(5,600,l),
(5,0,l)
);
},
{
closed = 1;
nodes = (
(102,79,l),
(102,484,l),
(81,484,l),
(81,80,l)
);
},
{
closed = 1;
nodes = (
(180,0,l),
(180,293,l),
(161,323,l),
(161,0,l)
);
},
{
closed = 1;
nodes = (
(332,362,l),
(242,599,l),
(222,596,l),
(315,358,l)
);
},
{
closed = 1;
nodes = (
(100,88,l),
(88,100,l),
(16,26,l),
(28,14,l)
);
},
{
closed = 1;
nodes = (
(174,24,l),
(97,94,l),
(86,80,l),
(163,10,l)
);
},
{
closed = 1;
nodes = (
(180,0,l),
(180,20,l),
(7,20,l),
(7,0,l)
);
},
{
closed = 1;
nodes = (
(109,478,l),
(21,598,l),
(7,582,l),
(94,466,l)
);
},
{
closed = 1;
nodes = (
(244,585,l),
(225,593,l),
(86,467,l),
(106,459,l)
);
}
);
width = 779;
},
{
layerId = m002;
width = 600;
},
{
layerId = m003;
width = 600;
},
{
layerId = m004;
width = 600;
},
{
layerId = m005;
width = 600;
}
);
unicode = 77;
},
{
color = 1;
glyphname = N;
lastChange = "2022-10-20 14:56:09 +0000";
layers = (
{
layerId = m01;
shapes = (
{
closed = 1;
nodes = (
(25,0,l),
(25,600,l),
(5,600,l),
(5,0,l)
);
},
{
closed = 1;
nodes = (
(187,0,l),
(187,388,l),
(167,388,l),
(167,0,l)
);
},
{
closed = 1;
nodes = (
(616,0,l),
(616,600,l),
(596,600,l),
(596,0,l)
);
},
{
closed = 1;
nodes = (
(518,85,l),
(518,549,l),
(498,549,l),
(498,85,l)
);
},
{
closed = 1;
nodes = (
(610,34,l),
(473,123,l),
(463,108,l),
(600,18,l)
);
},
{
closed = 1;
nodes = (
(483,108,l),
(473,123,l),
(337,36,l),
(347,20,l)
);
},
{
closed = 1;
nodes = (
(102,90,l),
(89,103,l),
(6,22,l),
(19,9,l)
);
},
{
closed = 1;
nodes = (
(186,25,l),
(92,102,l),
(81,88,l),
(174,11,l)
);
},
{
closed = 1;
nodes = (
(614,0,l),
(614,20,l),
(335,20,l),
(335,0,l)
);
},
{
closed = 1;
nodes = (
(353,8,l),
(100,589,l),
(82,581,l),
(334,0,l)
);
},
{
closed = 1;
nodes = (
(187,0,l),
(187,20,l),
(6,20,l),
(6,0,l)
);
},
{
closed = 1;
nodes = (
(326,580,l),
(326,600,l),
(5,600,l),
(5,580,l)
);
},
{
closed = 1;
nodes = (
(330,582,l),
(319,597,l),
(216,522,l),
(227,507,l)
);
},
{
closed = 1;
nodes = (
(455,300,l),
(326,600,l),
(311,595,l),
(439,295,l)
);
},
{
closed = 1;
nodes = (
(455,90,l),
(455,600,l),
(435,600,l),
(435,90,l)
);
},
{
closed = 1;
nodes = (
(95,83,l),
(95,582,l),
(75,582,l),
(75,83,l)
);
},
{
closed = 1;
nodes = (
(616,580,l),
(616,600,l),
(435,600,l),
(435,580,l)
);
},
{
closed = 1;
nodes = (
(597,581,l),
(588,596,l),
(498,549,l),
(508,531,l)
);
},
{
closed = 1;
nodes = (
(422,75,l),
(227,526,l),
(209,518,l),
(403,67,l)
);
},
{
closed = 1;
nodes = (
(229,522,l),
(94,600,l),
(83,585,l),
(218,507,l)
);
},
{
closed = 1;
nodes = (
(524,549,l),
(445,599,l),
(436,584,l),
(514,531,l)
);
}
);
width = 621;
},
{
layerId = m002;
width = 600;
},
{
layerId = m003;
width = 600;
},
{
layerId = m004;
width = 600;
},
{
layerId = m005;
width = 600;
}
);
unicode = 78;
},
{
glyphname = O;
lastChange = "2022-10-18 12:20:00 +0000";
layers = (
{
background = {
shapes = (
{
closed = 1;
nodes = (
(196,102,l),
(115,176,l),
(11,151,l),
(151,12,l)
);
},
{
closed = 1;
nodes = (
(164,13,l),
(15,150,l),
(5,137,l),
(154,0,l)
);
},
{
closed = 1;
nodes = (
(120,170,l),
(116,186,l),
(6,154,l),
(11,138,l)
);
},
{
closed = 1;
nodes = (
(198,94,l),
(185,103,l),
(142,23,l),
(155,13,l)
);
},
{
closed = 1;
nodes = (
(372,0,l),
(372,18,l),
(154,18,l),
(154,0,l)
);
},
{
closed = 1;
nodes = (
(25,137,l),
(25,463,l),
(5,463,l),
(5,137,l)
);
},
{
closed = 1;
nodes = (
(221,190,l),
(217,206,l),
(107,184,l),
(112,168,l)
);
},
{
closed = 1;
nodes = (
(201,102,l),
(112,189,l),
(102,176,l),
(191,89,l)
);
},
{
closed = 1;
nodes = (
(112,180,l),
(112,430,l),
(15,460,l),
(15,140,l)
);
},
{
closed = 1;
nodes = (
(326,88,l),
(326,106,l),
(190,106,l),
(190,88,l)
);
},
{
closed = 1;
nodes = (
(256,170,l),
(241,181,l),
(184,101,l),
(197,91,l)
);
},
{
closed = 1;
nodes = (
(329,103,l),
(270,167,l),
(241,167,l),
(192,101,l)
);
},
{
closed = 1;
nodes = (
(382,23,l),
(335,103,l),
(322,94,l),
(369,13,l)
);
},
{
closed = 1;
nodes = (
(256,171,l),
(223,204,l),
(210,191,l),
(243,158,l)
);
},
{
closed = 1;
nodes = (
(122,176,l),
(122,439,l),
(102,439,l),
(102,176,l)
);
},
{
closed = 1;
nodes = (
(283,158,l),
(283,176,l),
(243,176,l),
(243,158,l)
);
},
{
closed = 1;
nodes = (
(336,101,l),
(279,171,l),
(264,160,l),
(323,91,l)
);
},
{
closed = 1;
nodes = (
(316,191,l),
(303,204,l),
(270,171,l),
(283,158,l)
);
},
{
closed = 1;
nodes = (
(425,176,l),
(313,199,l),
(279,166,l),
(334,95,l)
);
},
{
closed = 1;
nodes = (
(116,426,l),
(120,442,l),
(21,471,l),
(6,458,l)
);
},
{
closed = 1;
nodes = (
(230,191,l),
(230,403,l),
(210,403,l),
(210,191,l)
);
},
{
closed = 1;
nodes = (
(221,411,l),
(109,445,l),
(105,430,l),
(221,393,l)
);
},
{
closed = 1;
nodes = (
(435,176,l),
(425,189,l),
(322,102,l),
(332,89,l)
);
},
{
closed = 1;
nodes = (
(532,137,l),
(522,150,l),
(362,13,l),
(372,0,l)
);
},
{
closed = 1;
nodes = (
(195,518,l),
(149,580,l),
(22,467,l),
(115,435,l)
);
},
{
closed = 1;
nodes = (
(418,184,l),
(308,206,l),
(304,190,l),
(413,168,l)
);
},
{
closed = 1;
nodes = (
(164,587,l),
(154,600,l),
(5,463,l),
(15,450,l)
);
},
{
closed = 1;
nodes = (
(316,191,l),
(316,403,l),
(296,403,l),
(296,191,l)
);
},
{
closed = 1;
nodes = (
(205,513,l),
(195,526,l),
(106,439,l),
(116,426,l)
);
},
{
closed = 1;
nodes = (
(256,423,l),
(243,436,l),
(210,403,l),
(223,390,l)
);
},
{
closed = 1;
nodes = (
(421,437,l),
(309,406,l),
(308,197,l),
(427,173,l)
);
},
{
closed = 1;
nodes = (
(283,418,l),
(283,436,l),
(243,436,l),
(243,418,l)
);
},
{
closed = 1;
nodes = (
(266,432,l),
(207,521,l),
(194,511,l),
(251,421,l)
);
},
{
closed = 1;
nodes = (
(528,154,l),
(418,186,l),
(414,170,l),
(523,138,l)
);
},
{
closed = 1;
nodes = (
(316,403,l),
(283,436,l),
(270,423,l),
(303,390,l)
);
},
{
closed = 1;
nodes = (
(212,512,l),
(155,593,l),
(142,583,l),
(199,503,l)
);
},
{
closed = 1;
nodes = (
(435,176,l),
(435,439,l),
(415,429,l),
(415,176,l)
);
},
{
closed = 1;
nodes = (
(336,511,l),
(323,521,l),
(264,432,l),
(279,421,l)
);
},
{
closed = 1;
nodes = (
(326,504,l),
(326,522,l),
(200,522,l),
(200,504,l)
);
},
{
closed = 1;
nodes = (
(421,426,l),
(402,440,l),
(305,414,l),
(305,396,l)
);
},
{
closed = 1;
nodes = (
(427,440,l),
(329,512,l),
(273,431,l),
(302,400,l)
);
},
{
closed = 1;
nodes = (
(322,515,l),
(378,586,l),
(151,587,l),
(210,508,l)
);
},
{
closed = 1;
nodes = (
(532,137,l),
(532,463,l),
(512,463,l),
(512,137,l)
);
},
{
closed = 1;
nodes = (
(435,434,l),
(328,520,l),
(318,507,l),
(425,421,l)
);
},
{
closed = 1;
nodes = (
(372,582,l),
(372,600,l),
(154,600,l),
(154,582,l)
);
},
{
closed = 1;
nodes = (
(387,583,l),
(374,593,l),
(317,512,l),
(330,503,l)
);
},
{
closed = 1;
nodes = (
(528,448,l),
(523,464,l),
(414,442,l),
(418,426,l)
);
},
{
closed = 1;
nodes = (
(532,463,l),
(372,600,l),
(362,587,l),
(522,450,l)
);
}
);
};
layerId = m01;
shapes = (
{
closed = 1;
nodes = (
(425,435,l),
(305,405,l),
(305,190,l),
(425,175,l)
);
},
{
closed = 1;
nodes = (
(189,14,l),
(19,164,l),
(5,150,l),
(175,0,l)
);
},
{
closed = 1;
nodes = (
(200,98,l),
(105,175,l),
(15,150,l),
(175,10,l)
);
},
{
closed = 1;
nodes = (
(108,169,l),
(102,186,l),
(19,164,l),
(25,147,l)
);
},
{
closed = 1;
nodes = (
(215,98,l),
(200,107,l),
(172,18,l),
(187,9,l)
);
},
{
closed = 1;
nodes = (
(375,0,l),
(375,18,l),
(175,18,l),
(175,0,l)
);
},
{
closed = 1;
nodes = (
(214,103,l),
(109,189,l),
(95,175,l),
(200,89,l)
);
},
{
closed = 1;
nodes = (
(25,150,l),
(25,460,l),
(5,460,l),
(5,150,l)
);
},
{
closed = 1;
nodes = (
(235,188,l),
(229,204,l),
(104,187,l),
(110,171,l)
);
},
{
closed = 1;
nodes = (
(330,89,l),
(330,107,l),
(200,107,l),
(200,89,l)
);
},
{
closed = 1;
nodes = (
(260,167,l),
(247,177,l),
(197,103,l),
(210,93,l)
);
},
{
closed = 1;
nodes = (
(105,175,l),
(105,435,l),
(15,460,l),
(15,150,l)
);
},
{
closed = 1;
nodes = (
(330,98,l),
(283,168,l),
(247,168,l),
(200,98,l)
);
},
{
closed = 1;
nodes = (
(378,18,l),
(330,107,l),
(315,98,l),
(363,9,l)
);
},
{
closed = 1;
nodes = (
(115,175,l),
(115,435,l),
(95,435,l),
(95,175,l)
);
},
{
closed = 1;
nodes = (
(261,173,l),
(229,204,l),
(215,190,l),
(247,159,l)
);
},
{
closed = 1;
nodes = (
(283,159,l),
(283,177,l),
(247,177,l),
(247,159,l)
);
},
{
closed = 1;
nodes = (
(333,103,l),
(283,177,l),
(270,167,l),
(320,93,l)
);
},
{
closed = 1;
nodes = (
(315,190,l),
(301,204,l),
(269,173,l),
(283,159,l)
);
},
{
closed = 1;
nodes = (
(425,175,l),
(305,190,l),
(283,168,l),
(330,98,l)
);
},
{
closed = 1;
nodes = (
(108,441,l),
(25,463,l),
(19,446,l),
(102,424,l)
);
},
{
closed = 1;
nodes = (
(435,175,l),
(421,189,l),
(316,103,l),
(330,89,l)
);
},
{
closed = 1;
nodes = (
(235,190,l),
(235,405,l),
(215,405,l),
(215,190,l)
);
},
{
closed = 1;
nodes = (
(525,150,l),
(511,164,l),
(361,14,l),
(375,0,l)
);
},
{
closed = 1;
nodes = (
(426,187,l),
(301,204,l),
(295,188,l),
(420,171,l)
);
},
{
closed = 1;
nodes = (
(235,407,l),
(115,437,l),
(109,421,l),
(229,391,l)
);
},
{
closed = 1;
nodes = (
(315,190,l),
(315,405,l),
(295,405,l),
(295,190,l)
);
},
{
closed = 1;
nodes = (
(169,586,l),
(155,600,l),
(5,460,l),
(19,446,l)
);
},
{
closed = 1;
nodes = (
(200,518,l),
(155,592,l),
(15,460,l),
(105,434,l)
);
},
{
closed = 1;
nodes = (
(214,512,l),
(200,526,l),
(95,435,l),
(109,421,l)
);
},
{
closed = 1;
nodes = (
(511,164,l),
(428,186,l),
(422,169,l),
(505,147,l)
);
},
{
closed = 1;
nodes = (
(261,422,l),
(247,436,l),
(215,405,l),
(229,391,l)
);
},
{
closed = 1;
nodes = (
(283,418,l),
(283,436,l),
(247,436,l),
(247,418,l)
);
},
{
closed = 1;
nodes = (
(262,428,l),
(210,520,l),
(195,510,l),
(247,418,l)
);
},
{
closed = 1;
nodes = (
(315,405,l),
(283,436,l),
(269,422,l),
(301,391,l)
);
},
{
closed = 1;
nodes = (
(435,175,l),
(435,435,l),
(415,435,l),
(415,175,l)
);
},
{
closed = 1;
nodes = (
(213,515,l),
(171,586,l),
(154,580,l),
(196,509,l)
);
},
{
closed = 1;
nodes = (
(335,510,l),
(320,520,l),
(268,428,l),
(283,418,l)
);
},
{
closed = 1;
nodes = (
(421,421,l),
(415,437,l),
(295,407,l),
(301,391,l)
);
},
{
closed = 1;
nodes = (
(330,508,l),
(330,526,l),
(200,526,l),
(200,508,l)
);
},
{
closed = 1;
nodes = (
(425,435,l),
(330,518,l),
(283,428,l),
(305,405,l)
);
},
{
closed = 1;
nodes = (
(330,518,l),
(371,592,l),
(155,592,l),
(200,518,l)
);
},
{
closed = 1;
nodes = (
(525,150,l),
(525,460,l),
(505,460,l),
(505,150,l)
);
},
{
closed = 1;
nodes = (
(435,435,l),
(330,526,l),
(316,512,l),
(421,421,l)
);
},
{
closed = 1;
nodes = (
(375,582,l),
(375,600,l),
(155,600,l),
(155,582,l)
);
},
{
closed = 1;
nodes = (
(376,580,l),
(359,586,l),
(317,515,l),
(334,509,l)
);
},
{
closed = 1;
nodes = (
(511,446,l),
(505,463,l),
(422,441,l),
(428,424,l)
);
},
{
closed = 1;
nodes = (
(525,460,l),
(375,600,l),
(361,586,l),
(511,446,l)
);
}
);
width = 530;
},
{
background = {
shapes = (
{
closed = 1;
nodes = (
(196,192,l),
(115,259,l),
(11,198,l),
(151,60,l)
);
},
{
closed = 1;
nodes = (
(154,61,l),
(15,197,l),
(5,184,l),
(144,48,l)
);
},
{
closed = 1;
nodes = (
(120,253,l),
(116,269,l),
(6,201,l),
(11,185,l)
);
},
{
closed = 1;
nodes = (
(198,184,l),
(185,193,l),
(142,71,l),
(155,61,l)
);
},
{
closed = 1;
nodes = (
(382,48,l),
(372,66,l),
(154,66,l),
(144,48,l)
);
},
{
closed = 1;
nodes = (
(25,184,l),
(25,413,l),
(5,413,l),
(5,184,l)
);
},
{
closed = 1;
nodes = (
(221,221,l),
(217,239,l),
(107,275,l),
(112,258,l)
);
},
{
closed = 1;
nodes = (
(201,192,l),
(112,272,l),
(102,259,l),
(191,179,l)
);
},
{
closed = 1;
nodes = (
(112,263,l),
(112,426,l),
(15,414,l),
(15,187,l)
);
},
{
closed = 1;
nodes = (
(326,178,l),
(326,189,l),
(190,189,l),
(190,178,l)
);
},
{
closed = 1;
nodes = (
(256,217,l),
(241,228,l),
(184,191,l),
(197,181,l)
);
},
{
closed = 1;
nodes = (
(329,186,l),
(270,214,l),
(241,214,l),
(192,184,l)
);
},
{
closed = 1;
nodes = (
(387,66,l),
(337,193,l),
(322,184,l),
(371,56,l)
);
},
{
closed = 1;
nodes = (
(256,218,l),
(223,241,l),
(210,228,l),
(243,205,l)
);
},
{
closed = 1;
nodes = (
(122,259,l),
(122,423,l),
(102,423,l),
(102,259,l)
);
},
{
closed = 1;
nodes = (
(283,205,l),
(283,223,l),
(243,223,l),
(243,205,l)
);
},
{
closed = 1;
nodes = (
(336,191,l),
(279,218,l),
(264,207,l),
(323,181,l)
);
},
{
closed = 1;
nodes = (
(316,228,l),
(303,241,l),
(270,218,l),
(283,205,l)
);
},
{
closed = 1;
nodes = (
(425,256,l),
(313,236,l),
(279,213,l),
(334,185,l)
);
},
{
closed = 1;
nodes = (
(117,414,l),
(115,429,l),
(14,415,l),
(13,401,l)
);
},
{
closed = 1;
nodes = (
(230,228,l),
(230,356,l),
(210,356,l),
(210,228,l)
);
},
{
closed = 1;
nodes = (
(221,360,l),
(117,431,l),
(110,417,l),
(221,342,l)
);
},
{
closed = 1;
nodes = (
(435,256,l),
(425,269,l),
(322,192,l),
(332,179,l)
);
},
{
closed = 1;
nodes = (
(532,184,l),
(519,200,l),
(369,64,l),
(382,48,l)
);
},
{
closed = 1;
nodes = (
(200,512,l),
(149,534,l),
(16,414,l),
(114,421,l)
);
},
{
closed = 1;
nodes = (
(418,264,l),
(308,243,l),
(304,227,l),
(413,248,l)
);
},
{
closed = 1;
nodes = (
(164,537,l),
(154,550,l),
(5,413,l),
(15,400,l)
);
},
{
closed = 1;
nodes = (
(316,228,l),
(316,356,l),
(296,356,l),
(296,228,l)
);
},
{
closed = 1;
nodes = (
(211,510,l),
(201,523,l),
(103,426,l),
(117,416,l)
);
},
{
closed = 1;
nodes = (
(256,376,l),
(243,389,l),
(210,356,l),
(223,343,l)
);
},
{
closed = 1;
nodes = (
(422,415,l),
(309,359,l),
(308,234,l),
(424,254,l)
);
},
{
closed = 1;
nodes = (
(283,371,l),
(283,389,l),
(243,389,l),
(243,371,l)
);
},
{
closed = 1;
nodes = (
(264,385,l),
(212,514,l),
(197,506,l),
(249,374,l)
);
},
{
closed = 1;
nodes = (
(527,195,l),
(425,269,l),
(416,252,l),
(516,182,l)
);
},
{
closed = 1;
nodes = (
(316,356,l),
(283,389,l),
(270,376,l),
(303,343,l)
);
},
{
closed = 1;
nodes = (
(212,512,l),
(155,543,l),
(142,533,l),
(199,503,l)
);
},
{
closed = 1;
nodes = (
(435,256,l),
(435,413,l),
(415,411,l),
(415,256,l)
);
},
{
closed = 1;
nodes = (
(335,509,l),
(320,517,l),
(264,385,l),
(279,374,l)
);
},
{
closed = 1;
nodes = (
(327,504,l),
(327,522,l),
(203,522,l),
(203,504,l)
);
},
{
closed = 1;
nodes = (
(423,404,l),
(409,418,l),
(302,362,l),
(308,344,l)
);
},
{
closed = 1;
nodes = (
(429,416,l),
(329,512,l),
(273,384,l),
(302,353,l)
);
},
{
closed = 1;
nodes = (
(325,511,l),
(378,536,l),
(151,537,l),
(210,508,l)
);
},
{
closed = 1;
nodes = (
(532,184,l),
(532,413,l),
(512,413,l),
(512,184,l)
);
},
{
closed = 1;
nodes = (
(433,416,l),
(327,521,l),
(317,508,l),
(420,403,l)
);
},
{
closed = 1;
nodes = (
(372,532,l),
(376,550,l),
(154,550,l),
(154,532,l)
);
},
{
closed = 1;
nodes = (
(387,533,l),
(373,544,l),
(317,517,l),
(329,505,l)
);
},
{
closed = 1;
nodes = (
(528,398,l),
(523,414,l),
(417,423,l),
(420,404,l)
);
},
{
closed = 1;
nodes = (
(532,413,l),
(376,550,l),
(362,537,l),
(522,400,l)
);
}
);
};
layerId = m002;
shapes = (
{
closed = 1;
nodes = (
(425,415,l),
(305,355,l),
(305,220,l),
(425,265,l)
);
},
{
closed = 1;
nodes = (
(159,64,l),
(19,204,l),
(5,190,l),
(145,50,l)
);
},
{
closed = 1;
nodes = (
(190,178,l),
(105,265,l),
(15,190,l),
(145,60,l)
);
},
{
closed = 1;
nodes = (
(108,259,l),
(102,276,l),
(19,204,l),
(25,187,l)
);
},
{
closed = 1;
nodes = (
(205,178,l),
(190,187,l),
(142,68,l),
(157,59,l)
);
},
{
closed = 1;
nodes = (
(385,50,l),
(385,68,l),
(145,68,l),
(145,50,l)
);
},
{
closed = 1;
nodes = (
(204,183,l),
(109,279,l),
(95,265,l),
(190,169,l)
);
},
{
closed = 1;
nodes = (
(25,190,l),
(25,410,l),
(5,410,l),
(5,190,l)
);
},
{
closed = 1;
nodes = (
(235,214,l),
(229,234,l),
(104,281,l),
(110,261,l)
);
},
{
closed = 1;
nodes = (
(340,169,l),
(340,187,l),
(190,187,l),
(190,169,l)
);
},
{
closed = 1;
nodes = (
(260,217,l),
(247,227,l),
(187,183,l),
(200,173,l)
);
},
{
closed = 1;
nodes = (
(105,265,l),
(105,415,l),
(15,410,l),
(15,190,l)
);
},
{
closed = 1;
nodes = (
(340,178,l),
(283,218,l),
(247,218,l),
(190,178,l)
);
},
{
closed = 1;
nodes = (
(388,68,l),
(340,187,l),
(325,178,l),
(373,59,l)
);
},
{
closed = 1;
nodes = (
(115,265,l),
(115,415,l),
(95,415,l),
(95,265,l)
);
},
{
closed = 1;
nodes = (
(261,223,l),
(229,239,l),
(215,225,l),
(247,209,l)
);
},
{
closed = 1;
nodes = (
(283,209,l),
(283,227,l),
(247,227,l),
(247,209,l)
);
},
{
closed = 1;
nodes = (
(343,183,l),
(283,227,l),
(270,217,l),
(330,173,l)
);
},
{
closed = 1;
nodes = (
(315,225,l),
(301,239,l),
(269,223,l),
(283,209,l)
);
},
{
closed = 1;
nodes = (
(425,265,l),
(305,220,l),
(283,218,l),
(340,178,l)
);
},
{
closed = 1;
nodes = (
(108,421,l),
(25,413,l),
(19,396,l),
(102,404,l)
);
},
{
closed = 1;
nodes = (
(435,265,l),
(421,279,l),
(326,183,l),
(340,169,l)
);
},
{
closed = 1;
nodes = (
(235,230,l),
(235,355,l),
(215,355,l),
(215,230,l)
);
},
{
closed = 1;
nodes = (
(525,190,l),
(511,204,l),
(371,64,l),
(385,50,l)
);
},
{
closed = 1;
nodes = (
(426,281,l),
(301,234,l),
(295,214,l),
(420,261,l)
);
},
{
closed = 1;
nodes = (
(235,357,l),
(115,417,l),
(109,401,l),
(229,341,l)
);
},
{
closed = 1;
nodes = (
(315,220,l),
(315,355,l),
(295,355,l),
(295,220,l)
);
},
{
closed = 1;
nodes = (
(169,536,l),
(155,550,l),
(5,410,l),
(19,396,l)
);
},
{
closed = 1;
nodes = (
(200,508,l),
(155,542,l),
(15,410,l),
(105,414,l)
);
},
{
closed = 1;
nodes = (
(214,502,l),
(200,516,l),
(95,415,l),
(109,401,l)
);
},
{
closed = 1;
nodes = (
(511,204,l),
(428,276,l),
(422,259,l),
(505,187,l)
);
},
{
closed = 1;
nodes = (
(261,372,l),
(247,386,l),
(215,355,l),
(229,341,l)
);
},
{
closed = 1;
nodes = (
(283,368,l),
(283,386,l),
(247,386,l),
(247,368,l)
);
},
{
closed = 1;
nodes = (
(262,378,l),
(210,510,l),
(195,500,l),
(247,368,l)
);
},
{
closed = 1;
nodes = (
(315,355,l),
(283,386,l),
(269,372,l),
(301,341,l)
);
},
{
closed = 1;
nodes = (
(435,265,l),
(435,415,l),
(415,415,l),
(415,265,l)
);
},
{
closed = 1;
nodes = (
(213,505,l),
(171,536,l),
(154,530,l),
(196,499,l)
);
},
{
closed = 1;
nodes = (
(335,500,l),
(320,510,l),
(268,378,l),
(283,368,l)
);
},
{
closed = 1;
nodes = (
(421,401,l),
(415,417,l),
(295,357,l),
(301,341,l)
);
},
{
closed = 1;
nodes = (
(330,498,l),
(330,516,l),
(200,516,l),
(200,498,l)
);
},
{
closed = 1;
nodes = (
(425,415,l),
(330,508,l),
(283,378,l),
(305,355,l)
);
},
{
closed = 1;
nodes = (
(330,508,l),
(371,542,l),
(155,542,l),
(200,508,l)
);
},
{
closed = 1;
nodes = (
(525,190,l),
(525,410,l),
(505,410,l),
(505,190,l)
);
},
{
closed = 1;
nodes = (
(435,415,l),
(330,516,l),
(316,502,l),
(421,401,l)
);
},
{
closed = 1;
nodes = (
(375,532,l),
(375,550,l),
(155,550,l),
(155,532,l)
);
},
{
closed = 1;
nodes = (
(376,530,l),
(359,536,l),
(317,505,l),
(334,499,l)
);
},
{
closed = 1;
nodes = (
(511,396,l),
(505,413,l),
(422,421,l),
(428,404,l)
);
},
{
closed = 1;
nodes = (
(525,410,l),
(375,550,l),
(361,536,l),
(511,396,l)
);
}
);
width = 530;
},
{
background = {
shapes = (
{
closed = 1;
nodes = (
(103,185,l),
(223,245,l),
(223,380,l),
(103,335,l)
);
},
{
closed = 1;
nodes = (
(369,536,l),
(509,396,l),
(523,410,l),
(383,550,l)
);
},
{
closed = 1;
nodes = (
(338,422,l),
(423,335,l),
(513,410,l),
(383,540,l)
);
},
{
closed = 1;
nodes = (
(420,341,l),
(426,324,l),
(509,396,l),
(503,413,l)
);
},
{
closed = 1;
nodes = (
(323,422,l),
(338,413,l),
(386,532,l),
(371,541,l)
);
},
{
closed = 1;
nodes = (
(143,550,l),
(143,532,l),
(383,532,l),
(383,550,l)
);
},
{
closed = 1;
nodes = (
(324,417,l),
(419,321,l),
(433,335,l),
(338,431,l)
);
},
{
closed = 1;
nodes = (
(503,410,l),
(503,190,l),
(523,190,l),
(523,410,l)
);
},
{
closed = 1;
nodes = (
(293,386,l),
(299,366,l),
(424,319,l),
(418,339,l)
);
},
{
closed = 1;
nodes = (
(188,431,l),
(188,413,l),
(338,413,l),
(338,431,l)
);
},
{
closed = 1;
nodes = (
(268,383,l),
(281,373,l),
(341,417,l),
(328,427,l)
);
},
{
closed = 1;
nodes = (
(423,335,l),
(423,185,l),
(513,190,l),
(513,410,l)
);
},
{
closed = 1;
nodes = (
(188,422,l),
(245,382,l),
(281,382,l),
(338,422,l)
);
},
{
closed = 1;
nodes = (
(140,532,l),
(188,413,l),
(203,422,l),
(155,541,l)
);
},
{
closed = 1;
nodes = (
(413,335,l),
(413,185,l),
(433,185,l),
(433,335,l)
);
},
{
closed = 1;
nodes = (
(267,377,l),
(299,361,l),
(313,375,l),
(281,391,l)
);
},
{
closed = 1;
nodes = (
(245,391,l),
(245,373,l),
(281,373,l),
(281,391,l)
);
},
{
closed = 1;
nodes = (
(185,417,l),
(245,373,l),
(258,383,l),
(198,427,l)
);
},
{
closed = 1;
nodes = (
(213,375,l),
(227,361,l),
(259,377,l),
(245,391,l)
);
},
{
closed = 1;
nodes = (
(103,335,l),
(223,380,l),
(245,382,l),
(188,422,l)
);
},
{
closed = 1;
nodes = (
(420,179,l),
(503,187,l),
(509,204,l),
(426,196,l)
);
},
{
closed = 1;
nodes = (
(93,335,l),
(107,321,l),
(202,417,l),
(188,431,l)
);
},
{
closed = 1;
nodes = (
(293,370,l),
(293,245,l),
(313,245,l),
(313,370,l)
);
},
{
closed = 1;
nodes = (
(3,410,l),
(17,396,l),
(157,536,l),
(143,550,l)
);
},
{
closed = 1;
nodes = (
(102,319,l),
(227,366,l),
(233,386,l),
(108,339,l)
);
},
{
closed = 1;
nodes = (
(293,243,l),
(413,183,l),
(419,199,l),
(299,259,l)
);
},
{
closed = 1;
nodes = (
(213,380,l),
(213,245,l),
(233,245,l),
(233,380,l)
);
},
{
closed = 1;
nodes = (
(359,64,l),
(373,50,l),
(523,190,l),
(509,204,l)
);
},
{
closed = 1;
nodes = (
(328,92,l),
(373,58,l),
(513,190,l),
(423,186,l)
);
},
{
closed = 1;
nodes = (
(314,98,l),
(328,84,l),
(433,185,l),
(419,199,l)
);
},
{
closed = 1;
nodes = (
(17,396,l),
(100,324,l),
(106,341,l),
(23,413,l)
);
},
{
closed = 1;
nodes = (
(267,228,l),
(281,214,l),
(313,245,l),
(299,259,l)
);
},
{
closed = 1;
nodes = (
(245,232,l),
(245,214,l),
(281,214,l),
(281,232,l)
);
},
{
closed = 1;
nodes = (
(266,222,l),
(318,90,l),
(333,100,l),
(281,232,l)
);
},
{
closed = 1;
nodes = (
(213,245,l),
(245,214,l),
(259,228,l),
(227,259,l)
);
},
{
closed = 1;
nodes = (
(93,335,l),
(93,185,l),
(113,185,l),
(113,335,l)
);
},
{
closed = 1;
nodes = (
(315,95,l),
(357,64,l),
(374,70,l),
(332,101,l)
);
},
{
closed = 1;
nodes = (
(193,100,l),
(208,90,l),
(260,222,l),
(245,232,l)
);
},
{
closed = 1;
nodes = (
(107,199,l),
(113,183,l),
(233,243,l),
(227,259,l)
);
},
{
closed = 1;
nodes = (
(198,102,l),
(198,84,l),
(328,84,l),
(328,102,l)
);
},
{
closed = 1;
nodes = (
(103,185,l),
(198,92,l),
(245,222,l),
(223,245,l)
);
},
{
closed = 1;
nodes = (
(198,92,l),
(157,58,l),
(373,58,l),
(328,92,l)
);
},
{
closed = 1;
nodes = (
(3,410,l),
(3,190,l),
(23,190,l),
(23,410,l)
);
},
{
closed = 1;
nodes = (
(93,185,l),
(198,84,l),
(212,98,l),
(107,199,l)
);
},
{
closed = 1;
nodes = (
(153,68,l),
(153,50,l),
(373,50,l),
(373,68,l)
);
},
{
closed = 1;
nodes = (
(152,70,l),
(169,64,l),
(211,95,l),
(194,101,l)
);
},
{
closed = 1;
nodes = (
(17,204,l),
(23,187,l),
(106,179,l),
(100,196,l)
);
},
{
closed = 1;
nodes = (
(3,190,l),
(153,50,l),
(167,64,l),
(17,204,l)
);
}
);
};
layerId = m003;
shapes = (
{
closed = 1;
nodes = (
(425,335,l),
(305,375,l),
(305,240,l),
(425,195,l)
);
},
{
closed = 1;
nodes = (
(169,64,l),
(19,194,l),
(5,180,l),
(155,50,l)
);
},
{
closed = 1;
nodes = (
(190,93,l),
(105,195,l),
(15,180,l),
(155,60,l)
);
},
{
closed = 1;
nodes = (
(108,189,l),
(102,206,l),
(19,194,l),
(25,177,l)
);
},
{
closed = 1;
nodes = (
(205,93,l),
(190,102,l),
(152,68,l),
(167,59,l)
);
},
{
closed = 1;
nodes = (
(375,50,l),
(375,68,l),
(155,68,l),
(155,50,l)
);
},
{
closed = 1;
nodes = (
(204,98,l),
(109,209,l),
(95,195,l),
(190,84,l)
);
},
{
closed = 1;
nodes = (
(25,180,l),
(25,410,l),
(5,410,l),
(5,180,l)
);
},
{
closed = 1;
nodes = (
(235,238,l),
(229,254,l),
(104,207,l),
(110,191,l)
);
},
{
closed = 1;
nodes = (
(340,88,l),
(340,106,l),
(190,106,l),
(190,88,l)
);
},
{
closed = 1;
nodes = (
(260,217,l),
(247,227,l),
(187,98,l),
(203,91,l)
);
},
{
closed = 1;
nodes = (
(105,195,l),
(105,335,l),
(15,410,l),
(15,180,l)
);
},
{
closed = 1;
nodes = (
(340,93,l),
(283,218,l),
(247,218,l),
(190,93,l)
);
},
{
closed = 1;
nodes = (
(378,68,l),
(340,102,l),
(325,93,l),
(363,59,l)
);
},
{
closed = 1;
nodes = (
(115,195,l),
(115,335,l),
(95,335,l),
(95,195,l)
);
},
{
closed = 1;
nodes = (
(261,223,l),
(229,254,l),
(215,240,l),
(247,209,l)
);
},
{
closed = 1;
nodes = (
(283,209,l),
(283,227,l),
(247,227,l),
(247,209,l)
);
},
{
closed = 1;
nodes = (
(343,98,l),
(283,227,l),
(270,217,l),
(330,88,l)
);
},
{
closed = 1;
nodes = (
(315,240,l),
(301,254,l),
(269,223,l),
(283,209,l)
);
},
{
closed = 1;
nodes = (
(425,195,l),
(305,240,l),
(283,218,l),
(340,93,l)
);
},
{
closed = 1;
nodes = (
(108,341,l),
(25,413,l),
(19,396,l),
(102,324,l)
);
},
{
closed = 1;
nodes = (
(435,195,l),
(421,209,l),
(326,98,l),
(340,84,l)
);
},
{
closed = 1;
nodes = (
(235,240,l),
(235,362,l),
(215,362,l),
(215,240,l)
);
},
{
closed = 1;
nodes = (
(525,180,l),
(511,194,l),
(361,64,l),
(375,50,l)
);
},
{
closed = 1;
nodes = (
(426,207,l),
(301,254,l),
(295,238,l),
(420,191,l)
);
},
{
closed = 1;
nodes = (
(243,382,l),
(115,337,l),
(109,321,l),
(237,364,l)
);
},
{
closed = 1;
nodes = (
(315,240,l),
(315,368,l),
(295,368,l),
(295,240,l)
);
},
{
closed = 1;
nodes = (
(159,536,l),
(145,550,l),
(5,410,l),
(19,396,l)
);
},
{
closed = 1;
nodes = (
(190,418,l),
(145,542,l),
(15,410,l),
(105,334,l)
);
},
{
closed = 1;
nodes = (
(204,412,l),
(190,426,l),
(95,335,l),
(109,321,l)
);
},
{
closed = 1;
nodes = (
(511,194,l),
(428,206,l),
(422,189,l),
(505,177,l)
);
},
{
closed = 1;
nodes = (
(261,372,l),
(247,386,l),
(215,363,l),
(229,356,l)
);
},
{
closed = 1;
nodes = (
(289,368,l),
(289,386,l),
(241,386,l),
(241,368,l)
);
},
{
closed = 1;
nodes = (
(262,378,l),
(200,420,l),
(185,410,l),
(247,368,l)
);
},
{
closed = 1;
nodes = (
(315,363,l),
(283,386,l),
(269,372,l),
(301,356,l)
);
},
{
closed = 1;
nodes = (
(435,195,l),
(435,335,l),
(415,335,l),
(415,195,l)
);
},
{
closed = 1;
nodes = (
(203,415,l),
(161,536,l),
(144,530,l),
(186,409,l)
);
},
{
closed = 1;
nodes = (
(345,410,l),
(330,420,l),
(268,378,l),
(283,368,l)
);
},
{
closed = 1;
nodes = (
(421,321,l),
(415,337,l),
(295,379,l),
(301,361,l)
);
},
{
closed = 1;
nodes = (
(340,408,l),
(340,426,l),
(190,426,l),
(190,408,l)
);
},
{
closed = 1;
nodes = (
(425,335,l),
(340,418,l),
(283,378,l),
(305,375,l)
);
},
{
closed = 1;
nodes = (
(340,418,l),
(381,542,l),
(145,542,l),
(190,418,l)
);
},
{
closed = 1;
nodes = (
(525,180,l),
(525,410,l),
(505,410,l),
(505,180,l)
);
},
{
closed = 1;
nodes = (
(435,335,l),
(340,426,l),
(326,412,l),
(421,321,l)
);
},
{
closed = 1;
nodes = (
(385,532,l),
(385,550,l),
(145,550,l),
(145,532,l)
);
},
{
closed = 1;
nodes = (
(386,530,l),
(369,536,l),
(327,415,l),
(344,409,l)
);
},
{
closed = 1;
nodes = (
(511,396,l),
(505,413,l),
(422,341,l),
(428,324,l)
);
},
{
closed = 1;
nodes = (
(525,410,l),
(385,550,l),
(371,536,l),
(511,396,l)
);
}
);
width = 530;
},
{
background = {
shapes = (
{
closed = 1;
nodes = (
(124,102,l),
(43,176,l),
(16,151,l),
(129,9,l)
);
},
{
closed = 1;
nodes = (
(136,13,l),
(20,150,l),
(10,137,l),
(126,0,l)
);
},
{
closed = 1;
nodes = (
(48,170,l),
(44,186,l),
(11,154,l),
(16,138,l)
);
},
{
closed = 1;
nodes = (
(126,94,l),
(113,103,l),
(114,23,l),
(133,13,l)
);
},
{
closed = 1;
nodes = (
(334,0,l),
(334,18,l),
(126,18,l),
(126,0,l)
);
},
{
closed = 1;
nodes = (
(30,137,l),
(30,443,l),
(10,443,l),
(10,137,l)
);
},
{
closed = 1;
nodes = (
(169,190,l),
(165,206,l),
(35,184,l),
(40,168,l)
);
},
{
closed = 1;
nodes = (
(129,102,l),
(40,189,l),
(30,176,l),
(119,89,l)
);
},
{
closed = 1;
nodes = (
(40,180,l),
(42,433,l),
(20,440,l),
(20,140,l)
);
},
{
closed = 1;
nodes = (
(228,88,l),
(228,106,l),
(118,106,l),
(118,88,l)
);
},
{
closed = 1;
nodes = (
(198,170,l),
(183,181,l),
(112,101,l),
(125,91,l)
);
},
{
closed = 1;
nodes = (
(224,103,l),
(205,167,l),
(183,167,l),
(120,101,l)
);
},
{
closed = 1;
nodes = (
(344,23,l),
(230,103,l),
(217,94,l),
(331,13,l)
);
},
{
closed = 1;
nodes = (
(198,171,l),
(171,204,l),
(158,191,l),
(185,158,l)
);
},
{
closed = 1;
nodes = (
(50,176,l),
(50,435,l),
(30,435,l),
(30,176,l)
);
},
{
closed = 1;
nodes = (
(218,158,l),
(218,176,l),
(185,176,l),
(185,158,l)
);
},
{
closed = 1;
nodes = (
(231,101,l),
(214,171,l),
(199,160,l),
(218,91,l)
);
},
{
closed = 1;
nodes = (
(244,191,l),
(231,204,l),
(205,171,l),
(218,158,l)
);
},
{
closed = 1;
nodes = (
(300,176,l),
(241,199,l),
(214,166,l),
(229,95,l)
);
},
{
closed = 1;
nodes = (
(44,426,l),
(48,442,l),
(23,446,l),
(14,433,l)
);
},
{
closed = 1;
nodes = (
(178,191,l),
(178,403,l),
(158,403,l),
(158,191,l)
);
},
{
closed = 1;
nodes = (
(169,411,l),
(41,442,l),
(37,427,l),
(169,393,l)
);
},
{
closed = 1;
nodes = (
(310,176,l),
(300,189,l),
(217,102,l),
(227,89,l)
);
},
{
closed = 1;
nodes = (
(474,137,l),
(459,150,l),
(319,13,l),
(334,0,l)
);
},
{
closed = 1;
nodes = (
(124,515,l),
(141,580,l),
(22,444,l),
(44,433,l)
);
},
{
closed = 1;
nodes = (
(293,184,l),
(236,206,l),
(232,190,l),
(288,168,l)
);
},
{
closed = 1;
nodes = (
(156,587,l),
(146,600,l),
(10,443,l),
(20,430,l)
);
},
{
closed = 1;
nodes = (
(244,191,l),
(244,403,l),
(224,403,l),
(224,191,l)
);
},
{
closed = 1;
nodes = (
(130,510,l),
(120,523,l),
(33,435,l),
(44,424,l)
);
},
{
closed = 1;
nodes = (
(198,423,l),
(185,436,l),
(158,403,l),
(171,390,l)
);
},
{
closed = 1;
nodes = (
(296,437,l),
(237,406,l),
(236,197,l),
(302,173,l)
);
},
{
closed = 1;
nodes = (
(218,418,l),
(218,436,l),
(185,436,l),
(191,418,l)
);
},
{
closed = 1;
nodes = (
(208,432,l),
(129,521,l),
(116,511,l),
(193,421,l)
);
},
{
closed = 1;
nodes = (
(470,154,l),
(293,186,l),
(289,170,l),
(465,138,l)
);
},
{
closed = 1;
nodes = (
(244,403,l),
(218,436,l),
(205,423,l),
(231,390,l)
);
},
{
closed = 1;
nodes = (
(134,512,l),
(147,593,l),
(134,583,l),
(119,506,l)
);
},
{
closed = 1;
nodes = (
(310,176,l),
(310,437,l),
(290,429,l),
(290,176,l)
);
},
{
closed = 1;
nodes = (
(221,511,l),
(208,521,l),
(207,432,l),
(222,421,l)
);
},
{
closed = 1;
nodes = (
(221,504,l),
(221,522,l),
(122,522,l),
(122,504,l)
);
},
{
closed = 1;
nodes = (
(296,426,l),
(284,440,l),
(233,414,l),
(233,396,l)
);
},
{
closed = 1;
nodes = (
(302,440,l),
(224,512,l),
(208,431,l),
(230,400,l)
);
},
{
closed = 1;
nodes = (
(217,515,l),
(340,586,l),
(143,587,l),
(132,508,l)
);
},
{
closed = 1;
nodes = (
(474,137,l),
(474,463,l),
(454,463,l),
(454,137,l)
);
},
{
closed = 1;
nodes = (
(310,434,l),
(223,520,l),
(213,507,l),
(300,421,l)
);
},
{
closed = 1;
nodes = (
(334,582,l),
(334,600,l),
(146,600,l),
(146,582,l)
);
},
{
closed = 1;
nodes = (
(349,583,l),
(336,593,l),
(212,512,l),
(225,503,l)
);
},
{
closed = 1;
nodes = (
(470,448,l),
(465,464,l),
(289,442,l),
(293,426,l)
);
},
{
closed = 1;
nodes = (
(474,463,l),
(334,600,l),
(321,585,l),
(461,448,l)
);
}
);
};
layerId = m004;
shapes = (
{
closed = 1;
nodes = (
(305,435,l),
(245,405,l),
(245,190,l),
(305,175,l)
);
},
{
closed = 1;
nodes = (
(149,14,l),
(19,164,l),
(5,160,l),
(135,0,l)
);
},
{
closed = 1;
nodes = (
(120,98,l),
(35,175,l),
(15,160,l),
(135,10,l)
);
},
{
closed = 1;
nodes = (
(38,169,l),
(32,186,l),
(19,164,l),
(25,157,l)
);
},
{
closed = 1;
nodes = (
(130,98,l),
(115,98,l),
(132,18,l),
(147,9,l)
);
},
{
closed = 1;
nodes = (
(325,0,l),
(325,18,l),
(135,18,l),
(135,0,l)
);
},
{
closed = 1;
nodes = (
(134,103,l),
(39,189,l),
(25,175,l),
(120,89,l)
);
},
{
closed = 1;
nodes = (
(25,160,l),
(25,450,l),
(5,450,l),
(5,160,l)
);
},
{
closed = 1;
nodes = (
(185,188,l),
(179,204,l),
(34,187,l),
(40,171,l)
);
},
{
closed = 1;
nodes = (
(220,89,l),
(220,107,l),
(120,107,l),
(120,89,l)
);
},
{
closed = 1;
nodes = (
(210,167,l),
(197,177,l),
(117,103,l),
(130,93,l)
);
},
{
closed = 1;
nodes = (
(35,175,l),
(35,435,l),
(15,450,l),
(15,160,l)
);
},
{
closed = 1;
nodes = (
(220,98,l),
(233,168,l),
(207,168,l),
(120,98,l)
);
},
{
closed = 1;
nodes = (
(328,18,l),
(215,102,l),
(200,93,l),
(313,9,l)
);
},
{
closed = 1;
nodes = (
(45,175,l),
(45,435,l),
(25,435,l),
(25,175,l)
);
},
{
closed = 1;
nodes = (
(211,173,l),
(179,204,l),
(165,190,l),
(197,159,l)
);
},
{
closed = 1;
nodes = (
(233,159,l),
(233,177,l),
(207,177,l),
(207,159,l)
);
},
{
closed = 1;
nodes = (
(223,103,l),
(233,177,l),
(220,167,l),
(210,93,l)
);
},
{
closed = 1;
nodes = (
(255,190,l),
(241,204,l),
(219,173,l),
(233,159,l)
);
},
{
closed = 1;
nodes = (
(305,175,l),
(245,190,l),
(233,168,l),
(220,98,l)
);
},
{
closed = 1;
nodes = (
(38,441,l),
(25,453,l),
(19,446,l),
(32,424,l)
);
},
{
closed = 1;
nodes = (
(315,175,l),
(301,189,l),
(206,103,l),
(220,89,l)
);
},
{
closed = 1;
nodes = (
(185,190,l),
(185,405,l),
(165,405,l),
(165,190,l)
);
},
{
closed = 1;
nodes = (
(475,150,l),
(461,164,l),
(311,14,l),
(325,0,l)
);
},
{
closed = 1;
nodes = (
(306,187,l),
(241,204,l),
(235,188,l),
(300,171,l)
);
},
{
closed = 1;
nodes = (
(185,407,l),
(45,437,l),
(39,421,l),
(179,391,l)
);
},
{
closed = 1;
nodes = (
(255,190,l),
(255,405,l),
(235,405,l),
(235,190,l)
);
},
{
closed = 1;
nodes = (
(149,586,l),
(135,600,l),
(5,450,l),
(19,446,l)
);
},
{
closed = 1;
nodes = (
(120,518,l),
(135,592,l),
(15,450,l),
(35,434,l)
);
},
{
closed = 1;
nodes = (
(134,512,l),
(120,526,l),
(25,435,l),
(39,421,l)
);
},
{
closed = 1;
nodes = (
(461,164,l),
(308,186,l),
(302,169,l),
(455,147,l)
);
},
{
closed = 1;
nodes = (
(211,422,l),
(197,436,l),
(165,405,l),
(179,391,l)
);
},
{
closed = 1;
nodes = (
(233,418,l),
(233,436,l),
(200,436,l),
(200,418,l)
);
},
{
closed = 1;
nodes = (
(212,428,l),
(130,520,l),
(115,510,l),
(197,418,l)
);
},
{
closed = 1;
nodes = (
(255,405,l),
(233,436,l),
(219,422,l),
(241,391,l)
);
},
{
closed = 1;
nodes = (
(315,175,l),
(315,435,l),
(295,435,l),
(295,175,l)
);
},
{
closed = 1;
nodes = (
(128,515,l),
(151,586,l),
(134,580,l),
(111,509,l)
);
},
{
closed = 1;
nodes = (
(225,510,l),
(210,520,l),
(218,428,l),
(233,418,l)
);
},
{
closed = 1;
nodes = (
(301,421,l),
(295,437,l),
(235,407,l),
(241,391,l)
);
},
{
closed = 1;
nodes = (
(220,508,l),
(220,526,l),
(120,526,l),
(120,508,l)
);
},
{
closed = 1;
nodes = (
(305,435,l),
(220,518,l),
(229,428,l),
(245,405,l)
);
},
{
closed = 1;
nodes = (
(220,518,l),
(325,592,l),
(135,592,l),
(120,518,l)
);
},
{
closed = 1;
nodes = (
(475,150,l),
(475,460,l),
(455,460,l),
(455,150,l)
);
},
{
closed = 1;
nodes = (
(315,435,l),
(220,526,l),
(206,512,l),
(301,421,l)
);
},
{
closed = 1;
nodes = (
(325,582,l),
(325,600,l),
(135,600,l),
(135,582,l)
);
},
{
closed = 1;
nodes = (
(326,580,l),
(309,586,l),
(202,520,l),
(219,514,l)
);
},
{
closed = 1;
nodes = (
(461,446,l),
(455,463,l),
(302,441,l),
(308,424,l)
);
},
{
closed = 1;
nodes = (
(475,460,l),
(325,600,l),
(311,586,l),
(461,446,l)
);
}
);
width = 480;
},
{
background = {
shapes = (
{
closed = 1;
nodes = (
(244,102,l),
(180,176,l),
(16,151,l),
(129,12,l)
);
},
{
closed = 1;
nodes = (
(142,13,l),
(20,150,l),
(10,137,l),
(132,0,l)
);
},
{
closed = 1;
nodes = (
(185,170,l),
(181,186,l),
(11,154,l),
(16,138,l)
);
},
{
closed = 1;
nodes = (
(246,94,l),
(233,103,l),
(120,13,l),
(133,3,l)
);
},
{
closed = 1;
nodes = (
(367,0,l),
(367,18,l),
(132,18,l),
(132,0,l)
);
},
{
closed = 1;
nodes = (
(30,137,l),
(30,463,l),
(10,463,l),
(10,137,l)
);
},
{
closed = 1;
nodes = (
(236,190,l),
(232,206,l),
(172,184,l),
(177,168,l)
);
},
{
closed = 1;
nodes = (
(249,102,l),
(177,189,l),
(167,176,l),
(239,89,l)
);
},
{
closed = 1;
nodes = (
(177,180,l),
(177,430,l),
(20,460,l),
(20,140,l)
);
},
{
closed = 1;
nodes = (
(363,88,l),
(363,106,l),
(232,106,l),
(232,88,l)
);
},
{
closed = 1;
nodes = (
(257,170,l),
(242,181,l),
(240,101,l),
(253,91,l)
);
},
{
closed = 1;
nodes = (
(371,103,l),
(272,167,l),
(249,167,l),
(240,101,l)
);
},
{
closed = 1;
nodes = (
(372,16,l),
(372,103,l),
(356,101,l),
(356,13,l)
);
},
{
closed = 1;
nodes = (
(264,171,l),
(238,204,l),
(225,191,l),
(251,158,l)
);
},
{
closed = 1;
nodes = (
(187,176,l),
(187,439,l),
(167,439,l),
(167,176,l)
);
},
{
closed = 1;
nodes = (
(285,158,l),
(285,176,l),
(251,176,l),
(251,158,l)
);
},
{
closed = 1;
nodes = (
(376,103,l),
(281,171,l),
(266,160,l),
(365,91,l)
);
},
{
closed = 1;
nodes = (
(312,191,l),
(299,204,l),
(272,171,l),
(285,158,l)
);
},
{
closed = 1;
nodes = (
(423,176,l),
(309,199,l),
(281,166,l),
(369,98,l)
);
},
{
closed = 1;
nodes = (
(181,426,l),
(185,442,l),
(26,471,l),
(11,458,l)
);
},
{
closed = 1;
nodes = (
(245,191,l),
(245,403,l),
(225,403,l),
(225,191,l)
);
},
{
closed = 1;
nodes = (
(236,410,l),
(174,445,l),
(170,430,l),
(236,393,l)
);
},
{
closed = 1;
nodes = (
(430,163,l),
(420,176,l),
(355,101,l),
(365,88,l)
);
},
{
closed = 1;
nodes = (
(474,137,l),
(464,150,l),
(357,13,l),
(367,0,l)
);
},
{
closed = 1;
nodes = (
(250,518,l),
(137,580,l),
(27,467,l),
(180,435,l)
);
},
{
closed = 1;
nodes = (
(416,184,l),
(304,206,l),
(300,190,l),
(411,168,l)
);
},
{
closed = 1;
nodes = (
(152,587,l),
(142,600,l),
(10,463,l),
(20,450,l)
);
},
{
closed = 1;
nodes = (
(312,191,l),
(312,403,l),
(292,403,l),
(292,191,l)
);
},
{
closed = 1;
nodes = (
(264,510,l),
(253,523,l),
(171,439,l),
(181,426,l)
);
},
{
closed = 1;
nodes = (
(264,423,l),
(251,436,l),
(225,403,l),
(238,390,l)
);
},
{
closed = 1;
nodes = (
(421,436,l),
(305,406,l),
(304,197,l),
(423,173,l)
);
},
{
closed = 1;
nodes = (
(285,418,l),
(285,436,l),
(251,436,l),
(251,418,l)
);
},
{
closed = 1;
nodes = (
(259,432,l),
(271,521,l),
(256,518,l),
(245,421,l)
);
},
{
closed = 1;
nodes = (
(470,147,l),
(416,179,l),
(412,163,l),
(463,133,l)
);
},
{
closed = 1;
nodes = (
(312,403,l),
(285,436,l),
(272,423,l),
(299,390,l)
);
},
{
closed = 1;
nodes = (
(267,512,l),
(143,593,l),
(130,583,l),
(258,504,l)
);
},
{
closed = 1;
nodes = (
(431,163,l),
(431,438,l),
(411,436,l),
(411,163,l)
);
},
{
closed = 1;
nodes = (
(365,506,l),
(353,518,l),
(266,432,l),
(281,421,l)
);
},
{
closed = 1;
nodes = (
(358,504,l),
(358,522,l),
(255,522,l),
(258,504,l)
);
},
{
closed = 1;
nodes = (
(420,425,l),
(409,442,l),
(301,414,l),
(301,396,l)
);
},
{
closed = 1;
nodes = (
(423,435,l),
(359,511,l),
(275,431,l),
(298,400,l)
);
},
{
closed = 1;
nodes = (
(357,511,l),
(338,586,l),
(139,587,l),
(265,508,l)
);
},
{
closed = 1;
nodes = (
(474,137,l),
(474,463,l),
(454,463,l),
(454,137,l)
);
},
{
closed = 1;
nodes = (
(429,436,l),
(359,521,l),
(349,508,l),
(416,426,l)
);
},
{
closed = 1;
nodes = (
(337,582,l),
(337,600,l),
(142,600,l),
(142,582,l)
);
},
{
closed = 1;
nodes = (
(345,583,l),
(332,593,l),
(352,512,l),
(365,503,l)
);
},
{
closed = 1;
nodes = (
(467,454,l),
(461,470,l),
(414,441,l),
(422,426,l)
);
},
{
closed = 1;
nodes = (
(474,463,l),
(337,600,l),
(327,587,l),
(464,450,l)
);
}
);
};
layerId = m005;
shapes = (
{
closed = 1;
nodes = (
(425,445,l),
(295,405,l),
(295,190,l),
(425,165,l)
);
},
{
closed = 1;
nodes = (
(159,14,l),
(19,164,l),
(5,150,l),
(145,0,l)
);
},
{
closed = 1;
nodes = (
(260,98,l),
(175,175,l),
(15,150,l),
(145,10,l)
);
},
{
closed = 1;
nodes = (
(178,169,l),
(172,186,l),
(19,164,l),
(25,147,l)
);
},
{
closed = 1;
nodes = (
(275,98,l),
(260,107,l),
(142,18,l),
(157,9,l)
);
},
{
closed = 1;
nodes = (
(358,0,l),
(358,18,l),
(145,18,l),
(145,0,l)
);
},
{
closed = 1;
nodes = (
(264,103,l),
(179,189,l),
(165,175,l),
(260,89,l)
);
},
{
closed = 1;
nodes = (
(25,150,l),
(25,460,l),
(5,460,l),
(5,150,l)
);
},
{
closed = 1;
nodes = (
(235,188,l),
(229,204,l),
(174,187,l),
(180,171,l)
);
},
{
closed = 1;
nodes = (
(366,89,l),
(366,107,l),
(260,107,l),
(260,89,l)
);
},
{
closed = 1;
nodes = (
(260,167,l),
(244,177,l),
(254,103,l),
(270,99,l)
);
},
{
closed = 1;
nodes = (
(175,175,l),
(175,435,l),
(15,460,l),
(15,150,l)
);
},
{
closed = 1;
nodes = (
(370,98,l),
(273,168,l),
(250,167,l),
(260,98,l)
);
},
{
closed = 1;
nodes = (
(355,18,l),
(377,107,l),
(355,98,l),
(333,9,l)
);
},
{
closed = 1;
nodes = (
(185,175,l),
(185,435,l),
(165,435,l),
(165,175,l)
);
},
{
closed = 1;
nodes = (
(261,173,l),
(229,204,l),
(215,190,l),
(247,159,l)
);
},
{
closed = 1;
nodes = (
(273,159,l),
(273,177,l),
(250,177,l),
(250,159,l)
);
},
{
closed = 1;
nodes = (
(373,103,l),
(273,177,l),
(260,167,l),
(360,93,l)
);
},
{
closed = 1;
nodes = (
(305,190,l),
(291,204,l),
(269,173,l),
(283,159,l)
);
},
{
closed = 1;
nodes = (
(425,165,l),
(295,190,l),
(273,168,l),
(370,98,l)
);
},
{
closed = 1;
nodes = (
(178,441,l),
(25,463,l),
(19,446,l),
(172,424,l)
);
},
{
closed = 1;
nodes = (
(435,165,l),
(421,179,l),
(351,103,l),
(365,89,l)
);
},
{
closed = 1;
nodes = (
(235,190,l),
(235,403,l),
(215,403,l),
(215,190,l)
);
},
{
closed = 1;
nodes = (
(473,140,l),
(459,154,l),
(344,14,l),
(358,0,l)
);
},
{
closed = 1;
nodes = (
(426,177,l),
(291,204,l),
(285,188,l),
(420,161,l)
);
},
{
closed = 1;
nodes = (
(235,407,l),
(185,437,l),
(179,421,l),
(229,391,l)
);
},
{
closed = 1;
nodes = (
(305,190,l),
(305,405,l),
(285,405,l),
(285,190,l)
);
},
{
closed = 1;
nodes = (
(159,586,l),
(145,600,l),
(5,460,l),
(19,446,l)
);
},
{
closed = 1;
nodes = (
(260,518,l),
(145,592,l),
(15,460,l),
(175,434,l)
);
},
{
closed = 1;
nodes = (
(264,512,l),
(260,526,l),
(165,435,l),
(179,421,l)
);
},
{
closed = 1;
nodes = (
(463,158,l),
(432,180,l),
(422,158,l),
(453,136,l)
);
},
{
closed = 1;
nodes = (
(261,422,l),
(247,436,l),
(215,405,l),
(229,391,l)
);
},
{
closed = 1;
nodes = (
(273,418,l),
(273,436,l),
(255,436,l),
(255,418,l)
);
},
{
closed = 1;
nodes = (
(260,428,l),
(272,520,l),
(257,510,l),
(245,418,l)
);
},
{
closed = 1;
nodes = (
(305,405,l),
(283,436,l),
(269,422,l),
(291,391,l)
);
},
{
closed = 1;
nodes = (
(435,165,l),
(435,445,l),
(415,445,l),
(415,165,l)
);
},
{
closed = 1;
nodes = (
(273,515,l),
(161,586,l),
(144,580,l),
(256,509,l)
);
},
{
closed = 1;
nodes = (
(375,510,l),
(360,520,l),
(258,428,l),
(273,418,l)
);
},
{
closed = 1;
nodes = (
(421,431,l),
(415,447,l),
(285,407,l),
(291,391,l)
);
},
{
closed = 1;
nodes = (
(367,508,l),
(367,526,l),
(260,526,l),
(260,508,l)
);
},
{
closed = 1;
nodes = (
(425,445,l),
(370,518,l),
(273,428,l),
(295,405,l)
);
},
{
closed = 1;
nodes = (
(370,518,l),
(341,592,l),
(145,592,l),
(260,518,l)
);
},
{
closed = 1;
nodes = (
(473,140,l),
(475,460,l),
(455,460,l),
(453,140,l)
);
},
{
closed = 1;
nodes = (
(435,445,l),
(365,526,l),
(351,512,l),
(421,431,l)
);
},
{
closed = 1;
nodes = (
(345,582,l),
(345,600,l),
(145,600,l),
(145,582,l)
);
},
{
closed = 1;
nodes = (
(346,580,l),
(329,586,l),
(357,515,l),
(374,509,l)
);
},
{
closed = 1;
nodes = (
(463,444,l),
(453,465,l),
(420,453,l),
(430,432,l)
);
},
{
closed = 1;
nodes = (
(475,460,l),
(345,600,l),
(331,586,l),
(461,446,l)
);
}
);
width = 480;
},
{
associatedMasterId = m004;
layerId = "28945B42-7E87-48DE-9F3E-D9D61C4EE9C0";
name = "15. Sept. 22, 17:44";
shapes = (
{
closed = 1;
nodes = (
(47,180,l),
(47,430,l),
(30,460,l),
(30,140,l)
);
},
{
closed = 1;
nodes = (
(40,137,l),
(40,463,l),
(20,463,l),
(20,137,l)
);
},
{
closed = 1;
nodes = (
(57,176,l),
(57,439,l),
(37,439,l),
(37,176,l)
);
},
{
closed = 1;
nodes = (
(145,191,l),
(145,403,l),
(125,403,l),
(125,191,l)
);
},
{
closed = 1;
nodes = (
(154,432,l),
(112,521,l),
(99,511,l),
(139,421,l)
);
},
{
closed = 1;
nodes = (
(155,423,l),
(138,436,l),
(125,403,l),
(142,390,l)
);
},
{
closed = 1;
nodes = (
(168,418,l),
(168,436,l),
(138,436,l),
(138,418,l)
);
},
{
closed = 1;
nodes = (
(181,403,l),
(168,436,l),
(151,423,l),
(164,390,l)
);
},
{
closed = 1;
nodes = (
(181,191,l),
(181,403,l),
(161,403,l),
(161,191,l)
);
},
{
closed = 1;
nodes = (
(125,191,l),
(138,158,l),
(155,171,l),
(142,204,l)
);
},
{
closed = 1;
nodes = (
(138,158,l),
(168,158,l),
(168,176,l),
(138,176,l)
);
},
{
closed = 1;
nodes = (
(151,171,l),
(168,158,l),
(181,191,l),
(164,204,l)
);
},
{
closed = 1;
nodes = (
(397,463,l),
(377,463,l),
(377,137,l),
(397,137,l)
);
},
{
closed = 1;
nodes = (
(240,439,l),
(220,429,l),
(220,176,l),
(240,176,l)
);
},
{
closed = 1;
nodes = (
(201,88,l),
(201,106,l),
(95,106,l),
(95,88,l)
);
},
{
closed = 1;
nodes = (
(191,504,l),
(191,522,l),
(105,522,l),
(105,504,l)
);
},
{
closed = 1;
nodes = (
(287,0,l),
(287,18,l),
(119,18,l),
(119,0,l)
);
},
{
closed = 1;
nodes = (
(277,582,l),
(277,600,l),
(119,600,l),
(119,582,l)
);
},
{
closed = 1;
nodes = (
(201,511,l),
(188,521,l),
(149,432,l),
(164,421,l)
);
},
{
closed = 1;
nodes = (
(89,101,l),
(102,91,l),
(151,170,l),
(136,181,l)
);
},
{
closed = 1;
nodes = (
(149,160,l),
(188,91,l),
(201,101,l),
(164,171,l)
);
},
{
closed = 1;
nodes = (
(136,190,l),
(132,206,l),
(42,184,l),
(47,168,l)
);
},
{
closed = 1;
nodes = (
(40,430,l),
(136,393,l),
(136,411,l),
(44,445,l)
);
},
{
closed = 1;
nodes = (
(170,414,l),
(170,396,l),
(226,426,l),
(207,440,l)
);
},
{
closed = 1;
nodes = (
(292,583,l),
(279,593,l),
(182,512,l),
(195,503,l)
);
},
{
closed = 1;
nodes = (
(117,512,l),
(130,593,l),
(117,583,l),
(104,503,l)
);
},
{
closed = 1;
nodes = (
(187,94,l),
(284,13,l),
(297,23,l),
(200,103,l)
);
},
{
closed = 1;
nodes = (
(117,23,l),
(130,13,l),
(103,94,l),
(90,103,l)
);
},
{
closed = 1;
nodes = (
(397,137,l),
(387,150,l),
(277,13,l),
(287,0,l)
);
},
{
closed = 1;
nodes = (
(129,13,l),
(30,150,l),
(20,137,l),
(119,0,l)
);
},
{
closed = 1;
nodes = (
(106,102,l),
(47,189,l),
(37,176,l),
(96,89,l)
);
},
{
closed = 1;
nodes = (
(223,184,l),
(173,206,l),
(169,190,l),
(218,168,l)
);
},
{
closed = 1;
nodes = (
(240,176,l),
(230,189,l),
(187,102,l),
(197,89,l)
);
},
{
closed = 1;
nodes = (
(393,154,l),
(223,186,l),
(219,170,l),
(388,138,l)
);
},
{
closed = 1;
nodes = (
(55,170,l),
(51,186,l),
(21,154,l),
(26,138,l)
);
},
{
closed = 1;
nodes = (
(219,442,l),
(223,426,l),
(393,448,l),
(388,464,l)
);
},
{
closed = 1;
nodes = (
(21,458,l),
(51,426,l),
(55,442,l),
(36,471,l)
);
},
{
closed = 1;
nodes = (
(267,587,l),
(387,450,l),
(397,463,l),
(277,600,l)
);
},
{
closed = 1;
nodes = (
(20,463,l),
(30,450,l),
(129,587,l),
(119,600,l)
);
},
{
closed = 1;
nodes = (
(41,439,l),
(51,426,l),
(110,513,l),
(100,526,l)
);
},
{
closed = 1;
nodes = (
(183,507,l),
(230,421,l),
(240,434,l),
(193,520,l)
);
},
{
closed = 1;
nodes = (
(50,176,l),
(26,151,l),
(126,7,l),
(101,102,l)
);
},
{
closed = 1;
nodes = (
(194,103,l),
(155,167,l),
(136,167,l),
(97,101,l)
);
},
{
closed = 1;
nodes = (
(178,199,l),
(164,166,l),
(199,95,l),
(230,176,l)
);
},
{
closed = 1;
nodes = (
(173,197,l),
(232,173,l),
(226,437,l),
(174,406,l)
);
},
{
closed = 1;
nodes = (
(167,400,l),
(232,440,l),
(194,512,l),
(158,431,l)
);
},
{
closed = 1;
nodes = (
(116,587,l),
(115,508,l),
(187,515,l),
(283,586,l)
);
},
{
closed = 1;
nodes = (
(37,467,l),
(50,435,l),
(110,518,l),
(124,590,l)
);
}
);
width = 417;
}
);
metricLeft = "=5";
metricRight = "=5";
unicode = 79;
},
{
color = 1;
glyphname = P;
lastChange = "2022-10-20 14:57:24 +0000";
layers = (
{
backgroundImage = {
angle = -0.5;
imagePath = "/Lehre/_22_23_WS/1 Basis/_Planung : Ideen/1 RRK 3D/_Source_images/P.tif";
pos = (-38,-27);
scale = (2.585,2.585);
};
layerId = m01;
shapes = (
{
closed = 1;
nodes = (
(5,0,l),
(25,0,l),
(25,599,l),
(5,599,l)
);
},
{
closed = 1;
nodes = (
(222,0,l),
(242,0,l),
(242,219,l),
(222,219,l)
);
},
{
closed = 1;
nodes = (
(10,20,l),
(9,0,l),
(235,0,l),
(235,20,l)
);
},
{
closed = 1;
nodes = (
(222,238,l),
(222,218,l),
(406,218,l),
(406,238,l)
);
},
{
closed = 1;
nodes = (
(5,600,l),
(5,580,l),
(404,580,l),
(404,600,l)
);
},
{
closed = 1;
nodes = (
(221,365,l),
(240,365,l),
(240,446,l),
(221,446,l)
);
},
{
closed = 1;
nodes = (
(426,356,l),
(445,356,l),
(445,459,l),
(426,459,l)
);
},
{
closed = 1;
nodes = (
(130,112,l),
(117,125,l),
(5,13,l),
(18,0,l)
);
},
{
closed = 1;
nodes = (
(242,13,l),
(133,125,l),
(120,112,l),
(232,0,l)
);
},
{
closed = 1;
nodes = (
(135,110,l),
(135,505,l),
(115,508,l),
(115,110,l)
);
},
{
closed = 1;
nodes = (
(237,450,l),
(138,504,l),
(120,492,l),
(234,430,l)
);
},
{
closed = 1;
nodes = (
(245,230,l),
(138,308,l),
(129,288,l),
(232,212,l)
);
},
{
closed = 1;
nodes = (
(351,499,l),
(403,579,l),
(394,599,l),
(329,500,l)
);
},
{
closed = 1;
nodes = (
(436,446,l),
(443,460,l),
(349,514,l),
(332,505,l)
);
},
{
closed = 1;
nodes = (
(553,487,l),
(563,501,l),
(404,600,l),
(390,586,l)
);
},
{
closed = 1;
nodes = (
(562,485,l),
(552,499,l),
(425,461,l),
(436,446,l)
);
},
{
closed = 1;
nodes = (
(543,317,l),
(563,317,l),
(563,501,l),
(543,501,l)
);
},
{
closed = 1;
nodes = (
(406,218,l),
(563,317,l),
(552,333,l),
(391,234,l)
);
},
{
closed = 1;
nodes = (
(422,356,l),
(555,313,l),
(555,332,l),
(432,370,l)
);
},
{
closed = 1;
nodes = (
(399,220,l),
(409,237,l),
(343,314,l),
(329,304,l)
);
},
{
closed = 1;
nodes = (
(341,295,l),
(438,352,l),
(431,367,l),
(326,307,l)
);
},
{
closed = 1;
nodes = (
(135,313,l),
(135,294,l),
(344,294,l),
(344,313,l)
);
},
{
closed = 1;
nodes = (
(119,515,l),
(119,496,l),
(352,496,l),
(352,515,l)
);
},
{
closed = 1;
nodes = (
(123,313,l),
(134,297,l),
(243,370,l),
(223,378,l)
);
},
{
closed = 1;
nodes = (
(331,303,l),
(345,311,l),
(311,376,l),
(294,375,l)
);
},
{
closed = 1;
nodes = (
(230,381,l),
(230,363,l),
(313,363,l),
(313,381,l)
);
},
{
closed = 1;
nodes = (
(222,451,l),
(222,432,l),
(296,432,l),
(298,451,l)
);
},
{
closed = 1;
nodes = (
(309,440,l),
(357,507,l),
(338,511,l),
(285,437,l)
);
},
{
closed = 1;
nodes = (
(326,394,l),
(345,394,l),
(345,418,l),
(326,419,l)
);
},
{
closed = 1;
nodes = (
(444,448,l),
(435,462,l),
(334,426,l),
(340,408,l)
);
},
{
closed = 1;
nodes = (
(321,387,l),
(434,352,l),
(442,368,l),
(340,401,l)
);
},
{
closed = 1;
nodes = (
(306,359,l),
(348,386,l),
(334,401,l),
(293,372,l)
);
},
{
closed = 1;
nodes = (
(328,414,l),
(347,423,l),
(305,450,l),
(290,436,l)
);
},
{
closed = 1;
nodes = (
(127,514,l),
(30,588,l),
(15,575,l),
(120,492,l)
);
}
);
width = 568;
},
{
layerId = m002;
width = 607;
},
{
layerId = m003;
width = 607;
},
{
layerId = m004;
width = 487;
},
{
layerId = m005;
width = 607;
}
);
unicode = 80;
},
{
color = 1;
glyphname = Q;
lastChange = "2022-10-20 14:49:31 +0000";
layers = (
{
layerId = m01;
shapes = (
{
closed = 1;
nodes = (
(189,14,l),
(19,164,l),
(5,150,l),
(175,0,l)
);
},
{
closed = 1;
nodes = (
(108,169,l),
(102,186,l),
(19,164,l),
(25,147,l)
);
},
{
closed = 1;
nodes = (
(215,98,l),
(200,107,l),
(172,18,l),
(187,9,l)
);
},
{
closed = 1;
nodes = (
(222,0,l),
(222,18,l),
(175,18,l),
(175,0,l)
);
},
{
closed = 1;
nodes = (
(214,103,l),
(109,189,l),
(95,175,l),
(200,89,l)
);
},
{
closed = 1;
nodes = (
(25,150,l),
(25,460,l),
(5,460,l),
(5,150,l)
);
},
{
closed = 1;
nodes = (
(235,188,l),
(229,204,l),
(104,187,l),
(110,171,l)
);
},
{
closed = 1;
nodes = (
(330,89,l),
(330,107,l),
(200,107,l),
(200,89,l)
);
},
{
closed = 1;
nodes = (
(260,167,l),
(247,177,l),
(197,103,l),
(210,93,l)
);
},
{
closed = 1;
nodes = (
(371,18,l),
(330,107,l),
(315,98,l),
(363,-3,l)
);
},
{
closed = 1;
nodes = (
(115,175,l),
(115,435,l),
(95,435,l),
(95,175,l)
);
},
{
closed = 1;
nodes = (
(261,173,l),
(229,204,l),
(215,190,l),
(247,159,l)
);
},
{
closed = 1;
nodes = (
(283,159,l),
(283,177,l),
(247,177,l),
(247,159,l)
);
},
{
closed = 1;
nodes = (
(333,103,l),
(283,177,l),
(270,167,l),
(320,93,l)
);
},
{
closed = 1;
nodes = (
(315,190,l),
(301,204,l),
(269,173,l),
(283,159,l)
);
},
{
closed = 1;
nodes = (
(108,441,l),
(25,463,l),
(19,446,l),
(102,424,l)
);
},
{
closed = 1;
nodes = (
(435,175,l),
(421,189,l),
(316,103,l),
(330,89,l)
);
},
{
closed = 1;
nodes = (
(235,190,l),
(235,405,l),
(215,405,l),
(215,190,l)
);
},
{
closed = 1;
nodes = (
(525,150,l),
(511,164,l),
(356,17,l),
(363,-3,l)
);
},
{
closed = 1;
nodes = (
(426,187,l),
(301,204,l),
(295,188,l),
(420,171,l)
);
},
{
closed = 1;
nodes = (
(235,407,l),
(115,437,l),
(109,421,l),
(229,391,l)
);
},
{
closed = 1;
nodes = (
(315,190,l),
(315,405,l),
(295,405,l),
(295,190,l)
);
},
{
closed = 1;
nodes = (
(169,586,l),
(155,600,l),
(5,460,l),
(19,446,l)
);
},
{
closed = 1;
nodes = (
(214,512,l),
(200,526,l),
(95,435,l),
(109,421,l)
);
},
{
closed = 1;
nodes = (
(511,164,l),
(428,186,l),
(422,169,l),
(505,147,l)
);
},
{
closed = 1;
nodes = (
(261,422,l),
(247,436,l),
(215,405,l),
(229,391,l)
);
},
{
closed = 1;
nodes = (
(283,418,l),
(283,436,l),
(247,436,l),
(247,418,l)
);
},
{
closed = 1;
nodes = (
(262,428,l),
(210,520,l),
(195,510,l),
(247,418,l)
);
},
{
closed = 1;
nodes = (
(315,405,l),
(283,436,l),
(269,422,l),
(301,391,l)
);
},
{
closed = 1;
nodes = (
(435,175,l),
(435,435,l),
(415,435,l),
(415,175,l)
);
},
{
closed = 1;
nodes = (
(213,515,l),
(171,586,l),
(154,580,l),
(196,509,l)
);
},
{
closed = 1;
nodes = (
(335,510,l),
(320,520,l),
(268,428,l),
(283,418,l)
);
},
{
closed = 1;
nodes = (
(421,421,l),
(415,437,l),
(295,407,l),
(301,391,l)
);
},
{
closed = 1;
nodes = (
(330,508,l),
(330,526,l),
(200,526,l),
(200,508,l)
);
},
{
closed = 1;
nodes = (
(525,150,l),
(525,460,l),
(505,460,l),
(505,150,l)
);
},
{
closed = 1;
nodes = (
(435,435,l),
(330,526,l),
(316,512,l),
(421,421,l)
);
},
{
closed = 1;
nodes = (
(375,582,l),
(375,600,l),
(155,600,l),
(155,582,l)
);
},
{
closed = 1;
nodes = (
(376,580,l),
(359,586,l),
(317,515,l),
(334,509,l)
);
},
{
closed = 1;
nodes = (
(511,446,l),
(505,463,l),
(422,441,l),
(428,424,l)
);
},
{
closed = 1;
nodes = (
(525,460,l),
(375,600,l),
(361,586,l),
(511,446,l)
);
},
{
closed = 1;
nodes = (
(326,94,l),
(312,102,l),
(207,10,l),
(221,2,l)
);
},
{
closed = 1;
nodes = (
(400,-80,l),
(400,-62,l),
(300,-62,l),
(300,-80,l)
);
},
{
closed = 1;
nodes = (
(405,-80,l),
(405,41,l),
(385,41,l),
(385,-80,l)
);
},
{
closed = 1;
nodes = (
(315,-69,l),
(227,16,l),
(211,6,l),
(300,-80,l)
);
},
{
closed = 1;
nodes = (
(404,-67,l),
(299,31,l),
(288,17,l),
(391,-78,l)
);
},
{
closed = 1;
nodes = (
(301,10,l),
(302,27,l),
(226,17,l),
(225,1,l)
);
},
{
closed = 1;
nodes = (
(306,10,l),
(332,97,l),
(316,96,l),
(287,9,l)
);
}
);
width = 530;
},
{
layerId = m002;
width = 600;
},
{
layerId = m003;
width = 600;
},
{
layerId = m004;
width = 600;
},
{
layerId = m005;
width = 600;
}
);
unicode = 81;
},
{
color = 1;
glyphname = R;
lastChange = "2022-10-20 14:57:34 +0000";
layers = (
{
backgroundImage = {
imagePath = "/Lehre/_22_23_WS/1 Basis/_Planung : Ideen/1 RRK 3D/_Source_images/R.tif";
pos = (-34,-18);
scale = (2.585,2.585);
};
layerId = m01;
shapes = (
{
closed = 1;
nodes = (
(255,0,l),
(255,20,l),
(5,20,l),
(5,0,l)
);
},
{
closed = 1;
nodes = (
(25,0,l),
(25,600,l),
(5,600,l),
(5,0,l)
);
},
{
closed = 1;
nodes = (
(255,0,l),
(255,228,l),
(235,228,l),
(235,0,l)
);
},
{
closed = 1;
nodes = (
(129,111,l),
(116,124,l),
(5,13,l),
(18,0,l)
);
},
{
closed = 1;
nodes = (
(255,13,l),
(129,111,l),
(115,97,l),
(242,0,l)
);
},
{
closed = 1;
nodes = (
(126,99,l),
(126,515,l),
(106,515,l),
(106,99,l)
);
},
{
closed = 1;
nodes = (
(340,7,l),
(257,232,l),
(239,227,l),
(320,0,l)
);
},
{
closed = 1;
nodes = (
(567,0,l),
(567,20,l),
(321,20,l),
(321,0,l)
);
},
{
closed = 1;
nodes = (
(584,0,l),
(461,279,l),
(441,274,l),
(563,0,l)
);
},
{
closed = 1;
nodes = (
(560,327,l),
(560,530,l),
(540,530,l),
(540,327,l)
);
},
{
closed = 1;
nodes = (
(560,327,l),
(550,343,l),
(446,280,l),
(456,265,l)
);
},
{
closed = 1;
nodes = (
(438,359,l),
(427,371,l),
(362,315,l),
(372,301,l)
);
},
{
closed = 1;
nodes = (
(379,301,l),
(379,321,l),
(110,321,l),
(110,301,l)
);
},
{
closed = 1;
nodes = (
(9,580,l),
(447,580,l),
(447,600,l),
(9,600,l)
);
},
{
closed = 1;
nodes = (
(106,500,l),
(368,500,l),
(368,520,l),
(106,520,l)
);
},
{
closed = 1;
nodes = (
(552,509,l),
(545,527,l),
(423,474,l),
(431,458,l)
);
},
{
closed = 1;
nodes = (
(449,585,l),
(436,598,l),
(361,517,l),
(377,507,l)
);
},
{
closed = 1;
nodes = (
(560,530,l),
(447,600,l),
(434,586,l),
(552,512,l)
);
},
{
closed = 1;
nodes = (
(434,473,l),
(369,522,l),
(360,508,l),
(426,458,l)
);
},
{
closed = 1;
nodes = (
(423,110,l),
(356,292,l),
(336,284,l),
(404,101,l)
);
},
{
closed = 1;
nodes = (
(379,506,l),
(364,519,l),
(303,446,l),
(317,434,l)
);
},
{
closed = 1;
nodes = (
(256,228,l),
(125,315,l),
(112,297,l),
(241,213,l)
);
},
{
closed = 1;
nodes = (
(382,304,l),
(371,318,l),
(241,228,l),
(252,212,l)
);
},
{
closed = 1;
nodes = (
(546,325,l),
(550,346,l),
(423,375,l),
(419,355,l)
);
},
{
closed = 1;
nodes = (
(451,264,l),
(459,281,l),
(380,318,l),
(372,302,l)
);
},
{
closed = 1;
nodes = (
(219,430,l),
(317,430,l),
(317,450,l),
(219,450,l)
);
},
{
closed = 1;
nodes = (
(219,450,l),
(219,359,l),
(239,359,l),
(239,450,l)
);
},
{
closed = 1;
nodes = (
(224,431,l),
(236,446,l),
(117,519,l),
(109,504,l)
);
},
{
closed = 1;
nodes = (
(219,359,l),
(317,359,l),
(317,379,l),
(219,379,l)
);
},
{
closed = 1;
nodes = (
(417,473,l),
(417,361,l),
(437,361,l),
(437,473,l)
);
},
{
closed = 1;
nodes = (
(325,428,l),
(325,382,l),
(345,382,l),
(345,428,l)
);
},
{
closed = 1;
nodes = (
(237,364,l),
(230,382,l),
(111,325,l),
(119,309,l)
);
},
{
closed = 1;
nodes = (
(317,359,l),
(343,378,l),
(330,392,l),
(305,373,l)
);
},
{
closed = 1;
nodes = (
(325,419,l),
(343,429,l),
(317,450,l),
(305,436,l)
);
},
{
closed = 1;
nodes = (
(320,17,l),
(337,9,l),
(419,116,l),
(405,126,l)
);
},
{
closed = 1;
nodes = (
(567,25,l),
(420,118,l),
(407,104,l),
(556,11,l)
);
},
{
closed = 1;
nodes = (
(371,303,l),
(382,314,l),
(313,376,l),
(301,366,l)
);
},
{
closed = 1;
nodes = (
(435,461,l),
(425,477,l),
(327,431,l),
(333,413,l)
);
},
{
closed = 1;
nodes = (
(328,377,l),
(423,354,l),
(431,372,l),
(337,394,l)
);
},
{
closed = 1;
nodes = (
(128,514,l),
(31,588,l),
(15,575,l),
(120,492,l)
);
}
);
width = 589;
},
{
layerId = m002;
width = 600;
},
{
layerId = m003;
width = 600;
},
{
layerId = m004;
width = 600;
},
{
layerId = m005;
width = 600;
}
);
unicode = 82;
},
{
color = 1;
glyphname = S;
lastChange = "2022-10-20 14:52:52 +0000";
layers = (
{
layerId = m01;
shapes = (
{
closed = 1;
nodes = (
(140,0,l),
(280,0,l),
(280,20,l),
(140,20,l)
);
},
{
closed = 1;
nodes = (
(323,152,l),
(323,240,l),
(303,240,l),
(303,152,l)
);
},
{
closed = 1;
nodes = (
(425,132,l),
(307,164,l),
(302,146,l),
(420,114,l)
);
},
{
closed = 1;
nodes = (
(289,10,l),
(246,101,l),
(229,93,l),
(273,2,l)
);
},
{
closed = 1;
nodes = (
(432,121,l),
(432,281,l),
(412,281,l),
(412,121,l)
);
},
{
closed = 1;
nodes = (
(412,407,l),
(412,488,l),
(392,488,l),
(392,407,l)
);
},
{
closed = 1;
nodes = (
(25,321,l),
(25,480,l),
(5,480,l),
(5,321,l)
);
},
{
closed = 1;
nodes = (
(25,98,l),
(25,199,l),
(5,199,l),
(5,98,l)
);
},
{
closed = 1;
nodes = (
(110,359,l),
(110,464,l),
(90,464,l),
(90,359,l)
);
},
{
closed = 1;
nodes = (
(221,402,l),
(221,444,l),
(201,444,l),
(201,402,l)
);
},
{
closed = 1;
nodes = (
(289,412,l),
(289,440,l),
(269,440,l),
(269,412,l)
);
},
{
closed = 1;
nodes = (
(173,140,l),
(204,140,l),
(204,160,l),
(173,160,l)
);
},
{
closed = 1;
nodes = (
(9,179,l),
(161,179,l),
(161,199,l),
(9,199,l)
);
},
{
closed = 1;
nodes = (
(150,580,l),
(281,580,l),
(281,600,l),
(150,600,l)
);
},
{
closed = 1;
nodes = (
(269,16,l),
(280,0,l),
(432,121,l),
(422,136,l)
);
},
{
closed = 1;
nodes = (
(5,98,l),
(140,0,l),
(150,15,l),
(15,113,l)
);
},
{
closed = 1;
nodes = (
(76,144,l),
(161,85,l),
(171,101,l),
(86,160,l)
);
},
{
closed = 1;
nodes = (
(96,144,l),
(96,199,l),
(76,199,l),
(76,144,l)
);
},
{
closed = 1;
nodes = (
(158,101,l),
(132,19,l),
(149,13,l),
(175,95,l)
);
},
{
closed = 1;
nodes = (
(228,205,l),
(15,336,l),
(5,321,l),
(218,190,l)
);
},
{
closed = 1;
nodes = (
(323,238,l),
(100,375,l),
(90,359,l),
(313,223,l)
);
},
{
closed = 1;
nodes = (
(432,281,l),
(211,417,l),
(201,401,l),
(422,266,l)
);
},
{
closed = 1;
nodes = (
(424,270,l),
(417,287,l),
(299,241,l),
(306,224,l)
);
},
{
closed = 1;
nodes = (
(222,400,l),
(216,416,l),
(102,373,l),
(108,356,l)
);
},
{
closed = 1;
nodes = (
(100,452,l),
(218,425,l),
(221,442,l),
(104,469,l)
);
},
{
closed = 1;
nodes = (
(403,480,l),
(396,496,l),
(276,442,l),
(283,426,l)
);
},
{
closed = 1;
nodes = (
(269,407,l),
(412,407,l),
(412,427,l),
(269,427,l)
);
},
{
closed = 1;
nodes = (
(231,100,l),
(242,84,l),
(324,149,l),
(314,164,l)
);
},
{
closed = 1;
nodes = (
(228,159,l),
(228,205,l),
(208,205,l),
(208,159,l)
);
},
{
closed = 1;
nodes = (
(161,164,l),
(161,198,l),
(141,198,l),
(141,164,l)
);
},
{
closed = 1;
nodes = (
(193,156,l),
(204,140,l),
(228,159,l),
(217,175,l)
);
},
{
closed = 1;
nodes = (
(141,164,l),
(175,139,l),
(186,155,l),
(152,179,l)
);
},
{
closed = 1;
nodes = (
(5,480,l),
(16,464,l),
(161,584,l),
(150,600,l)
);
},
{
closed = 1;
nodes = (
(90,464,l),
(100,449,l),
(199,530,l),
(189,545,l)
);
},
{
closed = 1;
nodes = (
(257,526,l),
(335,456,l),
(347,472,l),
(269,542,l)
);
},
{
closed = 1;
nodes = (
(229,442,l),
(258,442,l),
(258,462,l),
(229,462,l)
);
},
{
closed = 1;
nodes = (
(271,585,l),
(402,473,l),
(412,488,l),
(281,600,l)
);
},
{
closed = 1;
nodes = (
(189,525,l),
(263,525,l),
(263,545,l),
(189,545,l)
);
},
{
closed = 1;
nodes = (
(290,589,l),
(272,595,l),
(249,527,l),
(267,521,l)
);
},
{
closed = 1;
nodes = (
(268,442,l),
(268,525,l),
(248,525,l),
(248,442,l)
);
},
{
closed = 1;
nodes = (
(203,443,l),
(214,428,l),
(239,447,l),
(229,462,l)
);
},
{
closed = 1;
nodes = (
(250,447,l),
(280,425,l),
(291,440,l),
(260,462,l)
);
},
{
closed = 1;
nodes = (
(169,85,l),
(239,85,l),
(239,105,l),
(169,105,l)
);
},
{
closed = 1;
nodes = (
(239,442,l),
(199,538,l),
(182,531,l),
(219,442,l)
);
},
{
closed = 1;
nodes = (
(175,95,l),
(193,150,l),
(175,156,l),
(158,101,l)
);
},
{
closed = 1;
nodes = (
(209,156,l),
(191,150,l),
(229,93,l),
(246,101,l)
);
},
{
closed = 1;
nodes = (
(315,162,l),
(217,174,l),
(213,157,l),
(311,145,l)
);
},
{
closed = 1;
nodes = (
(315,227,l),
(308,243,l),
(212,205,l),
(219,189,l)
);
},
{
closed = 1;
nodes = (
(200,537,l),
(163,595,l),
(146,589,l),
(183,531,l)
);
},
{
closed = 1;
nodes = (
(10,465,l),
(99,451,l),
(102,468,l),
(14,482,l)
);
},
{
closed = 1;
nodes = (
(107,359,l),
(101,375,l),
(14,335,l),
(20,318,l)
);
}
);
width = 437;
},
{
layerId = m002;
width = 600;
},
{
layerId = m003;
width = 600;
},
{
layerId = m004;
width = 600;
},
{
layerId = m005;
width = 600;
}
);
unicode = 83;
},
{
color = 1;
glyphname = T;
lastChange = "2022-10-18 12:20:00 +0000";
layers = (
{
backgroundImage = {
imagePath = "../_Source_images/T.tif";
locked = 1;
pos = (-50,-13);
scale = (2.585,2.585);
};
layerId = m01;
shapes = (
{
closed = 1;
nodes = (
(270,112,l),
(257,125,l),
(145,13,l),
(158,0,l)
);
},
{
closed = 1;
nodes = (
(385,0,l),
(385,20,l),
(145,20,l),
(145,0,l)
);
},
{
closed = 1;
nodes = (
(165,0,l),
(165,380,l),
(145,380,l),
(145,0,l)
);
},
{
closed = 1;
nodes = (
(385,13,l),
(273,125,l),
(260,112,l),
(372,0,l)
);
},
{
closed = 1;
nodes = (
(154,366,l),
(154,386,l),
(6,386,l),
(6,366,l)
);
},
{
closed = 1;
nodes = (
(107,479,l),
(94,493,l),
(11,384,l),
(25,372,l)
);
},
{
closed = 1;
nodes = (
(25,366,l),
(25,600,l),
(5,600,l),
(5,366,l)
);
},
{
closed = 1;
nodes = (
(275,110,l),
(275,481,l),
(255,481,l),
(255,110,l)
);
},
{
closed = 1;
nodes = (
(385,0,l),
(385,380,l),
(365,380,l),
(365,0,l)
);
},
{
closed = 1;
nodes = (
(107,493,l),
(25,600,l),
(11,588,l),
(94,479,l)
);
},
{
closed = 1;
nodes = (
(270,477,l),
(257,490,l),
(145,378,l),
(158,365,l)
);
},
{
closed = 1;
nodes = (
(384,378,l),
(272,490,l),
(259,477,l),
(371,365,l)
);
},
{
closed = 1;
nodes = (
(437,477,l),
(437,497,l),
(93,497,l),
(93,477,l)
);
},
{
closed = 1;
nodes = (
(524,366,l),
(524,386,l),
(376,386,l),
(376,366,l)
);
},
{
closed = 1;
nodes = (
(524,580,l),
(524,600,l),
(6,600,l),
(6,580,l)
);
},
{
closed = 1;
nodes = (
(521,384,l),
(438,493,l),
(425,479,l),
(507,372,l)
);
},
{
closed = 1;
nodes = (
(525,366,l),
(525,600,l),
(505,600,l),
(505,366,l)
);
},
{
closed = 1;
nodes = (
(521,588,l),
(507,600,l),
(425,493,l),
(438,479,l)
);
}
);
width = 530;
},
{
layerId = m002;
shapes = (
{
closed = 1;
nodes = (
(270,212,l),
(257,225,l),
(145,63,l),
(158,50,l)
);
},
{
closed = 1;
nodes = (
(385,50,l),
(385,70,l),
(145,70,l),
(145,50,l)
);
},
{
closed = 1;
nodes = (
(165,50,l),
(165,330,l),
(145,330,l),
(145,50,l)
);
},
{
closed = 1;
nodes = (
(385,63,l),
(273,225,l),
(260,212,l),
(372,50,l)
);
},
{
closed = 1;
nodes = (
(154,316,l),
(154,336,l),
(6,336,l),
(6,316,l)
);
},
{
closed = 1;
nodes = (
(107,489,l),
(94,503,l),
(11,334,l),
(25,322,l)
);
},
{
closed = 1;
nodes = (
(25,316,l),
(25,550,l),
(5,550,l),
(5,316,l)
);
},
{
closed = 1;
nodes = (
(275,210,l),
(275,491,l),
(255,491,l),
(255,210,l)
);
},
{
closed = 1;
nodes = (
(385,50,l),
(385,330,l),
(365,330,l),
(365,50,l)
);
},
{
closed = 1;
nodes = (
(107,503,l),
(25,550,l),
(11,538,l),
(94,489,l)
);
},
{
closed = 1;
nodes = (
(270,487,l),
(257,500,l),
(145,328,l),
(158,315,l)
);
},
{
closed = 1;
nodes = (
(384,328,l),
(272,500,l),
(259,487,l),
(371,315,l)
);
},
{
closed = 1;
nodes = (
(437,487,l),
(437,507,l),
(93,507,l),
(93,487,l)
);
},
{
closed = 1;
nodes = (
(524,316,l),
(524,336,l),
(376,336,l),
(376,316,l)
);
},
{
closed = 1;
nodes = (
(524,530,l),
(524,550,l),
(6,550,l),
(6,530,l)
);
},
{
closed = 1;
nodes = (
(521,334,l),
(438,503,l),
(425,489,l),
(507,322,l)
);
},
{
closed = 1;
nodes = (
(525,316,l),
(525,550,l),
(505,550,l),
(505,316,l)
);
},
{
closed = 1;
nodes = (
(521,538,l),
(507,550,l),
(425,503,l),
(438,489,l)
);
}
);
width = 530;
},
{
layerId = m003;
shapes = (
{
closed = 1;
nodes = (
(270,112,l),
(257,125,l),
(145,13,l),
(158,0,l)
);
},
{
closed = 1;
nodes = (
(385,0,l),
(385,20,l),
(145,20,l),
(145,0,l)
);
},
{
closed = 1;
nodes = (
(165,0,l),
(165,380,l),
(145,380,l),
(145,0,l)
);
},
{
closed = 1;
nodes = (
(385,13,l),
(273,125,l),
(260,112,l),
(372,0,l)
);
},
{
closed = 1;
nodes = (
(154,366,l),
(154,386,l),
(6,386,l),
(6,366,l)
);
},
{
closed = 1;
nodes = (
(107,479,l),
(94,493,l),
(11,384,l),
(25,372,l)
);
},
{
closed = 1;
nodes = (
(25,366,l),
(25,600,l),
(5,600,l),
(5,366,l)
);
},
{
closed = 1;
nodes = (
(275,110,l),
(275,481,l),
(255,481,l),
(255,110,l)
);
},
{
closed = 1;
nodes = (
(385,0,l),
(385,380,l),
(365,380,l),
(365,0,l)
);
},
{
closed = 1;
nodes = (
(107,493,l),
(25,600,l),
(11,588,l),
(94,479,l)
);
},
{
closed = 1;
nodes = (
(270,477,l),
(257,490,l),
(145,378,l),
(158,365,l)
);
},
{
closed = 1;
nodes = (
(384,378,l),
(272,490,l),
(259,477,l),
(371,365,l)
);
},
{
closed = 1;
nodes = (
(437,477,l),
(437,497,l),
(93,497,l),
(93,477,l)
);
},
{
closed = 1;
nodes = (
(524,366,l),
(524,386,l),
(376,386,l),
(376,366,l)
);
},
{
closed = 1;
nodes = (
(524,580,l),
(524,600,l),
(6,600,l),
(6,580,l)
);
},
{
closed = 1;
nodes = (
(521,384,l),
(438,493,l),
(425,479,l),
(507,372,l)
);
},
{
closed = 1;
nodes = (
(525,366,l),
(525,600,l),
(505,600,l),
(505,366,l)
);
},
{
closed = 1;
nodes = (
(521,588,l),
(507,600,l),
(425,493,l),
(438,479,l)
);
}
);
width = 600;
},
{
layerId = m004;
shapes = (
{
closed = 1;
nodes = (
(270,112,l),
(257,125,l),
(145,13,l),
(158,0,l)
);
},
{
closed = 1;
nodes = (
(385,0,l),
(385,20,l),
(145,20,l),
(145,0,l)
);
},
{
closed = 1;
nodes = (
(165,0,l),
(165,380,l),
(145,380,l),
(145,0,l)
);
},
{
closed = 1;
nodes = (
(385,13,l),
(273,125,l),
(260,112,l),
(372,0,l)
);
},
{
closed = 1;
nodes = (
(154,366,l),
(154,386,l),
(6,386,l),
(6,366,l)
);
},
{
closed = 1;
nodes = (
(107,479,l),
(94,493,l),
(11,384,l),
(25,372,l)
);
},
{
closed = 1;
nodes = (
(25,366,l),
(25,600,l),
(5,600,l),
(5,366,l)
);
},
{
closed = 1;
nodes = (
(275,110,l),
(275,481,l),
(255,481,l),
(255,110,l)
);
},
{
closed = 1;
nodes = (
(385,0,l),
(385,380,l),
(365,380,l),
(365,0,l)
);
},
{
closed = 1;
nodes = (
(107,493,l),
(25,600,l),
(11,588,l),
(94,479,l)
);
},
{
closed = 1;
nodes = (
(270,477,l),
(257,490,l),
(145,378,l),
(158,365,l)
);
},
{
closed = 1;
nodes = (
(384,378,l),
(272,490,l),
(259,477,l),
(371,365,l)
);
},
{
closed = 1;
nodes = (
(437,477,l),
(437,497,l),
(93,497,l),
(93,477,l)
);
},
{
closed = 1;
nodes = (
(524,366,l),
(524,386,l),
(376,386,l),
(376,366,l)
);
},
{
closed = 1;
nodes = (
(524,580,l),
(524,600,l),
(6,600,l),
(6,580,l)
);
},
{
closed = 1;
nodes = (
(521,384,l),
(438,493,l),
(425,479,l),
(507,372,l)
);
},
{
closed = 1;
nodes = (
(525,366,l),
(525,600,l),
(505,600,l),
(505,366,l)
);
},
{
closed = 1;
nodes = (
(521,588,l),
(507,600,l),
(425,493,l),
(438,479,l)
);
}
);
width = 600;
},
{
layerId = m005;
shapes = (
{
closed = 1;
nodes = (
(270,112,l),
(257,125,l),
(145,13,l),
(158,0,l)
);
},
{
closed = 1;
nodes = (
(385,0,l),
(385,20,l),
(145,20,l),
(145,0,l)
);
},
{
closed = 1;
nodes = (
(165,0,l),
(165,380,l),
(145,380,l),
(145,0,l)
);
},
{
closed = 1;
nodes = (
(385,13,l),
(273,125,l),
(260,112,l),
(372,0,l)
);
},
{
closed = 1;
nodes = (
(154,366,l),
(154,386,l),
(6,386,l),
(6,366,l)
);
},
{
closed = 1;
nodes = (
(107,479,l),
(94,493,l),
(11,384,l),
(25,372,l)
);
},
{
closed = 1;
nodes = (
(25,366,l),
(25,600,l),
(5,600,l),
(5,366,l)
);
},
{
closed = 1;
nodes = (
(275,110,l),
(275,481,l),
(255,481,l),
(255,110,l)
);
},
{
closed = 1;
nodes = (
(385,0,l),
(385,380,l),
(365,380,l),
(365,0,l)
);
},
{
closed = 1;
nodes = (
(107,493,l),
(25,600,l),
(11,588,l),
(94,479,l)
);
},
{
closed = 1;
nodes = (
(270,477,l),
(257,490,l),
(145,378,l),
(158,365,l)
);
},
{
closed = 1;
nodes = (
(384,378,l),
(272,490,l),
(259,477,l),
(371,365,l)
);
},
{
closed = 1;
nodes = (
(437,477,l),
(437,497,l),
(93,497,l),
(93,477,l)
);
},
{
closed = 1;
nodes = (
(524,366,l),
(524,386,l),
(376,386,l),
(376,366,l)
);
},
{
closed = 1;
nodes = (
(524,580,l),
(524,600,l),
(6,600,l),
(6,580,l)
);
},
{
closed = 1;
nodes = (
(521,384,l),
(438,493,l),
(425,479,l),
(507,372,l)
);
},
{
closed = 1;
nodes = (
(525,366,l),
(525,600,l),
(505,600,l),
(505,366,l)
);
},
{
closed = 1;
nodes = (
(521,588,l),
(507,600,l),
(425,493,l),
(438,479,l)
);
}
);
width = 600;
}
);
unicode = 84;
},
{
color = 1;
glyphname = U;
lastChange = "2022-10-18 12:20:00 +0000";
layers = (
{
layerId = m01;
shapes = (
{
closed = 1;
nodes = (
(5,173,l),
(25,173,l),
(25,600,l),
(5,600,l)
);
},
{
closed = 1;
nodes = (
(225,203,l),
(245,203,l),
(245,600,l),
(225,600,l)
);
},
{
closed = 1;
nodes = (
(335,203,l),
(355,203,l),
(355,600,l),
(335,600,l)
);
},
{
closed = 1;
nodes = (
(495,174,l),
(515,174,l),
(515,600,l),
(495,600,l)
);
},
{
closed = 1;
nodes = (
(5,580,l),
(245,580,l),
(245,600,l),
(5,600,l)
);
},
{
closed = 1;
nodes = (
(335,580,l),
(515,580,l),
(515,600,l),
(335,600,l)
);
},
{
closed = 1;
nodes = (
(170,0,l),
(350,0,l),
(350,20,l),
(170,20,l)
);
},
{
closed = 1;
nodes = (
(170,0,l),
(185,13,l),
(20,188,l),
(5,174,l)
);
},
{
closed = 1;
nodes = (
(350,0,l),
(515,174,l),
(500,188,l),
(335,13,l)
);
},
{
closed = 1;
nodes = (
(105,174,l),
(125,174,l),
(125,500,l),
(105,500,l)
);
},
{
closed = 1;
nodes = (
(405,194,l),
(425,194,l),
(425,530,l),
(405,530,l)
);
},
{
closed = 1;
nodes = (
(105,500,l),
(117,484,l),
(239,579,l),
(227,595,l)
);
},
{
closed = 1;
nodes = (
(126,500,l),
(21,597,l),
(9,581,l),
(114,484,l)
);
},
{
closed = 1;
nodes = (
(263,165,l),
(320,165,l),
(320,185,l),
(263,185,l)
);
},
{
closed = 1;
nodes = (
(221,83,l),
(341,83,l),
(341,103,l),
(221,103,l)
);
},
{
closed = 1;
nodes = (
(407,533,l),
(419,517,l),
(511,582,l),
(499,598,l)
);
},
{
closed = 1;
nodes = (
(426,530,l),
(351,597,l),
(339,581,l),
(414,514,l)
);
},
{
closed = 1;
nodes = (
(6,173,l),
(125,173,l),
(125,193,l),
(6,193,l)
);
},
{
closed = 1;
nodes = (
(159,27,l),
(175,16,l),
(234,100,l),
(217,111,l)
);
},
{
closed = 1;
nodes = (
(217,111,l),
(233,100,l),
(283,173,l),
(266,184,l)
);
},
{
closed = 1;
nodes = (
(369,22,l),
(340,118,l),
(321,113,l),
(350,17,l)
);
},
{
closed = 1;
nodes = (
(345,102,l),
(320,185,l),
(300,180,l),
(326,96,l)
);
},
{
closed = 1;
nodes = (
(106,183,l),
(209,82,l),
(225,95,l),
(121,196,l)
);
},
{
closed = 1;
nodes = (
(413,183,l),
(495,162,l),
(500,181,l),
(418,202,l)
);
},
{
closed = 1;
nodes = (
(225,203,l),
(256,165,l),
(272,177,l),
(241,215,l)
);
},
{
closed = 1;
nodes = (
(432,192,l),
(417,205,l),
(332,100,l),
(348,87,l)
);
},
{
closed = 1;
nodes = (
(355,203,l),
(339,215,l),
(306,170,l),
(322,158,l)
);
},
{
closed = 1;
nodes = (
(246,199,l),
(241,218,l),
(109,193,l),
(114,174,l)
);
},
{
closed = 1;
nodes = (
(341,202,l),
(414,183,l),
(419,202,l),
(346,221,l)
);
}
);
width = 520;
},
{
layerId = m002;
width = 600;
},
{
layerId = m003;
width = 600;
},
{
layerId = m004;
width = 600;
},
{
layerId = m005;
width = 600;
}
);
unicode = 85;
},
{
color = 1;
glyphname = V;
lastChange = "2022-10-18 12:20:00 +0000";
layers = (
{
layerId = m01;
shapes = (
{
closed = 1;
nodes = (
(200,5,l),
(26,600,l),
(5,600,l),
(180,0,l)
);
},
{
closed = 1;
nodes = (
(442,0,l),
(442,20,l),
(180,20,l),
(180,0,l)
);
},
{
closed = 1;
nodes = (
(200,5,l),
(30,586,l),
(11,580,l),
(180,0,l)
);
},
{
closed = 1;
nodes = (
(602,600,l),
(582,600,l),
(422,5,l),
(442,0,l)
);
},
{
closed = 1;
nodes = (
(252,580,l),
(252,600,l),
(11,600,l),
(11,580,l)
);
},
{
closed = 1;
nodes = (
(453,594,l),
(434,600,l),
(301,111,l),
(321,106,l)
);
},
{
closed = 1;
nodes = (
(595,580,l),
(595,600,l),
(434,600,l),
(434,580,l)
);
},
{
closed = 1;
nodes = (
(500,531,l),
(481,537,l),
(353,78,l),
(370,64,l)
);
},
{
closed = 1;
nodes = (
(596,584,l),
(585,599,l),
(479,529,l),
(490,514,l)
);
},
{
closed = 1;
nodes = (
(253,582,l),
(242,597,l),
(166,528,l),
(177,513,l)
);
},
{
closed = 1;
nodes = (
(318,106,l),
(182,529,l),
(159,529,l),
(298,97,l)
);
},
{
closed = 1;
nodes = (
(358,257,l),
(252,600,l),
(233,597,l),
(341,244,l)
);
},
{
closed = 1;
nodes = (
(448,23,l),
(312,123,l),
(301,104,l),
(437,5,l)
);
},
{
closed = 1;
nodes = (
(500,530,l),
(449,593,l),
(431,584,l),
(485,515,l)
);
},
{
closed = 1;
nodes = (
(177,527,l),
(21,597,l),
(10,582,l),
(166,512,l)
);
},
{
closed = 1;
nodes = (
(324,104,l),
(313,123,l),
(177,23,l),
(188,5,l)
);
}
);
width = 607;
},
{
layerId = m002;
width = 600;
},
{
layerId = m003;
width = 600;
},
{
layerId = m004;
width = 600;
},
{
layerId = m005;
width = 600;
}
);
unicode = 86;
},
{
color = 1;
glyphname = W;
lastChange = "2022-10-20 15:05:03 +0000";
layers = (
{
layerId = m01;
shapes = (
{
closed = 1;
nodes = (
(201,0,l),
(25,600,l),
(5,600,l),
(181,0,l)
);
},
{
closed = 1;
nodes = (
(254,580,l),
(249,600,l),
(5,600,l),
(11,580,l)
);
},
{
closed = 1;
nodes = (
(338,305,l),
(249,600,l),
(231,600,l),
(326,283,l)
);
},
{
closed = 1;
nodes = (
(294,92,l),
(411,600,l),
(391,600,l),
(275,101,l)
);
},
{
closed = 1;
nodes = (
(395,0,l),
(395,20,l),
(181,20,l),
(181,0,l)
);
},
{
closed = 1;
nodes = (
(285,99,l),
(145,530,l),
(125,530,l),
(267,90,l)
);
},
{
closed = 1;
nodes = (
(514,450,l),
(500,478,l),
(374,0,l),
(394,0,l)
);
},
{
closed = 1;
nodes = (
(248,584,l),
(237,599,l),
(131,523,l),
(142,508,l)
);
},
{
closed = 1;
nodes = (
(287,95,l),
(276,110,l),
(176,29,l),
(187,14,l)
);
},
{
closed = 1;
nodes = (
(397,29,l),
(280,109,l),
(269,94,l),
(386,14,l)
);
},
{
closed = 1;
nodes = (
(560,0,l),
(470,304,l),
(457,281,l),
(542,0,l)
);
},
{
closed = 1;
nodes = (
(928,600,l),
(908,600,l),
(732,0,l),
(752,0,l)
);
},
{
closed = 1;
nodes = (
(750,0,l),
(750,20,l),
(546,20,l),
(546,0,l)
);
},
{
closed = 1;
nodes = (
(812,538,l),
(793,538,l),
(662,93,l),
(681,84,l)
);
},
{
closed = 1;
nodes = (
(751,22,l),
(679,101,l),
(665,87,l),
(736,9,l)
);
},
{
closed = 1;
nodes = (
(603,580,l),
(598,600,l),
(391,600,l),
(397,580,l)
);
},
{
closed = 1;
nodes = (
(686,321,l),
(606,600,l),
(588,600,l),
(677,289,l)
);
},
{
closed = 1;
nodes = (
(631,71,l),
(770,600,l),
(750,600,l),
(611,65,l)
);
},
{
closed = 1;
nodes = (
(627,73,l),
(503,530,l),
(483,530,l),
(610,65,l)
);
},
{
closed = 1;
nodes = (
(912,580,l),
(918,600,l),
(761,600,l),
(754,580,l)
);
},
{
closed = 1;
nodes = (
(606,580,l),
(595,595,l),
(489,523,l),
(500,508,l)
);
},
{
closed = 1;
nodes = (
(913,579,l),
(902,595,l),
(791,530,l),
(802,514,l)
);
},
{
closed = 1;
nodes = (
(152,521,l),
(36,597,l),
(25,582,l),
(141,506,l)
);
},
{
closed = 1;
nodes = (
(508,523,l),
(407,595,l),
(396,580,l),
(497,508,l)
);
},
{
closed = 1;
nodes = (
(808,530,l),
(766,597,l),
(755,581,l),
(797,514,l)
);
},
{
closed = 1;
nodes = (
(458,555,l),
(440,564,l),
(319,71,l),
(334,61,l)
);
},
{
closed = 1;
nodes = (
(670,100,l),
(537,28,l),
(547,12,l),
(678,81,l)
);
}
);
width = 933;
},
{
layerId = m002;
width = 600;
},
{
layerId = m003;
width = 600;
},
{
layerId = m004;
width = 600;
},
{
layerId = m005;
width = 600;
}
);
unicode = 87;
},
{
color = 1;
glyphname = X;
lastChange = "2022-10-18 12:20:00 +0000";
layers = (
{
layerId = m01;
shapes = (
{
closed = 1;
nodes = (
(329,496,l),
(283,600,l),
(269,586,l),
(315,482,l)
);
},
{
closed = 0;
nodes = (
(315,482,l),
(329,496,l)
);
},
{
closed = 1;
nodes = (
(584,0,l),
(408,345,l),
(394,331,l),
(562,0,l)
);
},
{
closed = 1;
nodes = (
(584,600,l),
(561,600,l),
(388,333,l),
(411,332,l)
);
},
{
closed = 1;
nodes = (
(283,580,l),
(283,600,l),
(27,600,l),
(27,580,l)
);
},
{
closed = 1;
nodes = (
(568,580,l),
(568,600,l),
(383,600,l),
(383,580,l)
);
},
{
closed = 1;
nodes = (
(341,14,l),
(287,127,l),
(273,113,l),
(327,0,l)
);
},
{
closed = 1;
nodes = (
(206,274,l),
(36,600,l),
(16,600,l),
(191,261,l)
);
},
{
closed = 1;
nodes = (
(205,267,l),
(190,279,l),
(5,0,l),
(28,0,l)
);
},
{
closed = 1;
nodes = (
(206,0,l),
(206,20,l),
(22,20,l),
(22,0,l)
);
},
{
closed = 1;
nodes = (
(572,0,l),
(572,20,l),
(327,20,l),
(327,0,l)
);
},
{
closed = 1;
nodes = (
(449,519,l),
(435,533,l),
(290,314,l),
(308,303,l)
);
},
{
closed = 1;
nodes = (
(288,126,l),
(279,145,l),
(183,0,l),
(207,0,l)
);
},
{
closed = 1;
nodes = (
(397,586,l),
(383,600,l),
(259,400,l),
(269,378,l)
);
},
{
closed = 1;
nodes = (
(564,582,l),
(551,595,l),
(431,529,l),
(444,516,l)
);
},
{
closed = 1;
nodes = (
(313,305,l),
(200,518,l),
(186,504,l),
(299,291,l)
);
},
{
closed = 1;
nodes = (
(288,581,l),
(275,594,l),
(184,513,l),
(197,500,l)
);
},
{
closed = 1;
nodes = (
(208,512,l),
(49,589,l),
(36,576,l),
(195,499,l)
);
},
{
closed = 1;
nodes = (
(306,296,l),
(292,310,l),
(158,97,l),
(176,86,l)
);
},
{
closed = 1;
nodes = (
(210,16,l),
(177,111,l),
(164,98,l),
(195,4,l)
);
},
{
closed = 1;
nodes = (
(181,96,l),
(168,109,l),
(29,18,l),
(42,5,l)
);
},
{
closed = 1;
nodes = (
(284,136,l),
(246,222,l),
(233,209,l),
(271,123,l)
);
},
{
closed = 1;
nodes = (
(416,100,l),
(309,320,l),
(295,306,l),
(402,86,l)
);
},
{
closed = 1;
nodes = (
(569,21,l),
(410,110,l),
(397,97,l),
(557,7,l)
);
},
{
closed = 1;
nodes = (
(417,93,l),
(404,106,l),
(320,18,l),
(333,5,l)
);
},
{
closed = 1;
nodes = (
(411,331,l),
(398,344,l),
(290,313,l),
(303,300,l)
);
},
{
closed = 1;
nodes = (
(317,308,l),
(304,321,l),
(187,275,l),
(200,262,l)
);
},
{
closed = 1;
nodes = (
(449,528,l),
(396,594,l),
(383,581,l),
(436,515,l)
);
}
);
width = 589;
},
{
layerId = m002;
width = 600;
},
{
layerId = m003;
width = 600;
},
{
layerId = m004;
width = 600;
},
{
layerId = m005;
width = 600;
}
);
unicode = 88;
},
{
color = 1;
glyphname = Y;
lastChange = "2022-10-18 12:20:00 +0000";
layers = (
{
backgroundImage = {
angle = 0.5;
imagePath = "/Lehre/_22_23_WS/1 Basis/_Planung : Ideen/1 RRK 3D/_Source_images/Y.tif";
pos = (-35,-57);
scale = (2.6,2.6);
};
layerId = m01;
shapes = (
{
closed = 1;
nodes = (
(262,580,l),
(262,600,l),
(23,600,l),
(23,580,l)
);
},
{
closed = 1;
nodes = (
(565,580,l),
(565,600,l),
(387,600,l),
(387,580,l)
);
},
{
closed = 1;
nodes = (
(332,413,l),
(262,600,l),
(243,591,l),
(313,405,l)
);
},
{
closed = 1;
nodes = (
(193,195,l),
(26,600,l),
(5,600,l),
(175,186,l)
);
},
{
closed = 1;
nodes = (
(406,591,l),
(387,600,l),
(311,414,l),
(330,406,l)
);
},
{
closed = 1;
nodes = (
(574,600,l),
(554,600,l),
(390,195,l),
(409,187,l)
);
},
{
closed = 1;
nodes = (
(263,581,l),
(251,597,l),
(129,522,l),
(138,503,l)
);
},
{
closed = 1;
nodes = (
(150,519,l),
(33,590,l),
(17,575,l),
(136,502,l)
);
},
{
closed = 1;
nodes = (
(300,144,l),
(146,516,l),
(125,512,l),
(283,131,l)
);
},
{
closed = 1;
nodes = (
(467,520,l),
(448,527,l),
(289,147,l),
(307,139,l)
);
},
{
closed = 1;
nodes = (
(336,421,l),
(317,428,l),
(241,244,l),
(259,236,l)
);
},
{
closed = 1;
nodes = (
(562,576,l),
(551,592,l),
(453,530,l),
(459,510,l)
);
},
{
closed = 1;
nodes = (
(466,522,l),
(394,592,l),
(380,577,l),
(453,505,l)
);
},
{
closed = 1;
nodes = (
(301,144,l),
(182,214,l),
(171,196,l),
(291,126,l)
);
},
{
closed = 1;
nodes = (
(411,198,l),
(402,215,l),
(284,142,l),
(295,127,l)
);
},
{
closed = 1;
nodes = (
(412,0,l),
(412,20,l),
(172,20,l),
(172,0,l)
);
},
{
closed = 1;
nodes = (
(297,117,l),
(284,130,l),
(172,13,l),
(185,0,l)
);
},
{
closed = 1;
nodes = (
(192,0,l),
(192,204,l),
(172,204,l),
(172,0,l)
);
},
{
closed = 1;
nodes = (
(412,13,l),
(300,130,l),
(287,117,l),
(399,0,l)
);
},
{
closed = 1;
nodes = (
(412,0,l),
(412,204,l),
(392,204,l),
(392,0,l)
);
},
{
closed = 1;
nodes = (
(302,115,l),
(302,144,l),
(282,144,l),
(282,115,l)
);
}
);
width = 579;
},
{
layerId = m002;
width = 600;
},
{
layerId = m003;
width = 600;
},
{
layerId = m004;
width = 600;
},
{
layerId = m005;
width = 600;
}
);
unicode = 89;
},
{
color = 1;
glyphname = Z;
lastChange = "2022-10-20 14:57:55 +0000";
layers = (
{
layerId = m01;
shapes = (
{
closed = 1;
nodes = (
(566,238,l),
(546,238,l),
(546,0,l),
(566,0,l)
);
},
{
closed = 1;
nodes = (
(566,222,l),
(566,241,l),
(369,241,l),
(362,222,l)
);
},
{
closed = 1;
nodes = (
(562,225,l),
(550,240,l),
(424,138,l),
(438,124,l)
);
},
{
closed = 1;
nodes = (
(554,27,l),
(443,142,l),
(428,128,l),
(540,13,l)
);
},
{
closed = 1;
nodes = (
(448,125,l),
(448,145,l),
(198,145,l),
(198,125,l)
);
},
{
closed = 1;
nodes = (
(384,227,l),
(373,243,l),
(199,146,l),
(209,130,l)
);
},
{
closed = 1;
nodes = (
(226,139,l),
(213,157,l),
(26,24,l),
(39,7,l)
);
},
{
closed = 1;
nodes = (
(219,379,l),
(197,380,l),
(5,0,l),
(30,0,l)
);
},
{
closed = 1;
nodes = (
(563,580,l),
(563,600,l),
(22,600,l),
(22,580,l)
);
},
{
closed = 1;
nodes = (
(563,0,l),
(563,20,l),
(21,20,l),
(14,0,l)
);
},
{
closed = 1;
nodes = (
(574,600,l),
(552,600,l),
(362,232,l),
(380,224,l)
);
},
{
closed = 1;
nodes = (
(41,597,l),
(21,597,l),
(21,373,l),
(41,373,l)
);
},
{
closed = 1;
nodes = (
(211,373,l),
(211,390,l),
(26,390,l),
(26,373,l)
);
},
{
closed = 1;
nodes = (
(374,487,l),
(364,502,l),
(196,382,l),
(211,368,l)
);
},
{
closed = 1;
nodes = (
(377,487,l),
(377,507,l),
(136,507,l),
(136,487,l)
);
},
{
closed = 1;
nodes = (
(152,498,l),
(136,506,l),
(25,383,l),
(40,373,l)
);
},
{
closed = 1;
nodes = (
(389,499,l),
(371,506,l),
(199,146,l),
(217,135,l)
);
},
{
closed = 1;
nodes = (
(563,581,l),
(559,600,l),
(365,503,l),
(376,486,l)
);
},
{
closed = 1;
nodes = (
(150,499,l),
(35,594,l),
(22,582,l),
(136,486,l)
);
}
);
width = 579;
},
{
layerId = m002;
width = 600;
},
{
layerId = m003;
width = 600;
},
{
layerId = m004;
width = 600;
},
{
layerId = m005;
width = 600;
}
);
unicode = 90;
},
{
glyphname = period;
lastChange = "2022-10-18 12:20:00 +0000";
layers = (
{
background = {
shapes = (
{
closed = 1;
nodes = (
(122,88,l),
(112,98,l),
(28,14,l),
(38,0,l)
);
},
{
closed = 1;
nodes = (
(208,0,l),
(208,19,l),
(28,19,l),
(28,0,l)
);
},
{
closed = 1;
nodes = (
(210,14,l),
(126,98,l),
(112,88,l),
(196,0,l)
);
},
{
closed = 1;
nodes = (
(126,87,l),
(126,102,l),
(111,102,l),
(111,87,l)
);
},
{
closed = 1;
nodes = (
(214,0,l),
(214,184,l),
(193,184,l),
(193,0,l)
);
},
{
closed = 1;
nodes = (
(122,100,l),
(38,184,l),
(28,174,l),
(112,90,l)
);
},
{
closed = 1;
nodes = (
(208,169,l),
(208,184,l),
(32,184,l),
(32,169,l)
);
},
{
closed = 1;
nodes = (
(207,174,l),
(198,184,l),
(114,100,l),
(123,90,l)
);
},
{
closed = 1;
nodes = (
(22,0,l),
(43,0,l),
(43,184,l),
(22,184,l)
);
},
{
closed = 1;
nodes = (
(118,92,l),
(118,96,l),
(36,177,l),
(36,12,l)
);
},
{
closed = 1;
nodes = (
(121,96,l),
(201,177,l),
(36,177,l),
(115,96,l)
);
}
);
};
backgroundImage = {
imagePath = /Users/Source_Image.jpeg;
locked = 1;
pos = (-2919,-2417);
scale = (2.6278,2.6278);
};
layerId = m01;
shapes = (
{
closed = 1;
nodes = (
(112,95,l),
(112,100,l),
(23,186,l),
(23,8,l)
);
},
{
closed = 1;
nodes = (
(209,0,l),
(209,19,l),
(15,19,l),
(15,0,l)
);
},
{
closed = 1;
nodes = (
(116,86,l),
(104,104,l),
(15,15,l),
(30,0,l)
);
},
{
closed = 1;
nodes = (
(209,15,l),
(119,105,l),
(107,87,l),
(194,0,l)
);
},
{
closed = 1;
nodes = (
(34,0,l),
(34,194,l),
(15,194,l),
(15,0,l)
);
},
{
closed = 1;
nodes = (
(120,89,l),
(120,105,l),
(104,105,l),
(104,89,l)
);
},
{
closed = 1;
nodes = (
(209,0,l),
(209,194,l),
(190,194,l),
(190,0,l)
);
},
{
closed = 1;
nodes = (
(117,108,l),
(30,194,l),
(15,179,l),
(105,90,l)
);
},
{
closed = 1;
nodes = (
(115,100,l),
(201,186,l),
(23,186,l),
(109,100,l)
);
},
{
closed = 1;
nodes = (
(209,175,l),
(209,194,l),
(19,194,l),
(19,175,l)
);
},
{
closed = 1;
nodes = (
(208,179,l),
(193,194,l),
(107,108,l),
(119,90,l)
);
}
);
width = 224;
},
{
background = {
shapes = (
{
closed = 1;
nodes = (
(115,198,l),
(105,208,l),
(21,64,l),
(31,50,l)
);
},
{
closed = 1;
nodes = (
(201,50,l),
(201,69,l),
(21,69,l),
(21,50,l)
);
},
{
closed = 1;
nodes = (
(203,64,l),
(119,208,l),
(105,198,l),
(189,50,l)
);
},
{
closed = 1;
nodes = (
(119,197,l),
(119,212,l),
(104,212,l),
(104,197,l)
);
},
{
closed = 1;
nodes = (
(207,50,l),
(207,234,l),
(186,234,l),
(186,50,l)
);
},
{
closed = 1;
nodes = (
(115,210,l),
(31,234,l),
(21,224,l),
(105,200,l)
);
},
{
closed = 1;
nodes = (
(201,219,l),
(201,234,l),
(25,234,l),
(25,219,l)
);
},
{
closed = 1;
nodes = (
(200,224,l),
(191,234,l),
(107,210,l),
(116,200,l)
);
},
{
closed = 1;
nodes = (
(15,50,l),
(36,50,l),
(36,234,l),
(15,234,l)
);
},
{
closed = 1;
nodes = (
(111,202,l),
(111,206,l),
(29,227,l),
(29,62,l)
);
},
{
closed = 1;
nodes = (
(114,206,l),
(194,227,l),
(29,227,l),
(108,206,l)
);
}
);
};
layerId = m002;
shapes = (
{
closed = 1;
nodes = (
(112,200,l),
(112,205,l),
(23,226,l),
(23,58,l)
);
},
{
closed = 1;
nodes = (
(209,50,l),
(209,69,l),
(15,69,l),
(15,50,l)
);
},
{
closed = 1;
nodes = (
(116,191,l),
(104,209,l),
(19,65,l),
(34,50,l)
);
},
{
closed = 1;
nodes = (
(205,65,l),
(119,210,l),
(107,192,l),
(190,50,l)
);
},
{
closed = 1;
nodes = (
(34,50,l),
(34,234,l),
(15,234,l),
(15,50,l)
);
},
{
closed = 1;
nodes = (
(120,194,l),
(120,210,l),
(104,210,l),
(104,194,l)
);
},
{
closed = 1;
nodes = (
(209,50,l),
(209,234,l),
(190,234,l),
(190,50,l)
);
},
{
closed = 1;
nodes = (
(117,213,l),
(30,234,l),
(15,217,l),
(105,195,l)
);
},
{
closed = 1;
nodes = (
(115,205,l),
(201,226,l),
(23,226,l),
(109,205,l)
);
},
{
closed = 1;
nodes = (
(209,215,l),
(209,234,l),
(19,234,l),
(19,215,l)
);
},
{
closed = 1;
nodes = (
(208,217,l),
(193,234,l),
(107,213,l),
(119,195,l)
);
}
);
width = 224;
},
{
background = {
shapes = (
{
closed = 1;
nodes = (
(115,88,l),
(105,98,l),
(21,64,l),
(31,50,l)
);
},
{
closed = 1;
nodes = (
(201,50,l),
(201,69,l),
(21,69,l),
(21,50,l)
);
},
{
closed = 1;
nodes = (
(203,64,l),
(119,98,l),
(105,88,l),
(189,50,l)
);
},
{
closed = 1;
nodes = (
(119,87,l),
(119,102,l),
(104,102,l),
(104,87,l)
);
},
{
closed = 1;
nodes = (
(207,50,l),
(207,234,l),
(186,234,l),
(186,50,l)
);
},
{
closed = 1;
nodes = (
(115,100,l),
(31,234,l),
(21,224,l),
(105,90,l)
);
},
{
closed = 1;
nodes = (
(201,219,l),
(201,234,l),
(25,234,l),
(25,219,l)
);
},
{
closed = 1;
nodes = (
(200,224,l),
(191,234,l),
(107,100,l),
(116,90,l)
);
},
{
closed = 1;
nodes = (
(15,50,l),
(36,50,l),
(36,234,l),
(15,234,l)
);
},
{
closed = 1;
nodes = (
(111,92,l),
(111,96,l),
(29,227,l),
(29,62,l)
);
},
{
closed = 1;
nodes = (
(114,96,l),
(194,227,l),
(29,227,l),
(108,96,l)
);
}
);
};
layerId = m003;
shapes = (
{
closed = 1;
nodes = (
(112,109,l),
(112,114,l),
(23,226,l),
(23,58,l)
);
},
{
closed = 1;
nodes = (
(209,50,l),
(209,69,l),
(15,69,l),
(15,50,l)
);
},
{
closed = 1;
nodes = (
(116,102,l),
(104,118,l),
(15,73,l),
(26,60,l)
);
},
{
closed = 1;
nodes = (
(209,80,l),
(119,119,l),
(102,104,l),
(196,65,l)
);
},
{
closed = 1;
nodes = (
(34,50,l),
(34,234,l),
(15,234,l),
(15,50,l)
);
},
{
closed = 1;
nodes = (
(120,103,l),
(120,119,l),
(104,119,l),
(104,103,l)
);
},
{
closed = 1;
nodes = (
(209,50,l),
(209,234,l),
(190,234,l),
(190,50,l)
);
},
{
closed = 1;
nodes = (
(117,122,l),
(30,234,l),
(15,229,l),
(105,104,l)
);
},
{
closed = 1;
nodes = (
(115,114,l),
(201,226,l),
(23,226,l),
(109,114,l)
);
},
{
closed = 1;
nodes = (
(209,215,l),
(209,234,l),
(19,234,l),
(19,215,l)
);
},
{
closed = 1;
nodes = (
(208,229,l),
(193,234,l),
(107,122,l),
(119,104,l)
);
}
);
width = 224;
},
{
background = {
shapes = (
{
closed = 1;
nodes = (
(30,84,l),
(20,94,l),
(-4,10,l),
(6,0,l)
);
},
{
closed = 1;
nodes = (
(154,0,l),
(154,15,l),
(-4,15,l),
(-4,0,l)
);
},
{
closed = 1;
nodes = (
(154,10,l),
(32,94,l),
(22,84,l),
(144,0,l)
);
},
{
closed = 1;
nodes = (
(34,83,l),
(34,108,l),
(19,108,l),
(19,83,l)
);
},
{
closed = 1;
nodes = (
(154,0,l),
(154,190,l),
(139,190,l),
(139,0,l)
);
},
{
closed = 1;
nodes = (
(30,106,l),
(6,190,l),
(-4,180,l),
(20,96,l)
);
},
{
closed = 1;
nodes = (
(154,175,l),
(154,190,l),
(0,190,l),
(0,175,l)
);
},
{
closed = 1;
nodes = (
(153,180,l),
(143,190,l),
(22,106,l),
(31,96,l)
);
},
{
closed = 1;
nodes = (
(-4,0,l),
(11,0,l),
(11,190,l),
(-4,190,l)
);
},
{
closed = 1;
nodes = (
(26,88,l),
(26,102,l),
(4,183,l),
(4,8,l)
);
},
{
closed = 1;
nodes = (
(29,102,l),
(146,183,l),
(4,183,l),
(23,102,l)
);
}
);
};
layerId = m004;
shapes = (
{
closed = 1;
nodes = (
(43,105,l),
(43,110,l),
(23,186,l),
(23,8,l)
);
},
{
closed = 1;
nodes = (
(179,0,l),
(179,19,l),
(15,19,l),
(15,0,l)
);
},
{
closed = 1;
nodes = (
(50,96,l),
(38,114,l),
(18,15,l),
(33,0,l)
);
},
{
closed = 1;
nodes = (
(179,15,l),
(50,115,l),
(38,97,l),
(164,0,l)
);
},
{
closed = 1;
nodes = (
(34,0,l),
(34,194,l),
(15,194,l),
(15,0,l)
);
},
{
closed = 1;
nodes = (
(51,99,l),
(51,115,l),
(35,115,l),
(35,99,l)
);
},
{
closed = 1;
nodes = (
(179,0,l),
(179,194,l),
(160,194,l),
(160,0,l)
);
},
{
closed = 1;
nodes = (
(48,118,l),
(30,194,l),
(15,179,l),
(36,100,l)
);
},
{
closed = 1;
nodes = (
(46,110,l),
(171,186,l),
(23,186,l),
(40,110,l)
);
},
{
closed = 1;
nodes = (
(179,175,l),
(179,194,l),
(19,194,l),
(19,175,l)
);
},
{
closed = 1;
nodes = (
(178,179,l),
(163,194,l),
(38,118,l),
(50,100,l)
);
}
);
width = 194;
},
{
background = {
shapes = (
{
closed = 1;
nodes = (
(136,84,l),
(127,94,l),
(5,10,l),
(15,0,l)
);
},
{
closed = 1;
nodes = (
(163,0,l),
(163,15,l),
(5,15,l),
(5,0,l)
);
},
{
closed = 1;
nodes = (
(163,10,l),
(139,94,l),
(129,84,l),
(153,0,l)
);
},
{
closed = 1;
nodes = (
(140,83,l),
(140,108,l),
(125,108,l),
(125,83,l)
);
},
{
closed = 1;
nodes = (
(163,0,l),
(163,190,l),
(148,190,l),
(148,0,l)
);
},
{
closed = 1;
nodes = (
(136,106,l),
(15,190,l),
(5,180,l),
(127,96,l)
);
},
{
closed = 1;
nodes = (
(163,175,l),
(163,190,l),
(9,190,l),
(9,175,l)
);
},
{
closed = 1;
nodes = (
(162,180,l),
(152,190,l),
(128,106,l),
(138,96,l)
);
},
{
closed = 1;
nodes = (
(5,0,l),
(20,0,l),
(20,190,l),
(5,190,l)
);
},
{
closed = 1;
nodes = (
(133,88,l),
(133,102,l),
(13,183,l),
(13,8,l)
);
},
{
closed = 1;
nodes = (
(136,102,l),
(155,183,l),
(13,183,l),
(130,102,l)
);
}
);
};
layerId = m005;
shapes = (
{
closed = 1;
nodes = (
(152,105,l),
(152,110,l),
(23,186,l),
(23,8,l)
);
},
{
closed = 1;
nodes = (
(179,0,l),
(179,19,l),
(15,19,l),
(15,0,l)
);
},
{
closed = 1;
nodes = (
(156,96,l),
(144,114,l),
(15,15,l),
(30,0,l)
);
},
{
closed = 1;
nodes = (
(177,15,l),
(159,115,l),
(147,97,l),
(162,0,l)
);
},
{
closed = 1;
nodes = (
(34,0,l),
(34,194,l),
(15,194,l),
(15,0,l)
);
},
{
closed = 1;
nodes = (
(160,99,l),
(160,115,l),
(144,115,l),
(144,99,l)
);
},
{
closed = 1;
nodes = (
(179,0,l),
(179,194,l),
(160,194,l),
(160,0,l)
);
},
{
closed = 1;
nodes = (
(157,118,l),
(30,194,l),
(15,179,l),
(145,100,l)
);
},
{
closed = 1;
nodes = (
(155,110,l),
(171,186,l),
(23,186,l),
(149,110,l)
);
},
{
closed = 1;
nodes = (
(179,175,l),
(179,194,l),
(19,194,l),
(19,175,l)
);
},
{
closed = 1;
nodes = (
(178,179,l),
(163,194,l),
(147,118,l),
(159,100,l)
);
}
);
width = 194;
}
);
metricLeft = "=15";
metricRight = "=15";
unicode = 46;
},
{
glyphname = colon;
lastChange = "2022-10-18 12:20:00 +0000";
layers = (
{
guides = (
{
pos = (81,210);
}
);
layerId = m01;
shapes = (
{
closed = 1;
nodes = (
(98,132,l),
(98,136,l),
(21,210,l),
(21,57,l)
);
},
{
closed = 1;
nodes = (
(181,50,l),
(181,66,l),
(15,66,l),
(15,50,l)
);
},
{
closed = 1;
nodes = (
(101,124,l),
(91,139,l),
(15,63,l),
(27,50,l)
);
},
{
closed = 1;
nodes = (
(181,63,l),
(104,140,l),
(94,125,l),
(169,50,l)
);
},
{
closed = 1;
nodes = (
(31,50,l),
(31,217,l),
(15,217,l),
(15,50,l)
);
},
{
closed = 1;
nodes = (
(105,127,l),
(105,140,l),
(91,140,l),
(91,127,l)
);
},
{
closed = 1;
nodes = (
(181,50,l),
(181,217,l),
(165,217,l),
(165,50,l)
);
},
{
closed = 1;
nodes = (
(102,143,l),
(27,217,l),
(15,204,l),
(92,127,l)
);
},
{
closed = 1;
nodes = (
(101,136,l),
(175,210,l),
(21,210,l),
(95,136,l)
);
},
{
closed = 1;
nodes = (
(181,200,l),
(181,217,l),
(18,217,l),
(18,200,l)
);
},
{
closed = 1;
nodes = (
(181,204,l),
(168,217,l),
(94,143,l),
(104,127,l)
);
},
{
closed = 1;
nodes = (
(98,390,l),
(98,394,l),
(21,468,l),
(21,315,l)
);
},
{
closed = 1;
nodes = (
(181,308,l),
(181,325,l),
(15,325,l),
(15,308,l)
);
},
{
closed = 1;
nodes = (
(101,382,l),
(91,398,l),
(15,321,l),
(27,308,l)
);
},
{
closed = 1;
nodes = (
(181,321,l),
(104,398,l),
(94,383,l),
(169,308,l)
);
},
{
closed = 1;
nodes = (
(31,308,l),
(31,475,l),
(15,475,l),
(15,308,l)
);
},
{
closed = 1;
nodes = (
(105,385,l),
(105,398,l),
(91,398,l),
(91,385,l)
);
},
{
closed = 1;
nodes = (
(181,308,l),
(181,475,l),
(165,475,l),
(165,308,l)
);
},
{
closed = 1;
nodes = (
(102,401,l),
(27,475,l),
(15,462,l),
(92,386,l)
);
},
{
closed = 1;
nodes = (
(101,394,l),
(175,468,l),
(21,468,l),
(95,394,l)
);
},
{
closed = 1;
nodes = (
(181,459,l),
(181,475,l),
(18,475,l),
(18,459,l)
);
},
{
closed = 1;
nodes = (
(181,462,l),
(168,475,l),
(94,401,l),
(104,386,l)
);
}
);
width = 196;
},
{
layerId = m002;
shapes = (
{
closed = 1;
nodes = (
(98,229,l),
(98,233,l),
(21,251,l),
(21,107,l)
);
},
{
closed = 1;
nodes = (
(181,100,l),
(181,116,l),
(15,116,l),
(15,100,l)
);
},
{
closed = 1;
nodes = (
(101,221,l),
(91,237,l),
(18,113,l),
(31,100,l)
);
},
{
closed = 1;
nodes = (
(178,113,l),
(104,238,l),
(94,222,l),
(165,100,l)
);
},
{
closed = 1;
nodes = (
(31,100,l),
(31,258,l),
(15,258,l),
(15,100,l)
);
},
{
closed = 1;
nodes = (
(105,224,l),
(105,238,l),
(91,238,l),
(91,224,l)
);
},
{
closed = 1;
nodes = (
(181,100,l),
(181,258,l),
(165,258,l),
(165,100,l)
);
},
{
closed = 1;
nodes = (
(102,240,l),
(27,258,l),
(15,244,l),
(92,225,l)
);
},
{
closed = 1;
nodes = (
(101,233,l),
(175,251,l),
(21,251,l),
(95,233,l)
);
},
{
closed = 1;
nodes = (
(181,242,l),
(181,258,l),
(18,258,l),
(18,242,l)
);
},
{
closed = 1;
nodes = (
(181,244,l),
(168,258,l),
(94,240,l),
(104,225,l)
);
},
{
closed = 1;
nodes = (
(98,422,l),
(98,426,l),
(21,444,l),
(21,300,l)
);
},
{
closed = 1;
nodes = (
(181,293,l),
(181,309,l),
(15,309,l),
(15,293,l)
);
},
{
closed = 1;
nodes = (
(101,414,l),
(91,429,l),
(18,306,l),
(31,293,l)
);
},
{
closed = 1;
nodes = (
(178,306,l),
(104,430,l),
(94,415,l),
(165,293,l)
);
},
{
closed = 1;
nodes = (
(31,293,l),
(31,451,l),
(15,451,l),
(15,293,l)
);
},
{
closed = 1;
nodes = (
(105,416,l),
(105,430,l),
(91,430,l),
(91,416,l)
);
},
{
closed = 1;
nodes = (
(181,293,l),
(181,451,l),
(165,451,l),
(165,293,l)
);
},
{
closed = 1;
nodes = (
(102,433,l),
(27,451,l),
(15,436,l),
(92,417,l)
);
},
{
closed = 1;
nodes = (
(101,426,l),
(175,444,l),
(21,444,l),
(95,426,l)
);
},
{
closed = 1;
nodes = (
(181,435,l),
(181,451,l),
(18,451,l),
(18,435,l)
);
},
{
closed = 1;
nodes = (
(181,436,l),
(168,451,l),
(94,433,l),
(104,417,l)
);
}
);
width = 196;
},
{
layerId = m003;
shapes = (
{
closed = 1;
nodes = (
(98,151,l),
(98,155,l),
(21,251,l),
(21,107,l)
);
},
{
closed = 1;
nodes = (
(181,100,l),
(181,116,l),
(15,116,l),
(15,100,l)
);
},
{
closed = 1;
nodes = (
(101,145,l),
(91,159,l),
(15,120,l),
(24,109,l)
);
},
{
closed = 1;
nodes = (
(181,126,l),
(104,159,l),
(89,147,l),
(170,113,l)
);
},
{
closed = 1;
nodes = (
(31,100,l),
(31,258,l),
(15,258,l),
(15,100,l)
);
},
{
closed = 1;
nodes = (
(105,146,l),
(105,159,l),
(91,159,l),
(91,146,l)
);
},
{
closed = 1;
nodes = (
(181,100,l),
(181,258,l),
(165,258,l),
(165,100,l)
);
},
{
closed = 1;
nodes = (
(102,162,l),
(27,258,l),
(15,254,l),
(92,147,l)
);
},
{
closed = 1;
nodes = (
(101,155,l),
(175,251,l),
(21,251,l),
(95,155,l)
);
},
{
closed = 1;
nodes = (
(181,242,l),
(181,258,l),
(18,258,l),
(18,242,l)
);
},
{
closed = 1;
nodes = (
(181,254,l),
(168,258,l),
(94,162,l),
(104,147,l)
);
},
{
closed = 1;
nodes = (
(98,343,l),
(98,348,l),
(21,444,l),
(21,300,l)
);
},
{
closed = 1;
nodes = (
(181,293,l),
(181,309,l),
(15,309,l),
(15,293,l)
);
},
{
closed = 1;
nodes = (
(101,337,l),
(91,351,l),
(15,312,l),
(24,301,l)
);
},
{
closed = 1;
nodes = (
(181,318,l),
(104,352,l),
(89,339,l),
(170,306,l)
);
},
{
closed = 1;
nodes = (
(31,293,l),
(31,451,l),
(15,451,l),
(15,293,l)
);
},
{
closed = 1;
nodes = (
(105,338,l),
(105,352,l),
(91,352,l),
(91,338,l)
);
},
{
closed = 1;
nodes = (
(181,293,l),
(181,451,l),
(165,451,l),
(165,293,l)
);
},
{
closed = 1;
nodes = (
(102,355,l),
(27,451,l),
(15,447,l),
(92,339,l)
);
},
{
closed = 1;
nodes = (
(101,348,l),
(175,444,l),
(21,444,l),
(95,348,l)
);
},
{
closed = 1;
nodes = (
(181,435,l),
(181,451,l),
(18,451,l),
(18,435,l)
);
},
{
closed = 1;
nodes = (
(181,447,l),
(168,451,l),
(94,355,l),
(104,339,l)
);
}
);
width = 196;
},
{
layerId = m004;
shapes = (
{
closed = 1;
nodes = (
(40,140,l),
(40,145,l),
(22,210,l),
(22,57,l)
);
},
{
closed = 1;
nodes = (
(157,50,l),
(157,66,l),
(15,66,l),
(15,50,l)
);
},
{
closed = 1;
nodes = (
(46,133,l),
(35,148,l),
(18,63,l),
(31,50,l)
);
},
{
closed = 1;
nodes = (
(157,63,l),
(46,149,l),
(35,133,l),
(144,50,l)
);
},
{
closed = 1;
nodes = (
(32,50,l),
(32,217,l),
(15,217,l),
(15,50,l)
);
},
{
closed = 1;
nodes = (
(46,135,l),
(46,149,l),
(33,149,l),
(33,135,l)
);
},
{
closed = 1;
nodes = (
(157,50,l),
(157,217,l),
(140,217,l),
(140,50,l)
);
},
{
closed = 1;
nodes = (
(44,151,l),
(28,217,l),
(15,204,l),
(34,136,l)
);
},
{
closed = 1;
nodes = (
(42,145,l),
(150,210,l),
(22,210,l),
(37,145,l)
);
},
{
closed = 1;
nodes = (
(157,200,l),
(157,217,l),
(19,217,l),
(19,200,l)
);
},
{
closed = 1;
nodes = (
(156,204,l),
(143,217,l),
(35,151,l),
(46,136,l)
);
},
{
closed = 1;
nodes = (
(40,398,l),
(40,403,l),
(22,468,l),
(22,315,l)
);
},
{
closed = 1;
nodes = (
(157,308,l),
(157,325,l),
(15,325,l),
(15,308,l)
);
},
{
closed = 1;
nodes = (
(46,391,l),
(35,406,l),
(18,321,l),
(31,308,l)
);
},
{
closed = 1;
nodes = (
(157,321,l),
(46,407,l),
(35,392,l),
(144,308,l)
);
},
{
closed = 1;
nodes = (
(32,308,l),
(32,475,l),
(15,475,l),
(15,308,l)
);
},
{
closed = 1;
nodes = (
(46,393,l),
(46,407,l),
(33,407,l),
(33,393,l)
);
},
{
closed = 1;
nodes = (
(157,308,l),
(157,475,l),
(140,475,l),
(140,308,l)
);
},
{
closed = 1;
nodes = (
(44,410,l),
(28,475,l),
(15,462,l),
(34,394,l)
);
},
{
closed = 1;
nodes = (
(42,403,l),
(150,468,l),
(22,468,l),
(37,403,l)
);
},
{
closed = 1;
nodes = (
(157,459,l),
(157,475,l),
(19,475,l),
(19,459,l)
);
},
{
closed = 1;
nodes = (
(156,462,l),
(143,475,l),
(35,410,l),
(46,394,l)
);
}
);
width = 172;
},
{
layerId = m005;
shapes = (
{
closed = 1;
nodes = (
(133,140,l),
(133,145,l),
(22,210,l),
(22,57,l)
);
},
{
closed = 1;
nodes = (
(157,50,l),
(157,66,l),
(15,66,l),
(15,50,l)
);
},
{
closed = 1;
nodes = (
(137,133,l),
(126,148,l),
(15,63,l),
(28,50,l)
);
},
{
closed = 1;
nodes = (
(155,63,l),
(139,149,l),
(129,133,l),
(142,50,l)
);
},
{
closed = 1;
nodes = (
(32,50,l),
(32,217,l),
(15,217,l),
(15,50,l)
);
},
{
closed = 1;
nodes = (
(140,135,l),
(140,149,l),
(126,149,l),
(126,135,l)
);
},
{
closed = 1;
nodes = (
(157,50,l),
(157,217,l),
(140,217,l),
(140,50,l)
);
},
{
closed = 1;
nodes = (
(138,151,l),
(28,217,l),
(15,204,l),
(127,136,l)
);
},
{
closed = 1;
nodes = (
(136,145,l),
(150,210,l),
(22,210,l),
(131,145,l)
);
},
{
closed = 1;
nodes = (
(157,200,l),
(157,217,l),
(19,217,l),
(19,200,l)
);
},
{
closed = 1;
nodes = (
(156,204,l),
(143,217,l),
(129,151,l),
(139,136,l)
);
},
{
closed = 1;
nodes = (
(133,398,l),
(133,403,l),
(22,468,l),
(22,315,l)
);
},
{
closed = 1;
nodes = (
(157,308,l),
(157,325,l),
(15,325,l),
(15,308,l)
);
},
{
closed = 1;
nodes = (
(137,391,l),
(126,406,l),
(15,321,l),
(28,308,l)
);
},
{
closed = 1;
nodes = (
(155,321,l),
(139,407,l),
(129,392,l),
(142,308,l)
);
},
{
closed = 1;
nodes = (
(32,308,l),
(32,475,l),
(15,475,l),
(15,308,l)
);
},
{
closed = 1;
nodes = (
(140,393,l),
(140,407,l),
(126,407,l),
(126,393,l)
);
},
{
closed = 1;
nodes = (
(157,308,l),
(157,475,l),
(140,475,l),
(140,308,l)
);
},
{
closed = 1;
nodes = (
(138,410,l),
(28,475,l),
(15,462,l),
(127,394,l)
);
},
{
closed = 1;
nodes = (
(136,403,l),
(150,468,l),
(22,468,l),
(131,403,l)
);
},
{
closed = 1;
nodes = (
(157,459,l),
(157,475,l),
(19,475,l),
(19,459,l)
);
},
{
closed = 1;
nodes = (
(156,462,l),
(143,475,l),
(129,410,l),
(139,394,l)
);
}
);
width = 172;
}
);
metricLeft = "=15";
metricRight = "=15";
unicode = 58;
},
{
glyphname = diagonals;
lastChange = "2022-10-18 12:20:00 +0000";
layers = (
{
layerId = m01;
shapes = (
{
closed = 1;
nodes = (
(150,13,l),
(33,130,l),
(20,117,l),
(137,0,l)
);
}
);
width = 170;
},
{
layerId = m002;
shapes = (
{
closed = 1;
nodes = (
(150,13,l),
(33,130,l),
(20,117,l),
(137,0,l)
);
}
);
width = 170;
},
{
layerId = m003;
shapes = (
{
closed = 1;
nodes = (
(150,13,l),
(33,130,l),
(20,117,l),
(137,0,l)
);
}
);
width = 170;
},
{
layerId = m004;
shapes = (
{
closed = 1;
nodes = (
(150,13,l),
(33,130,l),
(20,117,l),
(137,0,l)
);
}
);
width = 170;
},
{
layerId = m005;
shapes = (
{
closed = 1;
nodes = (
(150,13,l),
(33,130,l),
(20,117,l),
(137,0,l)
);
}
);
width = 170;
}
);
metricLeft = "=20";
metricRight = "=20";
},
{
glyphname = horizontals;
lastChange = "2022-10-18 12:20:00 +0000";
layers = (
{
layerId = m01;
shapes = (
{
closed = 1;
nodes = (
(260,0,l),
(260,20,l),
(20,20,l),
(20,0,l)
);
}
);
width = 280;
},
{
layerId = m002;
shapes = (
{
closed = 1;
nodes = (
(260,0,l),
(260,20,l),
(20,20,l),
(20,0,l)
);
}
);
width = 280;
},
{
layerId = m003;
shapes = (
{
closed = 1;
nodes = (
(260,0,l),
(260,20,l),
(20,20,l),
(20,0,l)
);
}
);
width = 280;
},
{
layerId = m004;
shapes = (
{
closed = 1;
nodes = (
(260,0,l),
(260,20,l),
(20,20,l),
(20,0,l)
);
}
);
width = 280;
},
{
layerId = m005;
shapes = (
{
closed = 1;
nodes = (
(260,0,l),
(260,20,l),
(20,20,l),
(20,0,l)
);
}
);
width = 280;
}
);
metricLeft = "=20";
metricRight = "=20";
},
{
glyphname = verticals;
lastChange = "2022-10-18 12:20:00 +0000";
layers = (
{
layerId = m01;
shapes = (
{
closed = 1;
nodes = (
(40,0,l),
(40,600,l),
(20,600,l),
(20,0,l)
);
}
